<mxfile host="app.diagrams.net" agent="Mozilla/5.0 (Windows NT 10.0; Win64; x64) AppleWebKit/537.36 (KHTML, like Gecko) Chrome/128.0.0.0 YaBrowser/24.10.0.0 Safari/537.36" version="24.8.6" pages="6">
  <diagram name="desc" id="Y6MwfgY38lA7RgZRhpAC">
    <mxGraphModel dx="1434" dy="791" grid="1" gridSize="10" guides="1" tooltips="1" connect="1" arrows="1" fold="1" page="1" pageScale="1" pageWidth="827" pageHeight="1169" math="0" shadow="0">
      <root>
        <mxCell id="0" />
        <mxCell id="1" parent="0" />
        <mxCell id="W45SGp_iJSD4CZYYapee-1" value="3 - 4&lt;div&gt;4 - 9&lt;/div&gt;&lt;div&gt;8 - 0&lt;/div&gt;&lt;div&gt;2 - 3&lt;/div&gt;&lt;div&gt;5 - 6&lt;/div&gt;&lt;div&gt;2 - 9&lt;/div&gt;&lt;div&gt;5 - 9&lt;/div&gt;&lt;div&gt;7 - 3&lt;/div&gt;&lt;div&gt;4 - 8&lt;/div&gt;&lt;div&gt;5 - 6&lt;/div&gt;&lt;div&gt;0 - 2&lt;/div&gt;&lt;div&gt;6 - 1&lt;/div&gt;" style="text;html=1;align=left;verticalAlign=middle;whiteSpace=wrap;rounded=0;" parent="1" vertex="1">
          <mxGeometry x="40" y="40" width="40" height="200" as="geometry" />
        </mxCell>
        <mxCell id="W45SGp_iJSD4CZYYapee-2" value="3 - 4&lt;div&gt;4 - 9&lt;/div&gt;&lt;div&gt;8 - 0&lt;/div&gt;&lt;div&gt;2 - 3&lt;/div&gt;&lt;div&gt;5 - 6&lt;/div&gt;&lt;div&gt;&lt;br&gt;&lt;/div&gt;&lt;div&gt;5 - 9&lt;/div&gt;&lt;div&gt;7 - 3&lt;/div&gt;&lt;div&gt;4 - 8&lt;/div&gt;&lt;div&gt;&lt;br&gt;&lt;/div&gt;&lt;div&gt;&lt;br&gt;&lt;/div&gt;&lt;div&gt;6 - 1&lt;/div&gt;" style="text;html=1;align=left;verticalAlign=middle;whiteSpace=wrap;rounded=0;" parent="1" vertex="1">
          <mxGeometry x="90" y="40" width="40" height="200" as="geometry" />
        </mxCell>
        <mxCell id="W45SGp_iJSD4CZYYapee-3" value="&lt;div&gt;&lt;br&gt;&lt;/div&gt;&lt;div&gt;&lt;br&gt;&lt;/div&gt;&lt;div&gt;&lt;br&gt;&lt;/div&gt;&lt;div&gt;&lt;br&gt;&lt;/div&gt;&lt;div&gt;&lt;br&gt;&lt;/div&gt;&lt;div&gt;2 - 3 - 4 - 9&lt;/div&gt;&lt;div&gt;&lt;br&gt;&lt;/div&gt;&lt;div&gt;&lt;br&gt;&lt;/div&gt;&lt;div&gt;&lt;br&gt;&lt;/div&gt;&lt;div&gt;5 - 6&lt;/div&gt;&lt;div&gt;0 - 8 - 4 - 3 - 2&lt;/div&gt;&lt;div&gt;&lt;br&gt;&lt;/div&gt;" style="text;html=1;align=left;verticalAlign=middle;whiteSpace=wrap;rounded=0;" parent="1" vertex="1">
          <mxGeometry x="140" y="40" width="90" height="200" as="geometry" />
        </mxCell>
        <mxCell id="W45SGp_iJSD4CZYYapee-4" value="Вход" style="text;html=1;align=center;verticalAlign=middle;whiteSpace=wrap;rounded=0;" parent="1" vertex="1">
          <mxGeometry x="40" y="20" width="30" height="30" as="geometry" />
        </mxCell>
        <mxCell id="W45SGp_iJSD4CZYYapee-5" value="Выход" style="text;html=1;align=center;verticalAlign=middle;whiteSpace=wrap;rounded=0;" parent="1" vertex="1">
          <mxGeometry x="90" y="20" width="40" height="30" as="geometry" />
        </mxCell>
        <mxCell id="W45SGp_iJSD4CZYYapee-8" value="&lt;div&gt;При заданной последовательности пар целых чисел, представляющих связи между объектами (слева) алгоритм определения связанности должен выводить только те пары, которые определяют новые связи&lt;/div&gt;&lt;div&gt;(в центре). Например, пара 2 - 9 не должна выводиться, поскольку связь 2 - 3 - 4 - 9 определяется ранние указанными связями (подтверждение этого показано справа).&lt;/div&gt;" style="text;html=1;align=left;verticalAlign=middle;whiteSpace=wrap;rounded=0;" parent="1" vertex="1">
          <mxGeometry x="240" y="40" width="250" height="140" as="geometry" />
        </mxCell>
        <mxCell id="W45SGp_iJSD4CZYYapee-9" value="" style="endArrow=none;html=1;rounded=0;endSize=6;strokeWidth=0;" parent="1" edge="1">
          <mxGeometry width="50" height="50" relative="1" as="geometry">
            <mxPoint y="240" as="sourcePoint" />
            <mxPoint x="520" y="240" as="targetPoint" />
          </mxGeometry>
        </mxCell>
        <mxCell id="W45SGp_iJSD4CZYYapee-10" value="" style="endArrow=none;html=1;rounded=0;endSize=6;strokeWidth=0;" parent="1" edge="1">
          <mxGeometry width="50" height="50" relative="1" as="geometry">
            <mxPoint as="sourcePoint" />
            <mxPoint x="520" as="targetPoint" />
          </mxGeometry>
        </mxCell>
        <mxCell id="W45SGp_iJSD4CZYYapee-11" value="" style="endArrow=none;html=1;rounded=0;endSize=6;strokeWidth=0;" parent="1" edge="1">
          <mxGeometry width="50" height="50" relative="1" as="geometry">
            <mxPoint x="520" y="240" as="sourcePoint" />
            <mxPoint x="520" as="targetPoint" />
          </mxGeometry>
        </mxCell>
        <mxCell id="W45SGp_iJSD4CZYYapee-12" value="" style="endArrow=none;html=1;rounded=0;endSize=6;strokeWidth=0;" parent="1" edge="1">
          <mxGeometry width="50" height="50" relative="1" as="geometry">
            <mxPoint y="240" as="sourcePoint" />
            <mxPoint as="targetPoint" />
          </mxGeometry>
        </mxCell>
      </root>
    </mxGraphModel>
  </diagram>
  <diagram id="wwe0FSb1Ad9Ru0XGEOM8" name="exmpl1">
    <mxGraphModel dx="1434" dy="791" grid="1" gridSize="10" guides="1" tooltips="1" connect="1" arrows="1" fold="1" page="1" pageScale="1" pageWidth="827" pageHeight="1169" math="0" shadow="0">
      <root>
        <mxCell id="0" />
        <mxCell id="1" parent="0" />
        <mxCell id="38JOnhAj_tpCCD_ZniFF-1" value="3&amp;nbsp; &amp;nbsp; 4&lt;div&gt;4&amp;nbsp; &amp;nbsp; 9&lt;/div&gt;&lt;div&gt;8&amp;nbsp; &amp;nbsp; 0&lt;/div&gt;&lt;div&gt;2&amp;nbsp; &amp;nbsp; 3&lt;/div&gt;&lt;div&gt;5&amp;nbsp; &amp;nbsp; 6&lt;/div&gt;&lt;div&gt;2&amp;nbsp; &amp;nbsp; 9&lt;/div&gt;&lt;div&gt;5&amp;nbsp; &amp;nbsp; 9&lt;/div&gt;&lt;div&gt;7&amp;nbsp; &amp;nbsp; 3&lt;/div&gt;&lt;div&gt;4&amp;nbsp; &amp;nbsp; 8&lt;/div&gt;&lt;div&gt;5&amp;nbsp; &amp;nbsp; 6&lt;/div&gt;&lt;div&gt;0&amp;nbsp; &amp;nbsp; 2&lt;/div&gt;&lt;div&gt;6&amp;nbsp; &amp;nbsp; 1&lt;/div&gt;" style="text;html=1;align=left;verticalAlign=middle;whiteSpace=wrap;rounded=0;" parent="1" vertex="1">
          <mxGeometry x="40" y="40" width="40" height="200" as="geometry" />
        </mxCell>
        <mxCell id="38JOnhAj_tpCCD_ZniFF-2" value="0&amp;nbsp; 1&amp;nbsp; 2&amp;nbsp; 3&amp;nbsp; 4&amp;nbsp; 5&amp;nbsp; 6&amp;nbsp; 7&amp;nbsp; 8&amp;nbsp; 9" style="text;html=1;align=left;verticalAlign=middle;whiteSpace=wrap;rounded=0;" parent="1" vertex="1">
          <mxGeometry x="110" y="20" width="130" height="20" as="geometry" />
        </mxCell>
        <mxCell id="38JOnhAj_tpCCD_ZniFF-4" value="&lt;b&gt;p&amp;nbsp; &amp;nbsp; q&lt;/b&gt;" style="text;html=1;align=left;verticalAlign=middle;whiteSpace=wrap;rounded=0;" parent="1" vertex="1">
          <mxGeometry x="40" y="20" width="40" height="20" as="geometry" />
        </mxCell>
        <mxCell id="38JOnhAj_tpCCD_ZniFF-7" value="&lt;div&gt;0&amp;nbsp; 1&amp;nbsp; 2&amp;nbsp; &lt;b&gt;4&lt;/b&gt;&amp;nbsp; 4&amp;nbsp; 5&amp;nbsp; 6&amp;nbsp; 7&amp;nbsp; 8&amp;nbsp; 9&lt;/div&gt;&lt;div&gt;0&amp;nbsp; 1&amp;nbsp; 2&amp;nbsp; &lt;b&gt;9&lt;/b&gt;&amp;nbsp; &lt;b&gt;9&lt;/b&gt;&amp;nbsp; 5&amp;nbsp; 6&amp;nbsp; 7&amp;nbsp; 8&amp;nbsp; 9&lt;/div&gt;&lt;div&gt;0&amp;nbsp; 1&amp;nbsp; 2&amp;nbsp; 9&amp;nbsp; 9&amp;nbsp; 5&amp;nbsp; 6&amp;nbsp; 7&amp;nbsp; &lt;b&gt;0&lt;/b&gt;&amp;nbsp; 9&lt;/div&gt;&lt;div&gt;0&amp;nbsp; 1&amp;nbsp; &lt;b&gt;9&lt;/b&gt;&amp;nbsp; 9&amp;nbsp; 9&amp;nbsp; 5&amp;nbsp; 6&amp;nbsp; 7&amp;nbsp; 0&amp;nbsp; 9&lt;/div&gt;&lt;div&gt;0&amp;nbsp; 1&amp;nbsp; 9&amp;nbsp; 9&amp;nbsp; 9&amp;nbsp; &lt;b&gt;6&lt;/b&gt;&amp;nbsp; 6&amp;nbsp; 7&amp;nbsp; 0&amp;nbsp; 9&lt;/div&gt;&lt;div&gt;0&amp;nbsp; 1&amp;nbsp; 9&amp;nbsp; 9&amp;nbsp; 9&amp;nbsp; 6&amp;nbsp; 6&amp;nbsp; 7&amp;nbsp; 0&amp;nbsp; 9&lt;/div&gt;&lt;div&gt;0&amp;nbsp; 1&amp;nbsp; 9&amp;nbsp; 9&amp;nbsp; 9&amp;nbsp; &lt;b&gt;9&lt;/b&gt;&amp;nbsp; &lt;b&gt;9&lt;/b&gt;&amp;nbsp; 7&amp;nbsp; 0&amp;nbsp; 9&lt;/div&gt;&lt;div&gt;0&amp;nbsp; 1&amp;nbsp; 9&amp;nbsp; 9&amp;nbsp; 9&amp;nbsp; 9&amp;nbsp; 9&amp;nbsp; &lt;b&gt;9&lt;/b&gt;&amp;nbsp; 0&amp;nbsp; 9&lt;/div&gt;&lt;div&gt;0&amp;nbsp; 1&amp;nbsp; &lt;b&gt;0&amp;nbsp; 0&amp;nbsp; 0&amp;nbsp; 0&amp;nbsp; 0&lt;/b&gt;&amp;nbsp; &lt;b&gt;0&lt;/b&gt;&amp;nbsp; 0&amp;nbsp; &lt;b&gt;0&lt;/b&gt;&lt;/div&gt;&lt;div&gt;0&amp;nbsp; 1&amp;nbsp; 0&amp;nbsp; 0&amp;nbsp; 0&amp;nbsp; 0&amp;nbsp; 0&amp;nbsp; 0&amp;nbsp; 0&amp;nbsp; 0&lt;/div&gt;&lt;div&gt;0&amp;nbsp; 1&amp;nbsp; 0&amp;nbsp; 0&amp;nbsp; 0&amp;nbsp; 0&amp;nbsp; 0&amp;nbsp; 0&amp;nbsp; 0&amp;nbsp; 0&lt;/div&gt;&lt;div&gt;&lt;b&gt;1&lt;/b&gt;&amp;nbsp; 1&amp;nbsp; &lt;b&gt;1&amp;nbsp; 1&amp;nbsp; 1&amp;nbsp; 1&amp;nbsp; 1&amp;nbsp; 1&amp;nbsp; 1&amp;nbsp; 1&lt;/b&gt;&lt;/div&gt;" style="text;html=1;align=left;verticalAlign=middle;whiteSpace=wrap;rounded=0;" parent="1" vertex="1">
          <mxGeometry x="110" y="40" width="140" height="200" as="geometry" />
        </mxCell>
        <mxCell id="38JOnhAj_tpCCD_ZniFF-8" value="" style="endArrow=none;html=1;rounded=0;strokeWidth=0;" parent="1" edge="1">
          <mxGeometry width="50" height="50" relative="1" as="geometry">
            <mxPoint y="240" as="sourcePoint" />
            <mxPoint x="600" y="240" as="targetPoint" />
          </mxGeometry>
        </mxCell>
        <mxCell id="38JOnhAj_tpCCD_ZniFF-9" value="" style="endArrow=none;html=1;rounded=0;strokeWidth=0;" parent="1" edge="1">
          <mxGeometry width="50" height="50" relative="1" as="geometry">
            <mxPoint y="10" as="sourcePoint" />
            <mxPoint x="600" y="10" as="targetPoint" />
          </mxGeometry>
        </mxCell>
        <mxCell id="38JOnhAj_tpCCD_ZniFF-10" value="" style="endArrow=none;html=1;rounded=0;strokeWidth=0;" parent="1" edge="1">
          <mxGeometry width="50" height="50" relative="1" as="geometry">
            <mxPoint x="600" y="240" as="sourcePoint" />
            <mxPoint x="600" y="10" as="targetPoint" />
          </mxGeometry>
        </mxCell>
        <mxCell id="38JOnhAj_tpCCD_ZniFF-11" value="" style="endArrow=none;html=1;rounded=0;strokeWidth=0;" parent="1" edge="1">
          <mxGeometry width="50" height="50" relative="1" as="geometry">
            <mxPoint y="240" as="sourcePoint" />
            <mxPoint y="10" as="targetPoint" />
          </mxGeometry>
        </mxCell>
        <mxCell id="38JOnhAj_tpCCD_ZniFF-12" value="Здесь изображено содержимое массива &lt;i&gt;array&lt;/i&gt;&amp;nbsp;после обработки каждой пары, приведенной слева, алгоритмом быстрого поиска. Жирным шрифтом обозначены те записи, которые изменяются при выполнении операции &lt;b&gt;объединение&lt;/b&gt;. При обработке пары &lt;i&gt;p&lt;/i&gt; &lt;i&gt;q&lt;/i&gt;&amp;nbsp;во все записи со значением &lt;i&gt;array[p] &lt;/i&gt;заносится значение из &lt;i&gt;array[q]&lt;/i&gt;." style="text;html=1;align=left;verticalAlign=middle;whiteSpace=wrap;rounded=0;" parent="1" vertex="1">
          <mxGeometry x="280" y="80" width="300" height="120" as="geometry" />
        </mxCell>
      </root>
    </mxGraphModel>
  </diagram>
  <diagram id="dJ-GC6Bqu0cRbe2otCJB" name="tree1">
    <mxGraphModel dx="1687" dy="931" grid="1" gridSize="10" guides="1" tooltips="1" connect="1" arrows="1" fold="1" page="1" pageScale="1" pageWidth="827" pageHeight="1169" math="0" shadow="0">
      <root>
        <mxCell id="0" />
        <mxCell id="1" parent="0" />
        <mxCell id="3wgwzef5t9wUtgcAs40U-1" value="0" style="ellipse;whiteSpace=wrap;html=1;aspect=fixed;fillColor=#d5e8d4;gradientColor=#97d077;strokeColor=#82b366;" parent="1" vertex="1">
          <mxGeometry x="20" y="70" width="30" height="30" as="geometry" />
        </mxCell>
        <mxCell id="3wgwzef5t9wUtgcAs40U-2" value="1" style="ellipse;whiteSpace=wrap;html=1;aspect=fixed;fillColor=#d5e8d4;gradientColor=#97d077;strokeColor=#82b366;" parent="1" vertex="1">
          <mxGeometry x="60" y="70" width="30" height="30" as="geometry" />
        </mxCell>
        <mxCell id="3wgwzef5t9wUtgcAs40U-3" value="2" style="ellipse;whiteSpace=wrap;html=1;aspect=fixed;fillColor=#d5e8d4;gradientColor=#97d077;strokeColor=#82b366;" parent="1" vertex="1">
          <mxGeometry x="100" y="70" width="30" height="30" as="geometry" />
        </mxCell>
        <mxCell id="3wgwzef5t9wUtgcAs40U-4" value="3" style="ellipse;whiteSpace=wrap;html=1;aspect=fixed;fillColor=#d5e8d4;gradientColor=#97d077;strokeColor=#82b366;" parent="1" vertex="1">
          <mxGeometry x="140" y="70" width="30" height="30" as="geometry" />
        </mxCell>
        <mxCell id="3wgwzef5t9wUtgcAs40U-5" value="4" style="ellipse;whiteSpace=wrap;html=1;aspect=fixed;fillColor=#d5e8d4;gradientColor=#97d077;strokeColor=#82b366;" parent="1" vertex="1">
          <mxGeometry x="180" y="70" width="30" height="30" as="geometry" />
        </mxCell>
        <mxCell id="3wgwzef5t9wUtgcAs40U-6" value="5" style="ellipse;whiteSpace=wrap;html=1;aspect=fixed;fillColor=#d5e8d4;gradientColor=#97d077;strokeColor=#82b366;" parent="1" vertex="1">
          <mxGeometry x="220" y="70" width="30" height="30" as="geometry" />
        </mxCell>
        <mxCell id="3wgwzef5t9wUtgcAs40U-7" value="6" style="ellipse;whiteSpace=wrap;html=1;aspect=fixed;fillColor=#d5e8d4;gradientColor=#97d077;strokeColor=#82b366;" parent="1" vertex="1">
          <mxGeometry x="260" y="70" width="30" height="30" as="geometry" />
        </mxCell>
        <mxCell id="3wgwzef5t9wUtgcAs40U-8" value="7" style="ellipse;whiteSpace=wrap;html=1;aspect=fixed;fillColor=#d5e8d4;gradientColor=#97d077;strokeColor=#82b366;" parent="1" vertex="1">
          <mxGeometry x="300" y="70" width="30" height="30" as="geometry" />
        </mxCell>
        <mxCell id="3wgwzef5t9wUtgcAs40U-9" value="8" style="ellipse;whiteSpace=wrap;html=1;aspect=fixed;fillColor=#d5e8d4;gradientColor=#97d077;strokeColor=#82b366;" parent="1" vertex="1">
          <mxGeometry x="340" y="70" width="30" height="30" as="geometry" />
        </mxCell>
        <mxCell id="3wgwzef5t9wUtgcAs40U-10" value="9" style="ellipse;whiteSpace=wrap;html=1;aspect=fixed;fillColor=#d5e8d4;gradientColor=#97d077;strokeColor=#82b366;" parent="1" vertex="1">
          <mxGeometry x="380" y="70" width="30" height="30" as="geometry" />
        </mxCell>
        <mxCell id="3wgwzef5t9wUtgcAs40U-12" value="0" style="ellipse;whiteSpace=wrap;html=1;aspect=fixed;fillColor=#d5e8d4;gradientColor=#97d077;strokeColor=#82b366;" parent="1" vertex="1">
          <mxGeometry x="19" y="360" width="30" height="30" as="geometry" />
        </mxCell>
        <mxCell id="3wgwzef5t9wUtgcAs40U-13" value="1" style="ellipse;whiteSpace=wrap;html=1;aspect=fixed;fillColor=#d5e8d4;gradientColor=#97d077;strokeColor=#82b366;" parent="1" vertex="1">
          <mxGeometry x="59" y="360" width="30" height="30" as="geometry" />
        </mxCell>
        <mxCell id="3wgwzef5t9wUtgcAs40U-14" value="2" style="ellipse;whiteSpace=wrap;html=1;aspect=fixed;fillColor=#d5e8d4;gradientColor=#97d077;strokeColor=#82b366;" parent="1" vertex="1">
          <mxGeometry x="99" y="360" width="30" height="30" as="geometry" />
        </mxCell>
        <mxCell id="3wgwzef5t9wUtgcAs40U-22" style="rounded=0;orthogonalLoop=1;jettySize=auto;html=1;exitX=0.5;exitY=0;exitDx=0;exitDy=0;entryX=0;entryY=1;entryDx=0;entryDy=0;endArrow=none;endFill=0;" parent="1" source="3wgwzef5t9wUtgcAs40U-15" target="3wgwzef5t9wUtgcAs40U-21" edge="1">
          <mxGeometry relative="1" as="geometry" />
        </mxCell>
        <mxCell id="3wgwzef5t9wUtgcAs40U-15" value="3" style="ellipse;whiteSpace=wrap;html=1;aspect=fixed;fillColor=#dae8fc;gradientColor=#7ea6e0;strokeColor=#6c8ebf;" parent="1" vertex="1">
          <mxGeometry x="139" y="400" width="30" height="30" as="geometry" />
        </mxCell>
        <mxCell id="3wgwzef5t9wUtgcAs40U-23" style="rounded=0;orthogonalLoop=1;jettySize=auto;html=1;exitX=0.5;exitY=0;exitDx=0;exitDy=0;entryX=1;entryY=1;entryDx=0;entryDy=0;endArrow=none;endFill=0;" parent="1" source="3wgwzef5t9wUtgcAs40U-16" target="3wgwzef5t9wUtgcAs40U-21" edge="1">
          <mxGeometry relative="1" as="geometry" />
        </mxCell>
        <mxCell id="3wgwzef5t9wUtgcAs40U-16" value="4" style="ellipse;whiteSpace=wrap;html=1;aspect=fixed;fillColor=#dae8fc;gradientColor=#7ea6e0;strokeColor=#6c8ebf;" parent="1" vertex="1">
          <mxGeometry x="179" y="400" width="30" height="30" as="geometry" />
        </mxCell>
        <mxCell id="3wgwzef5t9wUtgcAs40U-17" value="5" style="ellipse;whiteSpace=wrap;html=1;aspect=fixed;fillColor=#d5e8d4;gradientColor=#97d077;strokeColor=#82b366;" parent="1" vertex="1">
          <mxGeometry x="219" y="360" width="30" height="30" as="geometry" />
        </mxCell>
        <mxCell id="3wgwzef5t9wUtgcAs40U-18" value="6" style="ellipse;whiteSpace=wrap;html=1;aspect=fixed;fillColor=#d5e8d4;gradientColor=#97d077;strokeColor=#82b366;" parent="1" vertex="1">
          <mxGeometry x="259" y="360" width="30" height="30" as="geometry" />
        </mxCell>
        <mxCell id="3wgwzef5t9wUtgcAs40U-19" value="7" style="ellipse;whiteSpace=wrap;html=1;aspect=fixed;fillColor=#d5e8d4;gradientColor=#97d077;strokeColor=#82b366;" parent="1" vertex="1">
          <mxGeometry x="299" y="360" width="30" height="30" as="geometry" />
        </mxCell>
        <mxCell id="3wgwzef5t9wUtgcAs40U-20" value="8" style="ellipse;whiteSpace=wrap;html=1;aspect=fixed;fillColor=#d5e8d4;gradientColor=#97d077;strokeColor=#82b366;" parent="1" vertex="1">
          <mxGeometry x="339" y="360" width="30" height="30" as="geometry" />
        </mxCell>
        <mxCell id="3wgwzef5t9wUtgcAs40U-21" value="9" style="ellipse;whiteSpace=wrap;html=1;aspect=fixed;fillColor=#f8cecc;gradientColor=#ea6b66;strokeColor=#b85450;" parent="1" vertex="1">
          <mxGeometry x="159" y="360" width="30" height="30" as="geometry" />
        </mxCell>
        <mxCell id="3wgwzef5t9wUtgcAs40U-24" value="0" style="ellipse;whiteSpace=wrap;html=1;aspect=fixed;fillColor=#f8cecc;gradientColor=#ea6b66;strokeColor=#b85450;" parent="1" vertex="1">
          <mxGeometry x="299" y="520" width="30" height="30" as="geometry" />
        </mxCell>
        <mxCell id="3wgwzef5t9wUtgcAs40U-25" value="1" style="ellipse;whiteSpace=wrap;html=1;aspect=fixed;fillColor=#d5e8d4;gradientColor=#97d077;strokeColor=#82b366;" parent="1" vertex="1">
          <mxGeometry x="19" y="520" width="30" height="30" as="geometry" />
        </mxCell>
        <mxCell id="3wgwzef5t9wUtgcAs40U-26" value="2" style="ellipse;whiteSpace=wrap;html=1;aspect=fixed;fillColor=#d5e8d4;gradientColor=#97d077;strokeColor=#82b366;" parent="1" vertex="1">
          <mxGeometry x="59" y="520" width="30" height="30" as="geometry" />
        </mxCell>
        <mxCell id="3wgwzef5t9wUtgcAs40U-27" style="rounded=0;orthogonalLoop=1;jettySize=auto;html=1;exitX=0.5;exitY=0;exitDx=0;exitDy=0;entryX=0;entryY=1;entryDx=0;entryDy=0;endArrow=none;endFill=0;" parent="1" source="3wgwzef5t9wUtgcAs40U-28" target="3wgwzef5t9wUtgcAs40U-35" edge="1">
          <mxGeometry relative="1" as="geometry" />
        </mxCell>
        <mxCell id="3wgwzef5t9wUtgcAs40U-28" value="3" style="ellipse;whiteSpace=wrap;html=1;aspect=fixed;fillColor=#d5e8d4;gradientColor=#97d077;strokeColor=#82b366;" parent="1" vertex="1">
          <mxGeometry x="99" y="560" width="30" height="30" as="geometry" />
        </mxCell>
        <mxCell id="3wgwzef5t9wUtgcAs40U-29" style="rounded=0;orthogonalLoop=1;jettySize=auto;html=1;exitX=0.5;exitY=0;exitDx=0;exitDy=0;entryX=1;entryY=1;entryDx=0;entryDy=0;endArrow=none;endFill=0;" parent="1" source="3wgwzef5t9wUtgcAs40U-30" target="3wgwzef5t9wUtgcAs40U-35" edge="1">
          <mxGeometry relative="1" as="geometry" />
        </mxCell>
        <mxCell id="3wgwzef5t9wUtgcAs40U-30" value="4" style="ellipse;whiteSpace=wrap;html=1;aspect=fixed;fillColor=#d5e8d4;gradientColor=#97d077;strokeColor=#82b366;" parent="1" vertex="1">
          <mxGeometry x="139" y="560" width="30" height="30" as="geometry" />
        </mxCell>
        <mxCell id="3wgwzef5t9wUtgcAs40U-31" value="5" style="ellipse;whiteSpace=wrap;html=1;aspect=fixed;fillColor=#d5e8d4;gradientColor=#97d077;strokeColor=#82b366;" parent="1" vertex="1">
          <mxGeometry x="179" y="520" width="30" height="30" as="geometry" />
        </mxCell>
        <mxCell id="3wgwzef5t9wUtgcAs40U-32" value="6" style="ellipse;whiteSpace=wrap;html=1;aspect=fixed;fillColor=#d5e8d4;gradientColor=#97d077;strokeColor=#82b366;" parent="1" vertex="1">
          <mxGeometry x="219" y="520" width="30" height="30" as="geometry" />
        </mxCell>
        <mxCell id="3wgwzef5t9wUtgcAs40U-33" value="7" style="ellipse;whiteSpace=wrap;html=1;aspect=fixed;fillColor=#d5e8d4;gradientColor=#97d077;strokeColor=#82b366;" parent="1" vertex="1">
          <mxGeometry x="259" y="520" width="30" height="30" as="geometry" />
        </mxCell>
        <mxCell id="3wgwzef5t9wUtgcAs40U-36" style="edgeStyle=orthogonalEdgeStyle;rounded=0;orthogonalLoop=1;jettySize=auto;html=1;exitX=0.5;exitY=0;exitDx=0;exitDy=0;entryX=0.5;entryY=1;entryDx=0;entryDy=0;endArrow=none;endFill=0;" parent="1" source="3wgwzef5t9wUtgcAs40U-34" target="3wgwzef5t9wUtgcAs40U-24" edge="1">
          <mxGeometry relative="1" as="geometry" />
        </mxCell>
        <mxCell id="3wgwzef5t9wUtgcAs40U-34" value="8" style="ellipse;whiteSpace=wrap;html=1;aspect=fixed;fillColor=#dae8fc;gradientColor=#7ea6e0;strokeColor=#6c8ebf;" parent="1" vertex="1">
          <mxGeometry x="299" y="560" width="30" height="30" as="geometry" />
        </mxCell>
        <mxCell id="3wgwzef5t9wUtgcAs40U-35" value="9" style="ellipse;whiteSpace=wrap;html=1;aspect=fixed;fillColor=#d5e8d4;gradientColor=#97d077;strokeColor=#82b366;" parent="1" vertex="1">
          <mxGeometry x="119" y="520" width="30" height="30" as="geometry" />
        </mxCell>
        <mxCell id="3wgwzef5t9wUtgcAs40U-37" value="0" style="ellipse;whiteSpace=wrap;html=1;aspect=fixed;" parent="1" vertex="1">
          <mxGeometry x="299" y="680" width="30" height="30" as="geometry" />
        </mxCell>
        <mxCell id="3wgwzef5t9wUtgcAs40U-38" value="1" style="ellipse;whiteSpace=wrap;html=1;aspect=fixed;" parent="1" vertex="1">
          <mxGeometry x="19" y="680" width="30" height="30" as="geometry" />
        </mxCell>
        <mxCell id="3wgwzef5t9wUtgcAs40U-39" value="2" style="ellipse;whiteSpace=wrap;html=1;aspect=fixed;" parent="1" vertex="1">
          <mxGeometry x="59" y="720" width="30" height="30" as="geometry" />
        </mxCell>
        <mxCell id="3wgwzef5t9wUtgcAs40U-50" style="rounded=0;orthogonalLoop=1;jettySize=auto;html=1;exitX=0.5;exitY=0;exitDx=0;exitDy=0;entryX=0.5;entryY=1;entryDx=0;entryDy=0;endArrow=none;endFill=0;" parent="1" source="3wgwzef5t9wUtgcAs40U-41" target="3wgwzef5t9wUtgcAs40U-49" edge="1">
          <mxGeometry relative="1" as="geometry" />
        </mxCell>
        <mxCell id="3wgwzef5t9wUtgcAs40U-41" value="3" style="ellipse;whiteSpace=wrap;html=1;aspect=fixed;" parent="1" vertex="1">
          <mxGeometry x="99" y="720" width="30" height="30" as="geometry" />
        </mxCell>
        <mxCell id="3wgwzef5t9wUtgcAs40U-42" style="rounded=0;orthogonalLoop=1;jettySize=auto;html=1;exitX=0;exitY=0;exitDx=0;exitDy=0;entryX=1;entryY=1;entryDx=0;entryDy=0;endArrow=none;endFill=0;" parent="1" source="3wgwzef5t9wUtgcAs40U-43" target="3wgwzef5t9wUtgcAs40U-49" edge="1">
          <mxGeometry relative="1" as="geometry" />
        </mxCell>
        <mxCell id="3wgwzef5t9wUtgcAs40U-43" value="4" style="ellipse;whiteSpace=wrap;html=1;aspect=fixed;" parent="1" vertex="1">
          <mxGeometry x="139" y="720" width="30" height="30" as="geometry" />
        </mxCell>
        <mxCell id="3wgwzef5t9wUtgcAs40U-44" value="5" style="ellipse;whiteSpace=wrap;html=1;aspect=fixed;" parent="1" vertex="1">
          <mxGeometry x="179" y="680" width="30" height="30" as="geometry" />
        </mxCell>
        <mxCell id="3wgwzef5t9wUtgcAs40U-45" value="6" style="ellipse;whiteSpace=wrap;html=1;aspect=fixed;" parent="1" vertex="1">
          <mxGeometry x="219" y="680" width="30" height="30" as="geometry" />
        </mxCell>
        <mxCell id="3wgwzef5t9wUtgcAs40U-46" value="7" style="ellipse;whiteSpace=wrap;html=1;aspect=fixed;" parent="1" vertex="1">
          <mxGeometry x="259" y="680" width="30" height="30" as="geometry" />
        </mxCell>
        <mxCell id="3wgwzef5t9wUtgcAs40U-47" style="edgeStyle=orthogonalEdgeStyle;rounded=0;orthogonalLoop=1;jettySize=auto;html=1;exitX=0.5;exitY=0;exitDx=0;exitDy=0;entryX=0.5;entryY=1;entryDx=0;entryDy=0;endArrow=none;endFill=0;" parent="1" source="3wgwzef5t9wUtgcAs40U-48" target="3wgwzef5t9wUtgcAs40U-37" edge="1">
          <mxGeometry relative="1" as="geometry" />
        </mxCell>
        <mxCell id="3wgwzef5t9wUtgcAs40U-48" value="8" style="ellipse;whiteSpace=wrap;html=1;aspect=fixed;" parent="1" vertex="1">
          <mxGeometry x="299" y="720" width="30" height="30" as="geometry" />
        </mxCell>
        <mxCell id="3wgwzef5t9wUtgcAs40U-51" style="rounded=0;orthogonalLoop=1;jettySize=auto;html=1;exitX=0;exitY=1;exitDx=0;exitDy=0;entryX=1;entryY=0;entryDx=0;entryDy=0;endArrow=none;endFill=0;" parent="1" source="3wgwzef5t9wUtgcAs40U-49" target="3wgwzef5t9wUtgcAs40U-39" edge="1">
          <mxGeometry relative="1" as="geometry" />
        </mxCell>
        <mxCell id="3wgwzef5t9wUtgcAs40U-49" value="9" style="ellipse;whiteSpace=wrap;html=1;aspect=fixed;" parent="1" vertex="1">
          <mxGeometry x="99" y="680" width="30" height="30" as="geometry" />
        </mxCell>
        <mxCell id="3wgwzef5t9wUtgcAs40U-53" value="0" style="ellipse;whiteSpace=wrap;html=1;aspect=fixed;fillColor=#d5e8d4;gradientColor=#97d077;strokeColor=#82b366;" parent="1" vertex="1">
          <mxGeometry x="699" y="50" width="30" height="30" as="geometry" />
        </mxCell>
        <mxCell id="3wgwzef5t9wUtgcAs40U-54" value="1" style="ellipse;whiteSpace=wrap;html=1;aspect=fixed;" parent="1" vertex="1">
          <mxGeometry x="459" y="50" width="30" height="30" as="geometry" />
        </mxCell>
        <mxCell id="3wgwzef5t9wUtgcAs40U-55" value="2" style="ellipse;whiteSpace=wrap;html=1;aspect=fixed;fillColor=#d5e8d4;gradientColor=#97d077;strokeColor=#82b366;" parent="1" vertex="1">
          <mxGeometry x="499" y="90" width="30" height="30" as="geometry" />
        </mxCell>
        <mxCell id="3wgwzef5t9wUtgcAs40U-56" style="rounded=0;orthogonalLoop=1;jettySize=auto;html=1;exitX=0.5;exitY=0;exitDx=0;exitDy=0;entryX=0.5;entryY=1;entryDx=0;entryDy=0;endArrow=none;endFill=0;" parent="1" source="3wgwzef5t9wUtgcAs40U-57" target="3wgwzef5t9wUtgcAs40U-66" edge="1">
          <mxGeometry relative="1" as="geometry" />
        </mxCell>
        <mxCell id="3wgwzef5t9wUtgcAs40U-57" value="3" style="ellipse;whiteSpace=wrap;html=1;aspect=fixed;fillColor=#d5e8d4;gradientColor=#97d077;strokeColor=#82b366;" parent="1" vertex="1">
          <mxGeometry x="539" y="90" width="30" height="30" as="geometry" />
        </mxCell>
        <mxCell id="3wgwzef5t9wUtgcAs40U-58" style="rounded=0;orthogonalLoop=1;jettySize=auto;html=1;exitX=0;exitY=0;exitDx=0;exitDy=0;entryX=1;entryY=1;entryDx=0;entryDy=0;endArrow=none;endFill=0;" parent="1" source="3wgwzef5t9wUtgcAs40U-59" target="3wgwzef5t9wUtgcAs40U-66" edge="1">
          <mxGeometry relative="1" as="geometry" />
        </mxCell>
        <mxCell id="3wgwzef5t9wUtgcAs40U-59" value="4" style="ellipse;whiteSpace=wrap;html=1;aspect=fixed;fillColor=#d5e8d4;gradientColor=#97d077;strokeColor=#82b366;" parent="1" vertex="1">
          <mxGeometry x="579" y="90" width="30" height="30" as="geometry" />
        </mxCell>
        <mxCell id="3wgwzef5t9wUtgcAs40U-67" style="rounded=0;orthogonalLoop=1;jettySize=auto;html=1;exitX=0.5;exitY=0;exitDx=0;exitDy=0;entryX=0.5;entryY=1;entryDx=0;entryDy=0;endArrow=none;endFill=0;" parent="1" source="3wgwzef5t9wUtgcAs40U-60" target="3wgwzef5t9wUtgcAs40U-61" edge="1">
          <mxGeometry relative="1" as="geometry" />
        </mxCell>
        <mxCell id="3wgwzef5t9wUtgcAs40U-60" value="5" style="ellipse;whiteSpace=wrap;html=1;aspect=fixed;fillColor=#dae8fc;gradientColor=#7ea6e0;strokeColor=#6c8ebf;" parent="1" vertex="1">
          <mxGeometry x="619" y="90" width="30" height="30" as="geometry" />
        </mxCell>
        <mxCell id="3wgwzef5t9wUtgcAs40U-61" value="6" style="ellipse;whiteSpace=wrap;html=1;aspect=fixed;fillColor=#f8cecc;gradientColor=#ea6b66;strokeColor=#b85450;" parent="1" vertex="1">
          <mxGeometry x="619" y="50" width="30" height="30" as="geometry" />
        </mxCell>
        <mxCell id="3wgwzef5t9wUtgcAs40U-62" value="7" style="ellipse;whiteSpace=wrap;html=1;aspect=fixed;fillColor=#d5e8d4;gradientColor=#97d077;strokeColor=#82b366;" parent="1" vertex="1">
          <mxGeometry x="659" y="50" width="30" height="30" as="geometry" />
        </mxCell>
        <mxCell id="3wgwzef5t9wUtgcAs40U-63" style="edgeStyle=orthogonalEdgeStyle;rounded=0;orthogonalLoop=1;jettySize=auto;html=1;exitX=0.5;exitY=0;exitDx=0;exitDy=0;entryX=0.5;entryY=1;entryDx=0;entryDy=0;endArrow=none;endFill=0;" parent="1" source="3wgwzef5t9wUtgcAs40U-64" target="3wgwzef5t9wUtgcAs40U-53" edge="1">
          <mxGeometry relative="1" as="geometry" />
        </mxCell>
        <mxCell id="3wgwzef5t9wUtgcAs40U-64" value="8" style="ellipse;whiteSpace=wrap;html=1;aspect=fixed;fillColor=#d5e8d4;gradientColor=#97d077;strokeColor=#82b366;" parent="1" vertex="1">
          <mxGeometry x="699" y="90" width="30" height="30" as="geometry" />
        </mxCell>
        <mxCell id="3wgwzef5t9wUtgcAs40U-65" style="rounded=0;orthogonalLoop=1;jettySize=auto;html=1;exitX=0;exitY=1;exitDx=0;exitDy=0;entryX=1;entryY=0;entryDx=0;entryDy=0;endArrow=none;endFill=0;" parent="1" source="3wgwzef5t9wUtgcAs40U-66" target="3wgwzef5t9wUtgcAs40U-55" edge="1">
          <mxGeometry relative="1" as="geometry" />
        </mxCell>
        <mxCell id="3wgwzef5t9wUtgcAs40U-66" value="9" style="ellipse;whiteSpace=wrap;html=1;aspect=fixed;fillColor=#d5e8d4;gradientColor=#97d077;strokeColor=#82b366;" parent="1" vertex="1">
          <mxGeometry x="539" y="50" width="30" height="30" as="geometry" />
        </mxCell>
        <mxCell id="3wgwzef5t9wUtgcAs40U-68" value="0" style="ellipse;whiteSpace=wrap;html=1;aspect=fixed;" parent="1" vertex="1">
          <mxGeometry x="739" y="200" width="30" height="30" as="geometry" />
        </mxCell>
        <mxCell id="3wgwzef5t9wUtgcAs40U-69" value="1" style="ellipse;whiteSpace=wrap;html=1;aspect=fixed;" parent="1" vertex="1">
          <mxGeometry x="459" y="200" width="30" height="30" as="geometry" />
        </mxCell>
        <mxCell id="3wgwzef5t9wUtgcAs40U-70" value="2" style="ellipse;whiteSpace=wrap;html=1;aspect=fixed;" parent="1" vertex="1">
          <mxGeometry x="499" y="240" width="30" height="30" as="geometry" />
        </mxCell>
        <mxCell id="3wgwzef5t9wUtgcAs40U-71" style="rounded=0;orthogonalLoop=1;jettySize=auto;html=1;exitX=1;exitY=0;exitDx=0;exitDy=0;entryX=0;entryY=1;entryDx=0;entryDy=0;endArrow=none;endFill=0;" parent="1" source="3wgwzef5t9wUtgcAs40U-72" target="3wgwzef5t9wUtgcAs40U-82" edge="1">
          <mxGeometry relative="1" as="geometry" />
        </mxCell>
        <mxCell id="3wgwzef5t9wUtgcAs40U-72" value="3" style="ellipse;whiteSpace=wrap;html=1;aspect=fixed;" parent="1" vertex="1">
          <mxGeometry x="539" y="240" width="30" height="30" as="geometry" />
        </mxCell>
        <mxCell id="3wgwzef5t9wUtgcAs40U-73" style="rounded=0;orthogonalLoop=1;jettySize=auto;html=1;exitX=0.5;exitY=0;exitDx=0;exitDy=0;entryX=0.5;entryY=1;entryDx=0;entryDy=0;endArrow=none;endFill=0;" parent="1" source="3wgwzef5t9wUtgcAs40U-74" target="3wgwzef5t9wUtgcAs40U-82" edge="1">
          <mxGeometry relative="1" as="geometry" />
        </mxCell>
        <mxCell id="3wgwzef5t9wUtgcAs40U-74" value="4" style="ellipse;whiteSpace=wrap;html=1;aspect=fixed;" parent="1" vertex="1">
          <mxGeometry x="579" y="240" width="30" height="30" as="geometry" />
        </mxCell>
        <mxCell id="3wgwzef5t9wUtgcAs40U-83" style="rounded=0;orthogonalLoop=1;jettySize=auto;html=1;exitX=0;exitY=0;exitDx=0;exitDy=0;entryX=1;entryY=1;entryDx=0;entryDy=0;endArrow=none;endFill=0;" parent="1" source="3wgwzef5t9wUtgcAs40U-76" target="3wgwzef5t9wUtgcAs40U-82" edge="1">
          <mxGeometry relative="1" as="geometry" />
        </mxCell>
        <mxCell id="3wgwzef5t9wUtgcAs40U-76" value="5" style="ellipse;whiteSpace=wrap;html=1;aspect=fixed;" parent="1" vertex="1">
          <mxGeometry x="619" y="240" width="30" height="30" as="geometry" />
        </mxCell>
        <mxCell id="3wgwzef5t9wUtgcAs40U-84" style="rounded=0;orthogonalLoop=1;jettySize=auto;html=1;exitX=0;exitY=0;exitDx=0;exitDy=0;entryX=0.946;entryY=0.737;entryDx=0;entryDy=0;endArrow=none;endFill=0;entryPerimeter=0;" parent="1" source="3wgwzef5t9wUtgcAs40U-77" target="3wgwzef5t9wUtgcAs40U-82" edge="1">
          <mxGeometry relative="1" as="geometry" />
        </mxCell>
        <mxCell id="3wgwzef5t9wUtgcAs40U-77" value="6" style="ellipse;whiteSpace=wrap;html=1;aspect=fixed;" parent="1" vertex="1">
          <mxGeometry x="659" y="240" width="30" height="30" as="geometry" />
        </mxCell>
        <mxCell id="3wgwzef5t9wUtgcAs40U-78" value="7" style="ellipse;whiteSpace=wrap;html=1;aspect=fixed;" parent="1" vertex="1">
          <mxGeometry x="699" y="200" width="30" height="30" as="geometry" />
        </mxCell>
        <mxCell id="3wgwzef5t9wUtgcAs40U-79" style="edgeStyle=orthogonalEdgeStyle;rounded=0;orthogonalLoop=1;jettySize=auto;html=1;exitX=0.5;exitY=0;exitDx=0;exitDy=0;entryX=0.5;entryY=1;entryDx=0;entryDy=0;endArrow=none;endFill=0;" parent="1" source="3wgwzef5t9wUtgcAs40U-80" target="3wgwzef5t9wUtgcAs40U-68" edge="1">
          <mxGeometry relative="1" as="geometry" />
        </mxCell>
        <mxCell id="3wgwzef5t9wUtgcAs40U-80" value="8" style="ellipse;whiteSpace=wrap;html=1;aspect=fixed;" parent="1" vertex="1">
          <mxGeometry x="739" y="240" width="30" height="30" as="geometry" />
        </mxCell>
        <mxCell id="3wgwzef5t9wUtgcAs40U-81" style="rounded=0;orthogonalLoop=1;jettySize=auto;html=1;exitX=0.05;exitY=0.737;exitDx=0;exitDy=0;entryX=1;entryY=0;entryDx=0;entryDy=0;endArrow=none;endFill=0;exitPerimeter=0;" parent="1" source="3wgwzef5t9wUtgcAs40U-82" target="3wgwzef5t9wUtgcAs40U-70" edge="1">
          <mxGeometry relative="1" as="geometry" />
        </mxCell>
        <mxCell id="3wgwzef5t9wUtgcAs40U-82" value="9" style="ellipse;whiteSpace=wrap;html=1;aspect=fixed;" parent="1" vertex="1">
          <mxGeometry x="579" y="200" width="30" height="30" as="geometry" />
        </mxCell>
        <mxCell id="3wgwzef5t9wUtgcAs40U-85" value="0" style="ellipse;whiteSpace=wrap;html=1;aspect=fixed;" parent="1" vertex="1">
          <mxGeometry x="739" y="360" width="30" height="30" as="geometry" />
        </mxCell>
        <mxCell id="3wgwzef5t9wUtgcAs40U-86" value="1" style="ellipse;whiteSpace=wrap;html=1;aspect=fixed;" parent="1" vertex="1">
          <mxGeometry x="459" y="360" width="30" height="30" as="geometry" />
        </mxCell>
        <mxCell id="3wgwzef5t9wUtgcAs40U-87" value="2" style="ellipse;whiteSpace=wrap;html=1;aspect=fixed;" parent="1" vertex="1">
          <mxGeometry x="499" y="400" width="30" height="30" as="geometry" />
        </mxCell>
        <mxCell id="3wgwzef5t9wUtgcAs40U-88" style="rounded=0;orthogonalLoop=1;jettySize=auto;html=1;exitX=1;exitY=0;exitDx=0;exitDy=0;entryX=0;entryY=1;entryDx=0;entryDy=0;endArrow=none;endFill=0;" parent="1" source="3wgwzef5t9wUtgcAs40U-89" target="3wgwzef5t9wUtgcAs40U-100" edge="1">
          <mxGeometry relative="1" as="geometry" />
        </mxCell>
        <mxCell id="3wgwzef5t9wUtgcAs40U-89" value="3" style="ellipse;whiteSpace=wrap;html=1;aspect=fixed;" parent="1" vertex="1">
          <mxGeometry x="539" y="400" width="30" height="30" as="geometry" />
        </mxCell>
        <mxCell id="3wgwzef5t9wUtgcAs40U-90" style="rounded=0;orthogonalLoop=1;jettySize=auto;html=1;exitX=0.692;exitY=0.026;exitDx=0;exitDy=0;entryX=0.263;entryY=0.952;entryDx=0;entryDy=0;endArrow=none;endFill=0;entryPerimeter=0;exitPerimeter=0;" parent="1" source="3wgwzef5t9wUtgcAs40U-91" target="3wgwzef5t9wUtgcAs40U-100" edge="1">
          <mxGeometry relative="1" as="geometry" />
        </mxCell>
        <mxCell id="3wgwzef5t9wUtgcAs40U-91" value="4" style="ellipse;whiteSpace=wrap;html=1;aspect=fixed;" parent="1" vertex="1">
          <mxGeometry x="579" y="400" width="30" height="30" as="geometry" />
        </mxCell>
        <mxCell id="3wgwzef5t9wUtgcAs40U-92" style="rounded=0;orthogonalLoop=1;jettySize=auto;html=1;exitX=0.319;exitY=0.017;exitDx=0;exitDy=0;entryX=0.735;entryY=0.939;entryDx=0;entryDy=0;endArrow=none;endFill=0;exitPerimeter=0;entryPerimeter=0;" parent="1" source="3wgwzef5t9wUtgcAs40U-93" target="3wgwzef5t9wUtgcAs40U-100" edge="1">
          <mxGeometry relative="1" as="geometry" />
        </mxCell>
        <mxCell id="3wgwzef5t9wUtgcAs40U-93" value="5" style="ellipse;whiteSpace=wrap;html=1;aspect=fixed;" parent="1" vertex="1">
          <mxGeometry x="619" y="400" width="30" height="30" as="geometry" />
        </mxCell>
        <mxCell id="3wgwzef5t9wUtgcAs40U-94" style="rounded=0;orthogonalLoop=1;jettySize=auto;html=1;exitX=0;exitY=0;exitDx=0;exitDy=0;entryX=1;entryY=1;entryDx=0;entryDy=0;endArrow=none;endFill=0;" parent="1" source="3wgwzef5t9wUtgcAs40U-95" target="3wgwzef5t9wUtgcAs40U-100" edge="1">
          <mxGeometry relative="1" as="geometry" />
        </mxCell>
        <mxCell id="3wgwzef5t9wUtgcAs40U-95" value="6" style="ellipse;whiteSpace=wrap;html=1;aspect=fixed;" parent="1" vertex="1">
          <mxGeometry x="659" y="400" width="30" height="30" as="geometry" />
        </mxCell>
        <mxCell id="3wgwzef5t9wUtgcAs40U-96" value="7" style="ellipse;whiteSpace=wrap;html=1;aspect=fixed;" parent="1" vertex="1">
          <mxGeometry x="699" y="400" width="30" height="30" as="geometry" />
        </mxCell>
        <mxCell id="3wgwzef5t9wUtgcAs40U-97" style="edgeStyle=orthogonalEdgeStyle;rounded=0;orthogonalLoop=1;jettySize=auto;html=1;exitX=0.5;exitY=0;exitDx=0;exitDy=0;entryX=0.5;entryY=1;entryDx=0;entryDy=0;endArrow=none;endFill=0;" parent="1" source="3wgwzef5t9wUtgcAs40U-98" target="3wgwzef5t9wUtgcAs40U-85" edge="1">
          <mxGeometry relative="1" as="geometry" />
        </mxCell>
        <mxCell id="3wgwzef5t9wUtgcAs40U-98" value="8" style="ellipse;whiteSpace=wrap;html=1;aspect=fixed;" parent="1" vertex="1">
          <mxGeometry x="739" y="400" width="30" height="30" as="geometry" />
        </mxCell>
        <mxCell id="3wgwzef5t9wUtgcAs40U-99" style="rounded=0;orthogonalLoop=1;jettySize=auto;html=1;exitX=0.05;exitY=0.737;exitDx=0;exitDy=0;entryX=1;entryY=0;entryDx=0;entryDy=0;endArrow=none;endFill=0;exitPerimeter=0;" parent="1" source="3wgwzef5t9wUtgcAs40U-100" target="3wgwzef5t9wUtgcAs40U-87" edge="1">
          <mxGeometry relative="1" as="geometry" />
        </mxCell>
        <mxCell id="3wgwzef5t9wUtgcAs40U-100" value="9" style="ellipse;whiteSpace=wrap;html=1;aspect=fixed;" parent="1" vertex="1">
          <mxGeometry x="599" y="360" width="30" height="30" as="geometry" />
        </mxCell>
        <mxCell id="3wgwzef5t9wUtgcAs40U-101" style="rounded=0;orthogonalLoop=1;jettySize=auto;html=1;exitX=0;exitY=0;exitDx=0;exitDy=0;entryX=0.947;entryY=0.731;entryDx=0;entryDy=0;entryPerimeter=0;endArrow=none;endFill=0;" parent="1" source="3wgwzef5t9wUtgcAs40U-96" target="3wgwzef5t9wUtgcAs40U-100" edge="1">
          <mxGeometry relative="1" as="geometry" />
        </mxCell>
        <mxCell id="3wgwzef5t9wUtgcAs40U-102" value="0" style="ellipse;whiteSpace=wrap;html=1;aspect=fixed;" parent="1" vertex="1">
          <mxGeometry x="639" y="520" width="30" height="30" as="geometry" />
        </mxCell>
        <mxCell id="3wgwzef5t9wUtgcAs40U-103" value="1" style="ellipse;whiteSpace=wrap;html=1;aspect=fixed;" parent="1" vertex="1">
          <mxGeometry x="459" y="520" width="30" height="30" as="geometry" />
        </mxCell>
        <mxCell id="3wgwzef5t9wUtgcAs40U-104" value="2" style="ellipse;whiteSpace=wrap;html=1;aspect=fixed;" parent="1" vertex="1">
          <mxGeometry x="499" y="560" width="30" height="30" as="geometry" />
        </mxCell>
        <mxCell id="3wgwzef5t9wUtgcAs40U-105" style="rounded=0;orthogonalLoop=1;jettySize=auto;html=1;exitX=1;exitY=0;exitDx=0;exitDy=0;entryX=0.033;entryY=0.682;entryDx=0;entryDy=0;endArrow=none;endFill=0;entryPerimeter=0;" parent="1" source="3wgwzef5t9wUtgcAs40U-106" target="3wgwzef5t9wUtgcAs40U-102" edge="1">
          <mxGeometry relative="1" as="geometry">
            <mxPoint x="603.3933982822018" y="545.6066017177982" as="targetPoint" />
          </mxGeometry>
        </mxCell>
        <mxCell id="3wgwzef5t9wUtgcAs40U-106" value="3" style="ellipse;whiteSpace=wrap;html=1;aspect=fixed;" parent="1" vertex="1">
          <mxGeometry x="539" y="560" width="30" height="30" as="geometry" />
        </mxCell>
        <mxCell id="3wgwzef5t9wUtgcAs40U-107" style="rounded=0;orthogonalLoop=1;jettySize=auto;html=1;exitX=0.692;exitY=0.026;exitDx=0;exitDy=0;entryX=0;entryY=1;entryDx=0;entryDy=0;endArrow=none;endFill=0;exitPerimeter=0;" parent="1" source="3wgwzef5t9wUtgcAs40U-108" target="3wgwzef5t9wUtgcAs40U-102" edge="1">
          <mxGeometry relative="1" as="geometry">
            <mxPoint x="606.8900000000001" y="548.5600000000002" as="targetPoint" />
          </mxGeometry>
        </mxCell>
        <mxCell id="3wgwzef5t9wUtgcAs40U-108" value="4" style="ellipse;whiteSpace=wrap;html=1;aspect=fixed;" parent="1" vertex="1">
          <mxGeometry x="579" y="560" width="30" height="30" as="geometry" />
        </mxCell>
        <mxCell id="3wgwzef5t9wUtgcAs40U-109" style="rounded=0;orthogonalLoop=1;jettySize=auto;html=1;exitX=0.695;exitY=0.046;exitDx=0;exitDy=0;entryX=0.3;entryY=0.949;entryDx=0;entryDy=0;endArrow=none;endFill=0;exitPerimeter=0;entryPerimeter=0;" parent="1" source="3wgwzef5t9wUtgcAs40U-110" target="3wgwzef5t9wUtgcAs40U-102" edge="1">
          <mxGeometry relative="1" as="geometry">
            <mxPoint x="621.05" y="548.1700000000001" as="targetPoint" />
          </mxGeometry>
        </mxCell>
        <mxCell id="3wgwzef5t9wUtgcAs40U-110" value="5" style="ellipse;whiteSpace=wrap;html=1;aspect=fixed;" parent="1" vertex="1">
          <mxGeometry x="619" y="560" width="30" height="30" as="geometry" />
        </mxCell>
        <mxCell id="3wgwzef5t9wUtgcAs40U-111" style="rounded=0;orthogonalLoop=1;jettySize=auto;html=1;exitX=0.305;exitY=0.046;exitDx=0;exitDy=0;entryX=0.705;entryY=0.959;entryDx=0;entryDy=0;endArrow=none;endFill=0;exitPerimeter=0;entryPerimeter=0;" parent="1" source="3wgwzef5t9wUtgcAs40U-112" target="3wgwzef5t9wUtgcAs40U-102" edge="1">
          <mxGeometry relative="1" as="geometry">
            <mxPoint x="624.6066017177982" y="545.6066017177982" as="targetPoint" />
          </mxGeometry>
        </mxCell>
        <mxCell id="3wgwzef5t9wUtgcAs40U-112" value="6" style="ellipse;whiteSpace=wrap;html=1;aspect=fixed;" parent="1" vertex="1">
          <mxGeometry x="659" y="560" width="30" height="30" as="geometry" />
        </mxCell>
        <mxCell id="3wgwzef5t9wUtgcAs40U-113" value="7" style="ellipse;whiteSpace=wrap;html=1;aspect=fixed;" parent="1" vertex="1">
          <mxGeometry x="699" y="560" width="30" height="30" as="geometry" />
        </mxCell>
        <mxCell id="3wgwzef5t9wUtgcAs40U-115" value="8" style="ellipse;whiteSpace=wrap;html=1;aspect=fixed;" parent="1" vertex="1">
          <mxGeometry x="739" y="560" width="30" height="30" as="geometry" />
        </mxCell>
        <mxCell id="3wgwzef5t9wUtgcAs40U-116" style="rounded=0;orthogonalLoop=1;jettySize=auto;html=1;exitX=0;exitY=0.5;exitDx=0;exitDy=0;entryX=1;entryY=0;entryDx=0;entryDy=0;endArrow=none;endFill=0;" parent="1" source="3wgwzef5t9wUtgcAs40U-102" target="3wgwzef5t9wUtgcAs40U-104" edge="1">
          <mxGeometry relative="1" as="geometry">
            <mxPoint x="600.5" y="542.1099999999999" as="sourcePoint" />
          </mxGeometry>
        </mxCell>
        <mxCell id="3wgwzef5t9wUtgcAs40U-118" style="rounded=0;orthogonalLoop=1;jettySize=auto;html=1;exitX=0;exitY=0;exitDx=0;exitDy=0;entryX=1;entryY=1;entryDx=0;entryDy=0;endArrow=none;endFill=0;" parent="1" source="3wgwzef5t9wUtgcAs40U-113" target="3wgwzef5t9wUtgcAs40U-102" edge="1">
          <mxGeometry relative="1" as="geometry">
            <mxPoint x="627.4100000000001" y="541.9300000000001" as="targetPoint" />
          </mxGeometry>
        </mxCell>
        <mxCell id="3wgwzef5t9wUtgcAs40U-122" style="rounded=0;orthogonalLoop=1;jettySize=auto;html=1;exitX=0;exitY=0;exitDx=0;exitDy=0;entryX=1;entryY=0.5;entryDx=0;entryDy=0;endArrow=none;endFill=0;" parent="1" source="3wgwzef5t9wUtgcAs40U-119" target="3wgwzef5t9wUtgcAs40U-102" edge="1">
          <mxGeometry relative="1" as="geometry" />
        </mxCell>
        <mxCell id="3wgwzef5t9wUtgcAs40U-119" value="9" style="ellipse;whiteSpace=wrap;html=1;aspect=fixed;fillColor=#dae8fc;gradientColor=#7ea6e0;strokeColor=#6c8ebf;" parent="1" vertex="1">
          <mxGeometry x="779" y="560" width="30" height="30" as="geometry" />
        </mxCell>
        <mxCell id="3wgwzef5t9wUtgcAs40U-121" style="rounded=0;orthogonalLoop=1;jettySize=auto;html=1;exitX=0;exitY=0;exitDx=0;exitDy=0;entryX=0.967;entryY=0.682;entryDx=0;entryDy=0;entryPerimeter=0;endArrow=none;endFill=0;" parent="1" source="3wgwzef5t9wUtgcAs40U-115" target="3wgwzef5t9wUtgcAs40U-102" edge="1">
          <mxGeometry relative="1" as="geometry" />
        </mxCell>
        <mxCell id="3wgwzef5t9wUtgcAs40U-123" value="1" style="ellipse;whiteSpace=wrap;html=1;aspect=fixed;fillColor=#f8cecc;gradientColor=#ea6b66;strokeColor=#b85450;" parent="1" vertex="1">
          <mxGeometry x="619" y="680" width="30" height="30" as="geometry" />
        </mxCell>
        <mxCell id="3wgwzef5t9wUtgcAs40U-141" style="rounded=0;orthogonalLoop=1;jettySize=auto;html=1;exitX=1;exitY=0;exitDx=0;exitDy=0;entryX=0;entryY=0.5;entryDx=0;entryDy=0;endArrow=none;endFill=0;" parent="1" source="3wgwzef5t9wUtgcAs40U-124" target="3wgwzef5t9wUtgcAs40U-123" edge="1">
          <mxGeometry relative="1" as="geometry" />
        </mxCell>
        <mxCell id="3wgwzef5t9wUtgcAs40U-124" value="0" style="ellipse;whiteSpace=wrap;html=1;aspect=fixed;fillColor=#dae8fc;gradientColor=#7ea6e0;strokeColor=#6c8ebf;" parent="1" vertex="1">
          <mxGeometry x="459" y="720" width="30" height="30" as="geometry" />
        </mxCell>
        <mxCell id="3wgwzef5t9wUtgcAs40U-125" value="2" style="ellipse;whiteSpace=wrap;html=1;aspect=fixed;fillColor=#dae8fc;gradientColor=#7ea6e0;strokeColor=#6c8ebf;" parent="1" vertex="1">
          <mxGeometry x="499" y="720" width="30" height="30" as="geometry" />
        </mxCell>
        <mxCell id="3wgwzef5t9wUtgcAs40U-126" style="rounded=0;orthogonalLoop=1;jettySize=auto;html=1;exitX=1;exitY=0;exitDx=0;exitDy=0;entryX=0;entryY=1;entryDx=0;entryDy=0;endArrow=none;endFill=0;" parent="1" source="3wgwzef5t9wUtgcAs40U-127" target="3wgwzef5t9wUtgcAs40U-123" edge="1">
          <mxGeometry relative="1" as="geometry">
            <mxPoint x="603.3933982822018" y="705.6066017177982" as="targetPoint" />
          </mxGeometry>
        </mxCell>
        <mxCell id="3wgwzef5t9wUtgcAs40U-127" value="3" style="ellipse;whiteSpace=wrap;html=1;aspect=fixed;fillColor=#dae8fc;gradientColor=#7ea6e0;strokeColor=#6c8ebf;" parent="1" vertex="1">
          <mxGeometry x="539" y="720" width="30" height="30" as="geometry" />
        </mxCell>
        <mxCell id="3wgwzef5t9wUtgcAs40U-128" style="rounded=0;orthogonalLoop=1;jettySize=auto;html=1;exitX=1;exitY=0;exitDx=0;exitDy=0;entryX=0.299;entryY=0.95;entryDx=0;entryDy=0;endArrow=none;endFill=0;entryPerimeter=0;" parent="1" source="3wgwzef5t9wUtgcAs40U-129" target="3wgwzef5t9wUtgcAs40U-123" edge="1">
          <mxGeometry relative="1" as="geometry">
            <mxPoint x="606.8900000000001" y="708.5600000000002" as="targetPoint" />
          </mxGeometry>
        </mxCell>
        <mxCell id="3wgwzef5t9wUtgcAs40U-129" value="4" style="ellipse;whiteSpace=wrap;html=1;aspect=fixed;fillColor=#dae8fc;gradientColor=#7ea6e0;strokeColor=#6c8ebf;" parent="1" vertex="1">
          <mxGeometry x="579" y="720" width="30" height="30" as="geometry" />
        </mxCell>
        <mxCell id="3wgwzef5t9wUtgcAs40U-130" style="rounded=0;orthogonalLoop=1;jettySize=auto;html=1;exitX=0.5;exitY=0;exitDx=0;exitDy=0;entryX=0.5;entryY=1;entryDx=0;entryDy=0;endArrow=none;endFill=0;" parent="1" source="3wgwzef5t9wUtgcAs40U-131" target="3wgwzef5t9wUtgcAs40U-123" edge="1">
          <mxGeometry relative="1" as="geometry">
            <mxPoint x="621.05" y="708.1700000000001" as="targetPoint" />
          </mxGeometry>
        </mxCell>
        <mxCell id="3wgwzef5t9wUtgcAs40U-131" value="5" style="ellipse;whiteSpace=wrap;html=1;aspect=fixed;fillColor=#dae8fc;gradientColor=#7ea6e0;strokeColor=#6c8ebf;" parent="1" vertex="1">
          <mxGeometry x="619" y="720" width="30" height="30" as="geometry" />
        </mxCell>
        <mxCell id="3wgwzef5t9wUtgcAs40U-132" style="rounded=0;orthogonalLoop=1;jettySize=auto;html=1;exitX=0;exitY=0;exitDx=0;exitDy=0;entryX=0.705;entryY=0.959;entryDx=0;entryDy=0;endArrow=none;endFill=0;entryPerimeter=0;" parent="1" source="3wgwzef5t9wUtgcAs40U-133" target="3wgwzef5t9wUtgcAs40U-123" edge="1">
          <mxGeometry relative="1" as="geometry">
            <mxPoint x="624.6066017177982" y="705.6066017177982" as="targetPoint" />
          </mxGeometry>
        </mxCell>
        <mxCell id="3wgwzef5t9wUtgcAs40U-133" value="6" style="ellipse;whiteSpace=wrap;html=1;aspect=fixed;fillColor=#dae8fc;gradientColor=#7ea6e0;strokeColor=#6c8ebf;" parent="1" vertex="1">
          <mxGeometry x="659" y="720" width="30" height="30" as="geometry" />
        </mxCell>
        <mxCell id="3wgwzef5t9wUtgcAs40U-134" value="7" style="ellipse;whiteSpace=wrap;html=1;aspect=fixed;fillColor=#dae8fc;gradientColor=#7ea6e0;strokeColor=#6c8ebf;" parent="1" vertex="1">
          <mxGeometry x="699" y="720" width="30" height="30" as="geometry" />
        </mxCell>
        <mxCell id="3wgwzef5t9wUtgcAs40U-135" value="8" style="ellipse;whiteSpace=wrap;html=1;aspect=fixed;fillColor=#dae8fc;gradientColor=#7ea6e0;strokeColor=#6c8ebf;" parent="1" vertex="1">
          <mxGeometry x="739" y="720" width="30" height="30" as="geometry" />
        </mxCell>
        <mxCell id="3wgwzef5t9wUtgcAs40U-136" style="rounded=0;orthogonalLoop=1;jettySize=auto;html=1;exitX=0.028;exitY=0.669;exitDx=0;exitDy=0;entryX=1;entryY=0;entryDx=0;entryDy=0;endArrow=none;endFill=0;exitPerimeter=0;" parent="1" source="3wgwzef5t9wUtgcAs40U-123" target="3wgwzef5t9wUtgcAs40U-125" edge="1">
          <mxGeometry relative="1" as="geometry">
            <mxPoint x="600.5" y="702.1099999999999" as="sourcePoint" />
          </mxGeometry>
        </mxCell>
        <mxCell id="3wgwzef5t9wUtgcAs40U-137" style="rounded=0;orthogonalLoop=1;jettySize=auto;html=1;exitX=0;exitY=0;exitDx=0;exitDy=0;entryX=1;entryY=1;entryDx=0;entryDy=0;endArrow=none;endFill=0;" parent="1" source="3wgwzef5t9wUtgcAs40U-134" target="3wgwzef5t9wUtgcAs40U-123" edge="1">
          <mxGeometry relative="1" as="geometry">
            <mxPoint x="627.4100000000001" y="701.9300000000001" as="targetPoint" />
          </mxGeometry>
        </mxCell>
        <mxCell id="3wgwzef5t9wUtgcAs40U-138" style="rounded=0;orthogonalLoop=1;jettySize=auto;html=1;exitX=0;exitY=0;exitDx=0;exitDy=0;entryX=1;entryY=0.5;entryDx=0;entryDy=0;endArrow=none;endFill=0;" parent="1" source="3wgwzef5t9wUtgcAs40U-139" target="3wgwzef5t9wUtgcAs40U-123" edge="1">
          <mxGeometry relative="1" as="geometry" />
        </mxCell>
        <mxCell id="3wgwzef5t9wUtgcAs40U-139" value="9" style="ellipse;whiteSpace=wrap;html=1;aspect=fixed;fillColor=#dae8fc;gradientColor=#7ea6e0;strokeColor=#6c8ebf;" parent="1" vertex="1">
          <mxGeometry x="779" y="720" width="30" height="30" as="geometry" />
        </mxCell>
        <mxCell id="3wgwzef5t9wUtgcAs40U-140" style="rounded=0;orthogonalLoop=1;jettySize=auto;html=1;exitX=0;exitY=0;exitDx=0;exitDy=0;entryX=0.967;entryY=0.682;entryDx=0;entryDy=0;entryPerimeter=0;endArrow=none;endFill=0;" parent="1" source="3wgwzef5t9wUtgcAs40U-135" target="3wgwzef5t9wUtgcAs40U-123" edge="1">
          <mxGeometry relative="1" as="geometry" />
        </mxCell>
        <mxCell id="gBRyMmETGjdXTg0B-KCr-1" value="0" style="ellipse;whiteSpace=wrap;html=1;aspect=fixed;fillColor=#d5e8d4;gradientColor=#97d077;strokeColor=#82b366;" vertex="1" parent="1">
          <mxGeometry x="299" y="680" width="30" height="30" as="geometry" />
        </mxCell>
        <mxCell id="gBRyMmETGjdXTg0B-KCr-2" value="1" style="ellipse;whiteSpace=wrap;html=1;aspect=fixed;fillColor=#d5e8d4;gradientColor=#97d077;strokeColor=#82b366;" vertex="1" parent="1">
          <mxGeometry x="19" y="680" width="30" height="30" as="geometry" />
        </mxCell>
        <mxCell id="gBRyMmETGjdXTg0B-KCr-3" value="5" style="ellipse;whiteSpace=wrap;html=1;aspect=fixed;fillColor=#d5e8d4;gradientColor=#97d077;strokeColor=#82b366;" vertex="1" parent="1">
          <mxGeometry x="179" y="680" width="30" height="30" as="geometry" />
        </mxCell>
        <mxCell id="gBRyMmETGjdXTg0B-KCr-4" value="6" style="ellipse;whiteSpace=wrap;html=1;aspect=fixed;fillColor=#d5e8d4;gradientColor=#97d077;strokeColor=#82b366;" vertex="1" parent="1">
          <mxGeometry x="219" y="680" width="30" height="30" as="geometry" />
        </mxCell>
        <mxCell id="gBRyMmETGjdXTg0B-KCr-5" value="7" style="ellipse;whiteSpace=wrap;html=1;aspect=fixed;fillColor=#d5e8d4;gradientColor=#97d077;strokeColor=#82b366;" vertex="1" parent="1">
          <mxGeometry x="259" y="680" width="30" height="30" as="geometry" />
        </mxCell>
        <mxCell id="gBRyMmETGjdXTg0B-KCr-6" value="9" style="ellipse;whiteSpace=wrap;html=1;aspect=fixed;fillColor=#f8cecc;gradientColor=#ea6b66;strokeColor=#b85450;" vertex="1" parent="1">
          <mxGeometry x="99" y="680" width="30" height="30" as="geometry" />
        </mxCell>
        <mxCell id="gBRyMmETGjdXTg0B-KCr-7" value="2" style="ellipse;whiteSpace=wrap;html=1;aspect=fixed;fillColor=#dae8fc;gradientColor=#7ea6e0;strokeColor=#6c8ebf;" vertex="1" parent="1">
          <mxGeometry x="59" y="720" width="30" height="30" as="geometry" />
        </mxCell>
        <mxCell id="gBRyMmETGjdXTg0B-KCr-8" value="3" style="ellipse;whiteSpace=wrap;html=1;aspect=fixed;fillColor=#f8cecc;gradientColor=#ea6b66;strokeColor=#b85450;" vertex="1" parent="1">
          <mxGeometry x="99" y="720" width="30" height="30" as="geometry" />
        </mxCell>
        <mxCell id="gBRyMmETGjdXTg0B-KCr-9" value="4" style="ellipse;whiteSpace=wrap;html=1;aspect=fixed;fillColor=#d5e8d4;gradientColor=#97d077;strokeColor=#82b366;" vertex="1" parent="1">
          <mxGeometry x="139" y="720" width="30" height="30" as="geometry" />
        </mxCell>
        <mxCell id="gBRyMmETGjdXTg0B-KCr-10" value="8" style="ellipse;whiteSpace=wrap;html=1;aspect=fixed;fillColor=#d5e8d4;gradientColor=#97d077;strokeColor=#82b366;" vertex="1" parent="1">
          <mxGeometry x="299" y="720" width="30" height="30" as="geometry" />
        </mxCell>
        <mxCell id="gBRyMmETGjdXTg0B-KCr-11" value="1" style="ellipse;whiteSpace=wrap;html=1;aspect=fixed;fillColor=#d5e8d4;gradientColor=#97d077;strokeColor=#82b366;" vertex="1" parent="1">
          <mxGeometry x="459" y="50" width="30" height="30" as="geometry" />
        </mxCell>
        <mxCell id="gBRyMmETGjdXTg0B-KCr-12" value="0" style="ellipse;whiteSpace=wrap;html=1;aspect=fixed;" vertex="1" parent="1">
          <mxGeometry x="739" y="200" width="30" height="30" as="geometry" />
        </mxCell>
        <mxCell id="gBRyMmETGjdXTg0B-KCr-13" value="1" style="ellipse;whiteSpace=wrap;html=1;aspect=fixed;" vertex="1" parent="1">
          <mxGeometry x="459" y="200" width="30" height="30" as="geometry" />
        </mxCell>
        <mxCell id="gBRyMmETGjdXTg0B-KCr-14" value="7" style="ellipse;whiteSpace=wrap;html=1;aspect=fixed;" vertex="1" parent="1">
          <mxGeometry x="699" y="200" width="30" height="30" as="geometry" />
        </mxCell>
        <mxCell id="gBRyMmETGjdXTg0B-KCr-15" value="9" style="ellipse;whiteSpace=wrap;html=1;aspect=fixed;" vertex="1" parent="1">
          <mxGeometry x="579" y="200" width="30" height="30" as="geometry" />
        </mxCell>
        <mxCell id="gBRyMmETGjdXTg0B-KCr-16" value="8" style="ellipse;whiteSpace=wrap;html=1;aspect=fixed;" vertex="1" parent="1">
          <mxGeometry x="739" y="240" width="30" height="30" as="geometry" />
        </mxCell>
        <mxCell id="gBRyMmETGjdXTg0B-KCr-17" value="6" style="ellipse;whiteSpace=wrap;html=1;aspect=fixed;" vertex="1" parent="1">
          <mxGeometry x="659" y="240" width="30" height="30" as="geometry" />
        </mxCell>
        <mxCell id="gBRyMmETGjdXTg0B-KCr-18" value="5" style="ellipse;whiteSpace=wrap;html=1;aspect=fixed;" vertex="1" parent="1">
          <mxGeometry x="619" y="240" width="30" height="30" as="geometry" />
        </mxCell>
        <mxCell id="gBRyMmETGjdXTg0B-KCr-19" value="4" style="ellipse;whiteSpace=wrap;html=1;aspect=fixed;" vertex="1" parent="1">
          <mxGeometry x="579" y="240" width="30" height="30" as="geometry" />
        </mxCell>
        <mxCell id="gBRyMmETGjdXTg0B-KCr-20" value="3" style="ellipse;whiteSpace=wrap;html=1;aspect=fixed;" vertex="1" parent="1">
          <mxGeometry x="539" y="240" width="30" height="30" as="geometry" />
        </mxCell>
        <mxCell id="gBRyMmETGjdXTg0B-KCr-21" value="0" style="ellipse;whiteSpace=wrap;html=1;aspect=fixed;" vertex="1" parent="1">
          <mxGeometry x="739" y="200" width="30" height="30" as="geometry" />
        </mxCell>
        <mxCell id="gBRyMmETGjdXTg0B-KCr-22" value="1" style="ellipse;whiteSpace=wrap;html=1;aspect=fixed;" vertex="1" parent="1">
          <mxGeometry x="459" y="200" width="30" height="30" as="geometry" />
        </mxCell>
        <mxCell id="gBRyMmETGjdXTg0B-KCr-23" value="7" style="ellipse;whiteSpace=wrap;html=1;aspect=fixed;" vertex="1" parent="1">
          <mxGeometry x="699" y="200" width="30" height="30" as="geometry" />
        </mxCell>
        <mxCell id="gBRyMmETGjdXTg0B-KCr-24" value="9" style="ellipse;whiteSpace=wrap;html=1;aspect=fixed;" vertex="1" parent="1">
          <mxGeometry x="579" y="200" width="30" height="30" as="geometry" />
        </mxCell>
        <mxCell id="gBRyMmETGjdXTg0B-KCr-25" value="8" style="ellipse;whiteSpace=wrap;html=1;aspect=fixed;" vertex="1" parent="1">
          <mxGeometry x="739" y="240" width="30" height="30" as="geometry" />
        </mxCell>
        <mxCell id="gBRyMmETGjdXTg0B-KCr-26" value="6" style="ellipse;whiteSpace=wrap;html=1;aspect=fixed;" vertex="1" parent="1">
          <mxGeometry x="659" y="240" width="30" height="30" as="geometry" />
        </mxCell>
        <mxCell id="gBRyMmETGjdXTg0B-KCr-27" value="5" style="ellipse;whiteSpace=wrap;html=1;aspect=fixed;" vertex="1" parent="1">
          <mxGeometry x="619" y="240" width="30" height="30" as="geometry" />
        </mxCell>
        <mxCell id="gBRyMmETGjdXTg0B-KCr-28" value="4" style="ellipse;whiteSpace=wrap;html=1;aspect=fixed;" vertex="1" parent="1">
          <mxGeometry x="579" y="240" width="30" height="30" as="geometry" />
        </mxCell>
        <mxCell id="gBRyMmETGjdXTg0B-KCr-29" value="3" style="ellipse;whiteSpace=wrap;html=1;aspect=fixed;" vertex="1" parent="1">
          <mxGeometry x="539" y="240" width="30" height="30" as="geometry" />
        </mxCell>
        <mxCell id="gBRyMmETGjdXTg0B-KCr-30" value="2" style="ellipse;whiteSpace=wrap;html=1;aspect=fixed;" vertex="1" parent="1">
          <mxGeometry x="499" y="240" width="30" height="30" as="geometry" />
        </mxCell>
        <mxCell id="gBRyMmETGjdXTg0B-KCr-31" value="1" style="ellipse;whiteSpace=wrap;html=1;aspect=fixed;" vertex="1" parent="1">
          <mxGeometry x="459" y="360" width="30" height="30" as="geometry" />
        </mxCell>
        <mxCell id="gBRyMmETGjdXTg0B-KCr-32" value="2" style="ellipse;whiteSpace=wrap;html=1;aspect=fixed;" vertex="1" parent="1">
          <mxGeometry x="499" y="400" width="30" height="30" as="geometry" />
        </mxCell>
        <mxCell id="gBRyMmETGjdXTg0B-KCr-33" value="3" style="ellipse;whiteSpace=wrap;html=1;aspect=fixed;" vertex="1" parent="1">
          <mxGeometry x="539" y="400" width="30" height="30" as="geometry" />
        </mxCell>
        <mxCell id="gBRyMmETGjdXTg0B-KCr-34" value="4" style="ellipse;whiteSpace=wrap;html=1;aspect=fixed;" vertex="1" parent="1">
          <mxGeometry x="579" y="400" width="30" height="30" as="geometry" />
        </mxCell>
        <mxCell id="gBRyMmETGjdXTg0B-KCr-35" value="9" style="ellipse;whiteSpace=wrap;html=1;aspect=fixed;" vertex="1" parent="1">
          <mxGeometry x="599" y="360" width="30" height="30" as="geometry" />
        </mxCell>
        <mxCell id="gBRyMmETGjdXTg0B-KCr-36" value="5" style="ellipse;whiteSpace=wrap;html=1;aspect=fixed;" vertex="1" parent="1">
          <mxGeometry x="619" y="400" width="30" height="30" as="geometry" />
        </mxCell>
        <mxCell id="gBRyMmETGjdXTg0B-KCr-37" value="6" style="ellipse;whiteSpace=wrap;html=1;aspect=fixed;" vertex="1" parent="1">
          <mxGeometry x="659" y="400" width="30" height="30" as="geometry" />
        </mxCell>
        <mxCell id="gBRyMmETGjdXTg0B-KCr-38" value="7" style="ellipse;whiteSpace=wrap;html=1;aspect=fixed;" vertex="1" parent="1">
          <mxGeometry x="699" y="400" width="30" height="30" as="geometry" />
        </mxCell>
        <mxCell id="gBRyMmETGjdXTg0B-KCr-39" value="8" style="ellipse;whiteSpace=wrap;html=1;aspect=fixed;" vertex="1" parent="1">
          <mxGeometry x="739" y="400" width="30" height="30" as="geometry" />
        </mxCell>
        <mxCell id="gBRyMmETGjdXTg0B-KCr-40" value="0" style="ellipse;whiteSpace=wrap;html=1;aspect=fixed;fillColor=#d5e8d4;gradientColor=#97d077;strokeColor=#82b366;" vertex="1" parent="1">
          <mxGeometry x="739" y="200" width="30" height="30" as="geometry" />
        </mxCell>
        <mxCell id="gBRyMmETGjdXTg0B-KCr-41" value="1" style="ellipse;whiteSpace=wrap;html=1;aspect=fixed;fillColor=#d5e8d4;gradientColor=#97d077;strokeColor=#82b366;" vertex="1" parent="1">
          <mxGeometry x="459" y="200" width="30" height="30" as="geometry" />
        </mxCell>
        <mxCell id="gBRyMmETGjdXTg0B-KCr-42" value="7" style="ellipse;whiteSpace=wrap;html=1;aspect=fixed;fillColor=#d5e8d4;gradientColor=#97d077;strokeColor=#82b366;" vertex="1" parent="1">
          <mxGeometry x="699" y="200" width="30" height="30" as="geometry" />
        </mxCell>
        <mxCell id="gBRyMmETGjdXTg0B-KCr-43" value="9" style="ellipse;whiteSpace=wrap;html=1;aspect=fixed;fillColor=#f8cecc;gradientColor=#ea6b66;strokeColor=#b85450;" vertex="1" parent="1">
          <mxGeometry x="579" y="200" width="30" height="30" as="geometry" />
        </mxCell>
        <mxCell id="gBRyMmETGjdXTg0B-KCr-44" value="8" style="ellipse;whiteSpace=wrap;html=1;aspect=fixed;fillColor=#d5e8d4;gradientColor=#97d077;strokeColor=#82b366;" vertex="1" parent="1">
          <mxGeometry x="739" y="240" width="30" height="30" as="geometry" />
        </mxCell>
        <mxCell id="gBRyMmETGjdXTg0B-KCr-45" value="6" style="ellipse;whiteSpace=wrap;html=1;aspect=fixed;fillColor=#dae8fc;gradientColor=#7ea6e0;strokeColor=#6c8ebf;" vertex="1" parent="1">
          <mxGeometry x="659" y="240" width="30" height="30" as="geometry" />
        </mxCell>
        <mxCell id="gBRyMmETGjdXTg0B-KCr-46" value="5" style="ellipse;whiteSpace=wrap;html=1;aspect=fixed;fillColor=#dae8fc;gradientColor=#7ea6e0;strokeColor=#6c8ebf;" vertex="1" parent="1">
          <mxGeometry x="619" y="240" width="30" height="30" as="geometry" />
        </mxCell>
        <mxCell id="gBRyMmETGjdXTg0B-KCr-47" value="4" style="ellipse;whiteSpace=wrap;html=1;aspect=fixed;fillColor=#d5e8d4;gradientColor=#97d077;strokeColor=#82b366;" vertex="1" parent="1">
          <mxGeometry x="579" y="240" width="30" height="30" as="geometry" />
        </mxCell>
        <mxCell id="gBRyMmETGjdXTg0B-KCr-48" value="3" style="ellipse;whiteSpace=wrap;html=1;aspect=fixed;fillColor=#d5e8d4;gradientColor=#97d077;strokeColor=#82b366;" vertex="1" parent="1">
          <mxGeometry x="539" y="240" width="30" height="30" as="geometry" />
        </mxCell>
        <mxCell id="gBRyMmETGjdXTg0B-KCr-49" value="2" style="ellipse;whiteSpace=wrap;html=1;aspect=fixed;fillColor=#d5e8d4;gradientColor=#97d077;strokeColor=#82b366;" vertex="1" parent="1">
          <mxGeometry x="499" y="240" width="30" height="30" as="geometry" />
        </mxCell>
        <mxCell id="gBRyMmETGjdXTg0B-KCr-50" value="1" style="ellipse;whiteSpace=wrap;html=1;aspect=fixed;fillColor=#d5e8d4;gradientColor=#97d077;strokeColor=#82b366;" vertex="1" parent="1">
          <mxGeometry x="459" y="360" width="30" height="30" as="geometry" />
        </mxCell>
        <mxCell id="gBRyMmETGjdXTg0B-KCr-51" value="2" style="ellipse;whiteSpace=wrap;html=1;aspect=fixed;fillColor=#d5e8d4;gradientColor=#97d077;strokeColor=#82b366;" vertex="1" parent="1">
          <mxGeometry x="499" y="400" width="30" height="30" as="geometry" />
        </mxCell>
        <mxCell id="gBRyMmETGjdXTg0B-KCr-52" value="3" style="ellipse;whiteSpace=wrap;html=1;aspect=fixed;fillColor=#f8cecc;gradientColor=#ea6b66;strokeColor=#b85450;" vertex="1" parent="1">
          <mxGeometry x="539" y="400" width="30" height="30" as="geometry" />
        </mxCell>
        <mxCell id="gBRyMmETGjdXTg0B-KCr-53" value="4" style="ellipse;whiteSpace=wrap;html=1;aspect=fixed;fillColor=#d5e8d4;gradientColor=#97d077;strokeColor=#82b366;" vertex="1" parent="1">
          <mxGeometry x="579" y="400" width="30" height="30" as="geometry" />
        </mxCell>
        <mxCell id="gBRyMmETGjdXTg0B-KCr-54" value="9" style="ellipse;whiteSpace=wrap;html=1;aspect=fixed;fillColor=#f8cecc;gradientColor=#ea6b66;strokeColor=#b85450;" vertex="1" parent="1">
          <mxGeometry x="599" y="360" width="30" height="30" as="geometry" />
        </mxCell>
        <mxCell id="gBRyMmETGjdXTg0B-KCr-55" value="5" style="ellipse;whiteSpace=wrap;html=1;aspect=fixed;fillColor=#d5e8d4;gradientColor=#97d077;strokeColor=#82b366;" vertex="1" parent="1">
          <mxGeometry x="619" y="400" width="30" height="30" as="geometry" />
        </mxCell>
        <mxCell id="gBRyMmETGjdXTg0B-KCr-56" value="6" style="ellipse;whiteSpace=wrap;html=1;aspect=fixed;fillColor=#d5e8d4;gradientColor=#97d077;strokeColor=#82b366;" vertex="1" parent="1">
          <mxGeometry x="659" y="400" width="30" height="30" as="geometry" />
        </mxCell>
        <mxCell id="gBRyMmETGjdXTg0B-KCr-57" value="7" style="ellipse;whiteSpace=wrap;html=1;aspect=fixed;fillColor=#dae8fc;gradientColor=#7ea6e0;strokeColor=#6c8ebf;" vertex="1" parent="1">
          <mxGeometry x="699" y="400" width="30" height="30" as="geometry" />
        </mxCell>
        <mxCell id="gBRyMmETGjdXTg0B-KCr-58" value="8" style="ellipse;whiteSpace=wrap;html=1;aspect=fixed;fillColor=#d5e8d4;gradientColor=#97d077;strokeColor=#82b366;" vertex="1" parent="1">
          <mxGeometry x="739" y="400" width="30" height="30" as="geometry" />
        </mxCell>
        <mxCell id="gBRyMmETGjdXTg0B-KCr-59" value="0" style="ellipse;whiteSpace=wrap;html=1;aspect=fixed;fillColor=#d5e8d4;gradientColor=#97d077;strokeColor=#82b366;" vertex="1" parent="1">
          <mxGeometry x="739" y="360" width="30" height="30" as="geometry" />
        </mxCell>
        <mxCell id="gBRyMmETGjdXTg0B-KCr-60" value="1" style="ellipse;whiteSpace=wrap;html=1;aspect=fixed;fillColor=#d5e8d4;gradientColor=#97d077;strokeColor=#82b366;" vertex="1" parent="1">
          <mxGeometry x="459" y="520" width="30" height="30" as="geometry" />
        </mxCell>
        <mxCell id="gBRyMmETGjdXTg0B-KCr-61" value="2" style="ellipse;whiteSpace=wrap;html=1;aspect=fixed;fillColor=#dae8fc;gradientColor=#7ea6e0;strokeColor=#6c8ebf;" vertex="1" parent="1">
          <mxGeometry x="499" y="560" width="30" height="30" as="geometry" />
        </mxCell>
        <mxCell id="gBRyMmETGjdXTg0B-KCr-62" value="3" style="ellipse;whiteSpace=wrap;html=1;aspect=fixed;fillColor=#dae8fc;gradientColor=#7ea6e0;strokeColor=#6c8ebf;" vertex="1" parent="1">
          <mxGeometry x="539" y="560" width="30" height="30" as="geometry" />
        </mxCell>
        <mxCell id="gBRyMmETGjdXTg0B-KCr-63" value="4" style="ellipse;whiteSpace=wrap;html=1;aspect=fixed;fillColor=#dae8fc;gradientColor=#7ea6e0;strokeColor=#6c8ebf;" vertex="1" parent="1">
          <mxGeometry x="579" y="560" width="30" height="30" as="geometry" />
        </mxCell>
        <mxCell id="gBRyMmETGjdXTg0B-KCr-64" value="5" style="ellipse;whiteSpace=wrap;html=1;aspect=fixed;fillColor=#dae8fc;gradientColor=#7ea6e0;strokeColor=#6c8ebf;" vertex="1" parent="1">
          <mxGeometry x="619" y="560" width="30" height="30" as="geometry" />
        </mxCell>
        <mxCell id="gBRyMmETGjdXTg0B-KCr-65" value="6" style="ellipse;whiteSpace=wrap;html=1;aspect=fixed;fillColor=#dae8fc;gradientColor=#7ea6e0;strokeColor=#6c8ebf;" vertex="1" parent="1">
          <mxGeometry x="659" y="560" width="30" height="30" as="geometry" />
        </mxCell>
        <mxCell id="gBRyMmETGjdXTg0B-KCr-66" value="0" style="ellipse;whiteSpace=wrap;html=1;aspect=fixed;fillColor=#f8cecc;gradientColor=#ea6b66;strokeColor=#b85450;" vertex="1" parent="1">
          <mxGeometry x="639" y="520" width="30" height="30" as="geometry" />
        </mxCell>
        <mxCell id="gBRyMmETGjdXTg0B-KCr-67" value="7" style="ellipse;whiteSpace=wrap;html=1;aspect=fixed;fillColor=#dae8fc;gradientColor=#7ea6e0;strokeColor=#6c8ebf;" vertex="1" parent="1">
          <mxGeometry x="699" y="560" width="30" height="30" as="geometry" />
        </mxCell>
        <mxCell id="gBRyMmETGjdXTg0B-KCr-68" value="8" style="ellipse;whiteSpace=wrap;html=1;aspect=fixed;fillColor=#f8cecc;gradientColor=#ea6b66;strokeColor=#b85450;" vertex="1" parent="1">
          <mxGeometry x="739" y="560" width="30" height="30" as="geometry" />
        </mxCell>
        <mxCell id="hWmt3oaZILSPxD425lgH-1" value="0" style="ellipse;whiteSpace=wrap;html=1;aspect=fixed;fillColor=#d5e8d4;gradientColor=#97d077;strokeColor=#82b366;" vertex="1" parent="1">
          <mxGeometry x="19" y="200" width="30" height="30" as="geometry" />
        </mxCell>
        <mxCell id="hWmt3oaZILSPxD425lgH-2" value="1" style="ellipse;whiteSpace=wrap;html=1;aspect=fixed;fillColor=#d5e8d4;gradientColor=#97d077;strokeColor=#82b366;" vertex="1" parent="1">
          <mxGeometry x="59" y="200" width="30" height="30" as="geometry" />
        </mxCell>
        <mxCell id="hWmt3oaZILSPxD425lgH-3" value="2" style="ellipse;whiteSpace=wrap;html=1;aspect=fixed;fillColor=#d5e8d4;gradientColor=#97d077;strokeColor=#82b366;" vertex="1" parent="1">
          <mxGeometry x="99" y="200" width="30" height="30" as="geometry" />
        </mxCell>
        <mxCell id="hWmt3oaZILSPxD425lgH-5" value="4" style="ellipse;whiteSpace=wrap;html=1;aspect=fixed;fillColor=#f8cecc;gradientColor=#ea6b66;strokeColor=#b85450;" vertex="1" parent="1">
          <mxGeometry x="139" y="200" width="30" height="30" as="geometry" />
        </mxCell>
        <mxCell id="hWmt3oaZILSPxD425lgH-6" style="rounded=0;orthogonalLoop=1;jettySize=auto;html=1;exitX=0.5;exitY=0;exitDx=0;exitDy=0;entryX=0.5;entryY=1;entryDx=0;entryDy=0;endArrow=none;endFill=0;" edge="1" parent="1" source="hWmt3oaZILSPxD425lgH-7" target="hWmt3oaZILSPxD425lgH-5">
          <mxGeometry relative="1" as="geometry" />
        </mxCell>
        <mxCell id="hWmt3oaZILSPxD425lgH-7" value="3" style="ellipse;whiteSpace=wrap;html=1;aspect=fixed;fillColor=#dae8fc;gradientColor=#7ea6e0;strokeColor=#6c8ebf;" vertex="1" parent="1">
          <mxGeometry x="139" y="240" width="30" height="30" as="geometry" />
        </mxCell>
        <mxCell id="hWmt3oaZILSPxD425lgH-8" value="5" style="ellipse;whiteSpace=wrap;html=1;aspect=fixed;fillColor=#d5e8d4;gradientColor=#97d077;strokeColor=#82b366;" vertex="1" parent="1">
          <mxGeometry x="179" y="200" width="30" height="30" as="geometry" />
        </mxCell>
        <mxCell id="hWmt3oaZILSPxD425lgH-9" value="6" style="ellipse;whiteSpace=wrap;html=1;aspect=fixed;fillColor=#d5e8d4;gradientColor=#97d077;strokeColor=#82b366;" vertex="1" parent="1">
          <mxGeometry x="219" y="200" width="30" height="30" as="geometry" />
        </mxCell>
        <mxCell id="hWmt3oaZILSPxD425lgH-10" value="7" style="ellipse;whiteSpace=wrap;html=1;aspect=fixed;fillColor=#d5e8d4;gradientColor=#97d077;strokeColor=#82b366;" vertex="1" parent="1">
          <mxGeometry x="259" y="200" width="30" height="30" as="geometry" />
        </mxCell>
        <mxCell id="hWmt3oaZILSPxD425lgH-11" value="8" style="ellipse;whiteSpace=wrap;html=1;aspect=fixed;fillColor=#d5e8d4;gradientColor=#97d077;strokeColor=#82b366;" vertex="1" parent="1">
          <mxGeometry x="299" y="200" width="30" height="30" as="geometry" />
        </mxCell>
        <mxCell id="hWmt3oaZILSPxD425lgH-12" value="9" style="ellipse;whiteSpace=wrap;html=1;aspect=fixed;fillColor=#d5e8d4;gradientColor=#97d077;strokeColor=#82b366;" vertex="1" parent="1">
          <mxGeometry x="339" y="200" width="30" height="30" as="geometry" />
        </mxCell>
        <mxCell id="hWmt3oaZILSPxD425lgH-14" value="" style="endArrow=none;html=1;rounded=0;" edge="1" parent="1">
          <mxGeometry width="50" height="50" relative="1" as="geometry">
            <mxPoint x="440" y="780" as="sourcePoint" />
            <mxPoint x="440" y="20" as="targetPoint" />
          </mxGeometry>
        </mxCell>
        <mxCell id="hWmt3oaZILSPxD425lgH-15" value="" style="endArrow=none;html=1;rounded=0;" edge="1" parent="1">
          <mxGeometry width="50" height="50" relative="1" as="geometry">
            <mxPoint x="800" y="149.43" as="sourcePoint" />
            <mxPoint x="10" y="149.43" as="targetPoint" />
          </mxGeometry>
        </mxCell>
        <mxCell id="hWmt3oaZILSPxD425lgH-16" value="" style="endArrow=none;html=1;rounded=0;" edge="1" parent="1">
          <mxGeometry width="50" height="50" relative="1" as="geometry">
            <mxPoint x="800" y="310" as="sourcePoint" />
            <mxPoint x="10" y="310" as="targetPoint" />
          </mxGeometry>
        </mxCell>
        <mxCell id="hWmt3oaZILSPxD425lgH-17" value="" style="endArrow=none;html=1;rounded=0;" edge="1" parent="1">
          <mxGeometry width="50" height="50" relative="1" as="geometry">
            <mxPoint x="800" y="470" as="sourcePoint" />
            <mxPoint x="10" y="470" as="targetPoint" />
          </mxGeometry>
        </mxCell>
        <mxCell id="hWmt3oaZILSPxD425lgH-18" value="" style="endArrow=none;html=1;rounded=0;" edge="1" parent="1">
          <mxGeometry width="50" height="50" relative="1" as="geometry">
            <mxPoint x="800" y="640" as="sourcePoint" />
            <mxPoint x="10" y="640" as="targetPoint" />
          </mxGeometry>
        </mxCell>
        <mxCell id="92H63Gj4ykDIsNKBHeLG-1" value="&lt;b&gt;1&lt;/b&gt;.&amp;nbsp; &amp;nbsp;3 - 4" style="text;html=1;align=left;verticalAlign=middle;whiteSpace=wrap;rounded=0;" vertex="1" parent="1">
          <mxGeometry x="19" y="150" width="60" height="30" as="geometry" />
        </mxCell>
        <mxCell id="92H63Gj4ykDIsNKBHeLG-2" value="&lt;b&gt;3&lt;/b&gt;.&amp;nbsp; &amp;nbsp;8 - 0" style="text;html=1;align=left;verticalAlign=middle;whiteSpace=wrap;rounded=0;" vertex="1" parent="1">
          <mxGeometry x="19" y="470" width="60" height="30" as="geometry" />
        </mxCell>
        <mxCell id="92H63Gj4ykDIsNKBHeLG-3" value="&lt;b&gt;4&lt;/b&gt;.&amp;nbsp; &amp;nbsp;2 - 3" style="text;html=1;align=left;verticalAlign=middle;whiteSpace=wrap;rounded=0;" vertex="1" parent="1">
          <mxGeometry x="20" y="640" width="60" height="30" as="geometry" />
        </mxCell>
        <mxCell id="92H63Gj4ykDIsNKBHeLG-4" value="&lt;b&gt;5&lt;/b&gt;.&amp;nbsp; &amp;nbsp;5 - 6" style="text;html=1;align=left;verticalAlign=middle;whiteSpace=wrap;rounded=0;" vertex="1" parent="1">
          <mxGeometry x="450" y="20" width="60" height="30" as="geometry" />
        </mxCell>
        <mxCell id="92H63Gj4ykDIsNKBHeLG-5" value="&lt;b&gt;6&lt;/b&gt;.&amp;nbsp; &amp;nbsp;5 - 9" style="text;html=1;align=left;verticalAlign=middle;whiteSpace=wrap;rounded=0;" vertex="1" parent="1">
          <mxGeometry x="450" y="150" width="60" height="30" as="geometry" />
        </mxCell>
        <mxCell id="92H63Gj4ykDIsNKBHeLG-6" value="&lt;b&gt;7&lt;/b&gt;.&amp;nbsp; &amp;nbsp;7 - 3" style="text;html=1;align=left;verticalAlign=middle;whiteSpace=wrap;rounded=0;" vertex="1" parent="1">
          <mxGeometry x="450" y="310" width="60" height="30" as="geometry" />
        </mxCell>
        <mxCell id="92H63Gj4ykDIsNKBHeLG-7" value="&lt;b&gt;2&lt;/b&gt;.&amp;nbsp; &amp;nbsp;4 - 9" style="text;html=1;align=left;verticalAlign=middle;whiteSpace=wrap;rounded=0;" vertex="1" parent="1">
          <mxGeometry x="19" y="310" width="60" height="30" as="geometry" />
        </mxCell>
        <mxCell id="92H63Gj4ykDIsNKBHeLG-8" value="&lt;b&gt;8&lt;/b&gt;.&amp;nbsp; &amp;nbsp;4 - 8" style="text;html=1;align=left;verticalAlign=middle;whiteSpace=wrap;rounded=0;" vertex="1" parent="1">
          <mxGeometry x="450" y="470" width="60" height="30" as="geometry" />
        </mxCell>
        <mxCell id="92H63Gj4ykDIsNKBHeLG-9" value="&lt;b&gt;9&lt;/b&gt;.&amp;nbsp; &amp;nbsp;6 - 1" style="text;html=1;align=left;verticalAlign=middle;whiteSpace=wrap;rounded=0;" vertex="1" parent="1">
          <mxGeometry x="450" y="640" width="60" height="30" as="geometry" />
        </mxCell>
      </root>
    </mxGraphModel>
  </diagram>
  <diagram id="FcHIToSvowXmQgx4JeGZ" name="exmpl2">
    <mxGraphModel dx="1434" dy="791" grid="1" gridSize="10" guides="1" tooltips="1" connect="1" arrows="1" fold="1" page="1" pageScale="1" pageWidth="827" pageHeight="1169" math="0" shadow="0">
      <root>
        <mxCell id="0" />
        <mxCell id="1" parent="0" />
        <mxCell id="Yq8n5ctG-3XVFnM2OaOM-1" value="3&amp;nbsp; &amp;nbsp; 4&lt;div&gt;4&amp;nbsp; &amp;nbsp; 9&lt;/div&gt;&lt;div&gt;8&amp;nbsp; &amp;nbsp; 0&lt;/div&gt;&lt;div&gt;2&amp;nbsp; &amp;nbsp; 3&lt;/div&gt;&lt;div&gt;5&amp;nbsp; &amp;nbsp; 6&lt;/div&gt;&lt;div&gt;2&amp;nbsp; &amp;nbsp; 9&lt;/div&gt;&lt;div&gt;5&amp;nbsp; &amp;nbsp; 9&lt;/div&gt;&lt;div&gt;7&amp;nbsp; &amp;nbsp; 3&lt;/div&gt;&lt;div&gt;4&amp;nbsp; &amp;nbsp; 8&lt;/div&gt;&lt;div&gt;5&amp;nbsp; &amp;nbsp; 6&lt;/div&gt;&lt;div&gt;0&amp;nbsp; &amp;nbsp; 2&lt;/div&gt;&lt;div&gt;6&amp;nbsp; &amp;nbsp; 1&lt;/div&gt;&lt;div&gt;&lt;br&gt;&lt;/div&gt;&lt;div&gt;5&amp;nbsp; &amp;nbsp; 8&lt;/div&gt;" style="text;html=1;align=left;verticalAlign=middle;whiteSpace=wrap;rounded=0;" parent="1" vertex="1">
          <mxGeometry x="40" y="40" width="40" height="240" as="geometry" />
        </mxCell>
        <mxCell id="Yq8n5ctG-3XVFnM2OaOM-2" value="0&amp;nbsp; 1&amp;nbsp; 2&amp;nbsp; 3&amp;nbsp; 4&amp;nbsp; 5&amp;nbsp; 6&amp;nbsp; 7&amp;nbsp; 8&amp;nbsp; 9" style="text;html=1;align=left;verticalAlign=middle;whiteSpace=wrap;rounded=0;" parent="1" vertex="1">
          <mxGeometry x="110" y="20" width="130" height="20" as="geometry" />
        </mxCell>
        <mxCell id="Yq8n5ctG-3XVFnM2OaOM-3" value="&lt;b&gt;p&amp;nbsp; &amp;nbsp; q&lt;/b&gt;" style="text;html=1;align=left;verticalAlign=middle;whiteSpace=wrap;rounded=0;" parent="1" vertex="1">
          <mxGeometry x="40" y="20" width="40" height="20" as="geometry" />
        </mxCell>
        <mxCell id="Yq8n5ctG-3XVFnM2OaOM-4" value="&lt;div&gt;0&amp;nbsp; 1&amp;nbsp; 2&amp;nbsp; &lt;b&gt;4&lt;/b&gt;&amp;nbsp; 4&amp;nbsp; 5&amp;nbsp; 6&amp;nbsp; 7&amp;nbsp; 8&amp;nbsp; 9&lt;/div&gt;&lt;div&gt;0&amp;nbsp; 1&amp;nbsp; 2&amp;nbsp; 4&amp;nbsp; &lt;b&gt;9&lt;/b&gt;&amp;nbsp; 5&amp;nbsp; 6&amp;nbsp; 7&amp;nbsp; 8&amp;nbsp; 9&lt;/div&gt;&lt;div&gt;0&amp;nbsp; 1&amp;nbsp; 2&amp;nbsp; 4&amp;nbsp; 9&amp;nbsp; 5&amp;nbsp; 6&amp;nbsp; 7&amp;nbsp; &lt;b&gt;0&lt;/b&gt;&amp;nbsp; 9&lt;/div&gt;&lt;div&gt;0&amp;nbsp; 1&amp;nbsp; &lt;b&gt;9&lt;/b&gt;&amp;nbsp; 4&amp;nbsp; 9&amp;nbsp; 5&amp;nbsp; 6&amp;nbsp; 7&amp;nbsp; 0&amp;nbsp; 9&lt;/div&gt;&lt;div&gt;0&amp;nbsp; 1&amp;nbsp; 9&amp;nbsp; 4&amp;nbsp; 9&amp;nbsp; &lt;b&gt;6&lt;/b&gt;&amp;nbsp; 6&amp;nbsp; 7&amp;nbsp; 0&amp;nbsp; 9&lt;/div&gt;&lt;div&gt;0&amp;nbsp; 1&amp;nbsp; 9&amp;nbsp; 4&amp;nbsp; 9&amp;nbsp; 6&amp;nbsp; 6&amp;nbsp; 7&amp;nbsp; 0&amp;nbsp; 9&lt;/div&gt;&lt;div&gt;0&amp;nbsp; 1&amp;nbsp; 9&amp;nbsp; 4&amp;nbsp; 9&amp;nbsp; 6&amp;nbsp;&amp;nbsp;&lt;b&gt;9&lt;/b&gt;&amp;nbsp; 7&amp;nbsp; 0&amp;nbsp; 9&lt;/div&gt;&lt;div&gt;0&amp;nbsp; 1&amp;nbsp; 9&amp;nbsp; 4&amp;nbsp; 9&amp;nbsp; 6&amp;nbsp; 9&amp;nbsp; &lt;b&gt;9&lt;/b&gt;&amp;nbsp; 0&amp;nbsp; 9&lt;/div&gt;&lt;div&gt;0&amp;nbsp; 1&amp;nbsp; 9&amp;nbsp; 4&amp;nbsp; 9&amp;nbsp; 6&amp;nbsp; 9&amp;nbsp;&amp;nbsp;9&amp;nbsp; 0&amp;nbsp; &lt;b&gt;0&lt;/b&gt;&lt;br&gt;&lt;/div&gt;&lt;div&gt;0&amp;nbsp; 1&amp;nbsp; 9&amp;nbsp; 4&amp;nbsp; 9&amp;nbsp; 6&amp;nbsp; 9&amp;nbsp;&amp;nbsp;9&amp;nbsp; 0&amp;nbsp; 0&lt;br&gt;&lt;/div&gt;&lt;div&gt;0&amp;nbsp; 1&amp;nbsp; 9&amp;nbsp; 4&amp;nbsp; 9&amp;nbsp; 6&amp;nbsp; 9&amp;nbsp;&amp;nbsp;9&amp;nbsp; 0&amp;nbsp; 0&lt;br&gt;&lt;/div&gt;&lt;div&gt;&lt;b&gt;1&lt;/b&gt;&amp;nbsp; 1&amp;nbsp; 9&amp;nbsp; 4&amp;nbsp; 9&amp;nbsp; 6&amp;nbsp; 9&amp;nbsp;&amp;nbsp;9&amp;nbsp; 0&amp;nbsp; 0&lt;br&gt;&lt;/div&gt;&lt;div&gt;&lt;br&gt;&lt;/div&gt;&lt;div&gt;1&amp;nbsp; 1&amp;nbsp; 9&amp;nbsp; 4&amp;nbsp; 9&amp;nbsp; 6&amp;nbsp; 9&amp;nbsp;&amp;nbsp;9&amp;nbsp; 0&amp;nbsp; 0&lt;br&gt;&lt;/div&gt;" style="text;html=1;align=left;verticalAlign=middle;whiteSpace=wrap;rounded=0;" parent="1" vertex="1">
          <mxGeometry x="110" y="40" width="140" height="240" as="geometry" />
        </mxCell>
        <mxCell id="Yq8n5ctG-3XVFnM2OaOM-5" value="" style="endArrow=none;html=1;rounded=0;strokeWidth=0;" parent="1" edge="1">
          <mxGeometry width="50" height="50" relative="1" as="geometry">
            <mxPoint y="280" as="sourcePoint" />
            <mxPoint x="600" y="280" as="targetPoint" />
          </mxGeometry>
        </mxCell>
        <mxCell id="Yq8n5ctG-3XVFnM2OaOM-6" value="" style="endArrow=none;html=1;rounded=0;strokeWidth=0;" parent="1" edge="1">
          <mxGeometry width="50" height="50" relative="1" as="geometry">
            <mxPoint y="10" as="sourcePoint" />
            <mxPoint x="600" y="10" as="targetPoint" />
          </mxGeometry>
        </mxCell>
        <mxCell id="Yq8n5ctG-3XVFnM2OaOM-7" value="" style="endArrow=none;html=1;rounded=0;strokeWidth=0;" parent="1" edge="1">
          <mxGeometry width="50" height="50" relative="1" as="geometry">
            <mxPoint x="600" y="240" as="sourcePoint" />
            <mxPoint x="600" y="10" as="targetPoint" />
          </mxGeometry>
        </mxCell>
        <mxCell id="Yq8n5ctG-3XVFnM2OaOM-8" value="" style="endArrow=none;html=1;rounded=0;strokeWidth=0;" parent="1" edge="1">
          <mxGeometry width="50" height="50" relative="1" as="geometry">
            <mxPoint y="240" as="sourcePoint" />
            <mxPoint y="10" as="targetPoint" />
          </mxGeometry>
        </mxCell>
        <mxCell id="Yq8n5ctG-3XVFnM2OaOM-9" value="Здесь изображено содержимое массива &lt;i&gt;array&lt;/i&gt;&amp;nbsp;после обработки каждой пары, приведенной слева, алгоритмом быстрого объединения. Жирным шрифтом обозначены те записи, которые изменяются при выполнении операции &lt;b&gt;объединение&lt;/b&gt;. При обработке пары &lt;i&gt;p&lt;/i&gt; &lt;i&gt;q&lt;/i&gt;&amp;nbsp;мы переходим по указателям из &lt;i&gt;p&lt;/i&gt; до записи&amp;nbsp;&lt;i&gt;i&lt;/i&gt;,&amp;nbsp;у которой &lt;i&gt;array[i] == i&lt;/i&gt;; потом переходим по указателям из &lt;i&gt;q&lt;/i&gt; до записи &lt;i&gt;j&lt;/i&gt;, у которой &lt;i&gt;array[j] = j&lt;/i&gt;; затем, если &lt;i&gt;i&lt;/i&gt; и &lt;i&gt;j&lt;/i&gt; различны, устанавливаем &lt;i&gt;array[i]&lt;/i&gt; = &lt;i&gt;array[j]&lt;/i&gt;.&amp;nbsp;&lt;div&gt;&lt;br&gt;&lt;/div&gt;&lt;div&gt;При выполнении операции поиска для пары 5-8 (последняя строка) &lt;i&gt;i&lt;/i&gt; принимает значение &lt;b&gt;5-6-9-0-1&lt;/b&gt;,&lt;/div&gt;&lt;div&gt;а &lt;i&gt;j&lt;/i&gt; - значения &lt;b&gt;8-0-1&lt;/b&gt;&lt;/div&gt;" style="text;html=1;align=left;verticalAlign=middle;whiteSpace=wrap;rounded=0;" parent="1" vertex="1">
          <mxGeometry x="280" y="60" width="300" height="200" as="geometry" />
        </mxCell>
      </root>
    </mxGraphModel>
  </diagram>
  <diagram id="vttj5v7k9sc_rsOhUEWH" name="tree2">
    <mxGraphModel dx="989" dy="546" grid="1" gridSize="10" guides="1" tooltips="1" connect="1" arrows="1" fold="1" page="1" pageScale="1" pageWidth="827" pageHeight="1169" math="0" shadow="0">
      <root>
        <mxCell id="0" />
        <mxCell id="1" parent="0" />
        <mxCell id="4qUuaVo3-OMq31uQhweF-1" value="0" style="ellipse;whiteSpace=wrap;html=1;aspect=fixed;fillColor=#d5e8d4;gradientColor=#97d077;strokeColor=#82b366;" vertex="1" parent="1">
          <mxGeometry x="40" y="150" width="30" height="30" as="geometry" />
        </mxCell>
        <mxCell id="4qUuaVo3-OMq31uQhweF-2" value="1" style="ellipse;whiteSpace=wrap;html=1;aspect=fixed;fillColor=#d5e8d4;gradientColor=#97d077;strokeColor=#82b366;" vertex="1" parent="1">
          <mxGeometry x="80" y="150" width="30" height="30" as="geometry" />
        </mxCell>
        <mxCell id="4qUuaVo3-OMq31uQhweF-3" value="2" style="ellipse;whiteSpace=wrap;html=1;aspect=fixed;fillColor=#d5e8d4;gradientColor=#97d077;strokeColor=#82b366;" vertex="1" parent="1">
          <mxGeometry x="120" y="150" width="30" height="30" as="geometry" />
        </mxCell>
        <mxCell id="4qUuaVo3-OMq31uQhweF-4" value="3" style="ellipse;whiteSpace=wrap;html=1;aspect=fixed;fillColor=#d5e8d4;gradientColor=#97d077;strokeColor=#82b366;" vertex="1" parent="1">
          <mxGeometry x="160" y="150" width="30" height="30" as="geometry" />
        </mxCell>
        <mxCell id="4qUuaVo3-OMq31uQhweF-5" value="4" style="ellipse;whiteSpace=wrap;html=1;aspect=fixed;fillColor=#d5e8d4;gradientColor=#97d077;strokeColor=#82b366;" vertex="1" parent="1">
          <mxGeometry x="200" y="150" width="30" height="30" as="geometry" />
        </mxCell>
        <mxCell id="4qUuaVo3-OMq31uQhweF-6" value="5" style="ellipse;whiteSpace=wrap;html=1;aspect=fixed;fillColor=#d5e8d4;gradientColor=#97d077;strokeColor=#82b366;" vertex="1" parent="1">
          <mxGeometry x="240" y="150" width="30" height="30" as="geometry" />
        </mxCell>
        <mxCell id="4qUuaVo3-OMq31uQhweF-7" value="6" style="ellipse;whiteSpace=wrap;html=1;aspect=fixed;fillColor=#d5e8d4;gradientColor=#97d077;strokeColor=#82b366;" vertex="1" parent="1">
          <mxGeometry x="280" y="150" width="30" height="30" as="geometry" />
        </mxCell>
        <mxCell id="4qUuaVo3-OMq31uQhweF-8" value="7" style="ellipse;whiteSpace=wrap;html=1;aspect=fixed;fillColor=#d5e8d4;gradientColor=#97d077;strokeColor=#82b366;" vertex="1" parent="1">
          <mxGeometry x="320" y="150" width="30" height="30" as="geometry" />
        </mxCell>
        <mxCell id="4qUuaVo3-OMq31uQhweF-9" value="8" style="ellipse;whiteSpace=wrap;html=1;aspect=fixed;fillColor=#d5e8d4;gradientColor=#97d077;strokeColor=#82b366;" vertex="1" parent="1">
          <mxGeometry x="360" y="150" width="30" height="30" as="geometry" />
        </mxCell>
        <mxCell id="4qUuaVo3-OMq31uQhweF-10" value="9" style="ellipse;whiteSpace=wrap;html=1;aspect=fixed;fillColor=#d5e8d4;gradientColor=#97d077;strokeColor=#82b366;" vertex="1" parent="1">
          <mxGeometry x="400" y="150" width="30" height="30" as="geometry" />
        </mxCell>
        <mxCell id="4qUuaVo3-OMq31uQhweF-11" value="" style="endArrow=none;html=1;rounded=0;strokeWidth=0;fillColor=#d5e8d4;gradientColor=#97d077;strokeColor=#82b366;" edge="1" parent="1">
          <mxGeometry width="50" height="50" relative="1" as="geometry">
            <mxPoint y="1020" as="sourcePoint" />
            <mxPoint x="800" y="1020" as="targetPoint" />
          </mxGeometry>
        </mxCell>
        <mxCell id="4qUuaVo3-OMq31uQhweF-13" value="0" style="ellipse;whiteSpace=wrap;html=1;aspect=fixed;fillColor=#d5e8d4;gradientColor=#97d077;strokeColor=#82b366;" vertex="1" parent="1">
          <mxGeometry x="40" y="310" width="30" height="30" as="geometry" />
        </mxCell>
        <mxCell id="4qUuaVo3-OMq31uQhweF-14" value="1" style="ellipse;whiteSpace=wrap;html=1;aspect=fixed;fillColor=#d5e8d4;gradientColor=#97d077;strokeColor=#82b366;" vertex="1" parent="1">
          <mxGeometry x="80" y="310" width="30" height="30" as="geometry" />
        </mxCell>
        <mxCell id="4qUuaVo3-OMq31uQhweF-15" value="2" style="ellipse;whiteSpace=wrap;html=1;aspect=fixed;fillColor=#d5e8d4;gradientColor=#97d077;strokeColor=#82b366;" vertex="1" parent="1">
          <mxGeometry x="120" y="310" width="30" height="30" as="geometry" />
        </mxCell>
        <mxCell id="4qUuaVo3-OMq31uQhweF-16" style="rounded=0;orthogonalLoop=1;jettySize=auto;html=1;exitX=0.5;exitY=0;exitDx=0;exitDy=0;entryX=0.5;entryY=1;entryDx=0;entryDy=0;endArrow=none;endFill=0;fillColor=#d5e8d4;gradientColor=#97d077;strokeColor=#000000;" edge="1" parent="1" source="4qUuaVo3-OMq31uQhweF-17" target="4qUuaVo3-OMq31uQhweF-18">
          <mxGeometry relative="1" as="geometry" />
        </mxCell>
        <mxCell id="4qUuaVo3-OMq31uQhweF-17" value="3" style="ellipse;whiteSpace=wrap;html=1;aspect=fixed;fillColor=#dae8fc;gradientColor=#7ea6e0;strokeColor=#6c8ebf;" vertex="1" parent="1">
          <mxGeometry x="160" y="350" width="30" height="30" as="geometry" />
        </mxCell>
        <mxCell id="4qUuaVo3-OMq31uQhweF-18" value="4" style="ellipse;whiteSpace=wrap;html=1;aspect=fixed;fillColor=#f8cecc;gradientColor=#ea6b66;strokeColor=#b85450;" vertex="1" parent="1">
          <mxGeometry x="160" y="310" width="30" height="30" as="geometry" />
        </mxCell>
        <mxCell id="4qUuaVo3-OMq31uQhweF-19" value="5" style="ellipse;whiteSpace=wrap;html=1;aspect=fixed;fillColor=#d5e8d4;gradientColor=#97d077;strokeColor=#82b366;" vertex="1" parent="1">
          <mxGeometry x="200" y="310" width="30" height="30" as="geometry" />
        </mxCell>
        <mxCell id="4qUuaVo3-OMq31uQhweF-20" value="6" style="ellipse;whiteSpace=wrap;html=1;aspect=fixed;fillColor=#d5e8d4;gradientColor=#97d077;strokeColor=#82b366;" vertex="1" parent="1">
          <mxGeometry x="240" y="310" width="30" height="30" as="geometry" />
        </mxCell>
        <mxCell id="4qUuaVo3-OMq31uQhweF-21" value="7" style="ellipse;whiteSpace=wrap;html=1;aspect=fixed;fillColor=#d5e8d4;gradientColor=#97d077;strokeColor=#82b366;" vertex="1" parent="1">
          <mxGeometry x="280" y="310" width="30" height="30" as="geometry" />
        </mxCell>
        <mxCell id="4qUuaVo3-OMq31uQhweF-22" value="8" style="ellipse;whiteSpace=wrap;html=1;aspect=fixed;fillColor=#d5e8d4;gradientColor=#97d077;strokeColor=#82b366;" vertex="1" parent="1">
          <mxGeometry x="320" y="310" width="30" height="30" as="geometry" />
        </mxCell>
        <mxCell id="4qUuaVo3-OMq31uQhweF-23" value="9" style="ellipse;whiteSpace=wrap;html=1;aspect=fixed;fillColor=#d5e8d4;gradientColor=#97d077;strokeColor=#82b366;" vertex="1" parent="1">
          <mxGeometry x="360" y="310" width="30" height="30" as="geometry" />
        </mxCell>
        <mxCell id="4qUuaVo3-OMq31uQhweF-24" value="0" style="ellipse;whiteSpace=wrap;html=1;aspect=fixed;fillColor=#d5e8d4;gradientColor=#97d077;strokeColor=#82b366;" vertex="1" parent="1">
          <mxGeometry x="80" y="440" width="30" height="30" as="geometry" />
        </mxCell>
        <mxCell id="4qUuaVo3-OMq31uQhweF-25" value="1" style="ellipse;whiteSpace=wrap;html=1;aspect=fixed;fillColor=#d5e8d4;gradientColor=#97d077;strokeColor=#82b366;" vertex="1" parent="1">
          <mxGeometry x="120" y="440" width="30" height="30" as="geometry" />
        </mxCell>
        <mxCell id="4qUuaVo3-OMq31uQhweF-26" value="2" style="ellipse;whiteSpace=wrap;html=1;aspect=fixed;fillColor=#d5e8d4;gradientColor=#97d077;strokeColor=#82b366;" vertex="1" parent="1">
          <mxGeometry x="160" y="440" width="30" height="30" as="geometry" />
        </mxCell>
        <mxCell id="4qUuaVo3-OMq31uQhweF-27" style="rounded=0;orthogonalLoop=1;jettySize=auto;html=1;exitX=0.5;exitY=0;exitDx=0;exitDy=0;entryX=0.5;entryY=1;entryDx=0;entryDy=0;endArrow=none;endFill=0;fillColor=#d5e8d4;gradientColor=#97d077;strokeColor=#000000;" edge="1" parent="1" source="4qUuaVo3-OMq31uQhweF-28" target="4qUuaVo3-OMq31uQhweF-30">
          <mxGeometry relative="1" as="geometry" />
        </mxCell>
        <mxCell id="4qUuaVo3-OMq31uQhweF-28" value="3" style="ellipse;whiteSpace=wrap;html=1;aspect=fixed;fillColor=#d5e8d4;gradientColor=#97d077;strokeColor=#82b366;" vertex="1" parent="1">
          <mxGeometry x="200" y="520" width="30" height="30" as="geometry" />
        </mxCell>
        <mxCell id="4qUuaVo3-OMq31uQhweF-29" style="rounded=0;orthogonalLoop=1;jettySize=auto;html=1;exitX=0.5;exitY=0;exitDx=0;exitDy=0;entryX=0.5;entryY=1;entryDx=0;entryDy=0;endArrow=none;endFill=0;fillColor=#d5e8d4;gradientColor=#97d077;strokeColor=#000000;" edge="1" parent="1" source="4qUuaVo3-OMq31uQhweF-30" target="4qUuaVo3-OMq31uQhweF-35">
          <mxGeometry relative="1" as="geometry" />
        </mxCell>
        <mxCell id="4qUuaVo3-OMq31uQhweF-30" value="4" style="ellipse;whiteSpace=wrap;html=1;aspect=fixed;fillColor=#dae8fc;gradientColor=#7ea6e0;strokeColor=#6c8ebf;" vertex="1" parent="1">
          <mxGeometry x="200" y="480" width="30" height="30" as="geometry" />
        </mxCell>
        <mxCell id="4qUuaVo3-OMq31uQhweF-31" value="5" style="ellipse;whiteSpace=wrap;html=1;aspect=fixed;fillColor=#d5e8d4;gradientColor=#97d077;strokeColor=#82b366;" vertex="1" parent="1">
          <mxGeometry x="240" y="440" width="30" height="30" as="geometry" />
        </mxCell>
        <mxCell id="4qUuaVo3-OMq31uQhweF-32" value="6" style="ellipse;whiteSpace=wrap;html=1;aspect=fixed;fillColor=#d5e8d4;gradientColor=#97d077;strokeColor=#82b366;" vertex="1" parent="1">
          <mxGeometry x="280" y="440" width="30" height="30" as="geometry" />
        </mxCell>
        <mxCell id="4qUuaVo3-OMq31uQhweF-33" value="7" style="ellipse;whiteSpace=wrap;html=1;aspect=fixed;fillColor=#d5e8d4;gradientColor=#97d077;strokeColor=#82b366;" vertex="1" parent="1">
          <mxGeometry x="320" y="440" width="30" height="30" as="geometry" />
        </mxCell>
        <mxCell id="4qUuaVo3-OMq31uQhweF-34" value="8" style="ellipse;whiteSpace=wrap;html=1;aspect=fixed;fillColor=#d5e8d4;gradientColor=#97d077;strokeColor=#82b366;" vertex="1" parent="1">
          <mxGeometry x="360" y="440" width="30" height="30" as="geometry" />
        </mxCell>
        <mxCell id="4qUuaVo3-OMq31uQhweF-35" value="9" style="ellipse;whiteSpace=wrap;html=1;aspect=fixed;fillColor=#f8cecc;gradientColor=#ea6b66;strokeColor=#b85450;" vertex="1" parent="1">
          <mxGeometry x="200" y="440" width="30" height="30" as="geometry" />
        </mxCell>
        <mxCell id="4qUuaVo3-OMq31uQhweF-36" value="0" style="ellipse;whiteSpace=wrap;html=1;aspect=fixed;fillColor=#d5e8d4;gradientColor=#97d077;strokeColor=#82b366;" vertex="1" parent="1">
          <mxGeometry x="360" y="600" width="30" height="30" as="geometry" />
        </mxCell>
        <mxCell id="4qUuaVo3-OMq31uQhweF-37" value="1" style="ellipse;whiteSpace=wrap;html=1;aspect=fixed;fillColor=#d5e8d4;gradientColor=#97d077;strokeColor=#82b366;" vertex="1" parent="1">
          <mxGeometry x="120" y="600" width="30" height="30" as="geometry" />
        </mxCell>
        <mxCell id="4qUuaVo3-OMq31uQhweF-38" value="2" style="ellipse;whiteSpace=wrap;html=1;aspect=fixed;fillColor=#d5e8d4;gradientColor=#97d077;strokeColor=#82b366;" vertex="1" parent="1">
          <mxGeometry x="160" y="600" width="30" height="30" as="geometry" />
        </mxCell>
        <mxCell id="4qUuaVo3-OMq31uQhweF-39" style="rounded=0;orthogonalLoop=1;jettySize=auto;html=1;exitX=0.5;exitY=0;exitDx=0;exitDy=0;entryX=0.5;entryY=1;entryDx=0;entryDy=0;endArrow=none;endFill=0;fillColor=#d5e8d4;gradientColor=#97d077;strokeColor=#000000;" edge="1" parent="1" source="4qUuaVo3-OMq31uQhweF-40" target="4qUuaVo3-OMq31uQhweF-42">
          <mxGeometry relative="1" as="geometry" />
        </mxCell>
        <mxCell id="4qUuaVo3-OMq31uQhweF-40" value="3" style="ellipse;whiteSpace=wrap;html=1;aspect=fixed;fillColor=#d5e8d4;gradientColor=#97d077;strokeColor=#82b366;" vertex="1" parent="1">
          <mxGeometry x="200" y="680" width="30" height="30" as="geometry" />
        </mxCell>
        <mxCell id="4qUuaVo3-OMq31uQhweF-41" style="rounded=0;orthogonalLoop=1;jettySize=auto;html=1;exitX=0.5;exitY=0;exitDx=0;exitDy=0;entryX=0.5;entryY=1;entryDx=0;entryDy=0;endArrow=none;endFill=0;fillColor=#d5e8d4;gradientColor=#97d077;strokeColor=#000000;" edge="1" parent="1" source="4qUuaVo3-OMq31uQhweF-42" target="4qUuaVo3-OMq31uQhweF-48">
          <mxGeometry relative="1" as="geometry" />
        </mxCell>
        <mxCell id="4qUuaVo3-OMq31uQhweF-42" value="4" style="ellipse;whiteSpace=wrap;html=1;aspect=fixed;fillColor=#d5e8d4;gradientColor=#97d077;strokeColor=#82b366;" vertex="1" parent="1">
          <mxGeometry x="200" y="640" width="30" height="30" as="geometry" />
        </mxCell>
        <mxCell id="4qUuaVo3-OMq31uQhweF-43" value="5" style="ellipse;whiteSpace=wrap;html=1;aspect=fixed;fillColor=#d5e8d4;gradientColor=#97d077;strokeColor=#82b366;" vertex="1" parent="1">
          <mxGeometry x="240" y="600" width="30" height="30" as="geometry" />
        </mxCell>
        <mxCell id="4qUuaVo3-OMq31uQhweF-44" value="6" style="ellipse;whiteSpace=wrap;html=1;aspect=fixed;fillColor=#d5e8d4;gradientColor=#97d077;strokeColor=#82b366;" vertex="1" parent="1">
          <mxGeometry x="280" y="600" width="30" height="30" as="geometry" />
        </mxCell>
        <mxCell id="4qUuaVo3-OMq31uQhweF-45" value="7" style="ellipse;whiteSpace=wrap;html=1;aspect=fixed;fillColor=#d5e8d4;gradientColor=#97d077;strokeColor=#82b366;" vertex="1" parent="1">
          <mxGeometry x="320" y="600" width="30" height="30" as="geometry" />
        </mxCell>
        <mxCell id="4qUuaVo3-OMq31uQhweF-46" style="rounded=0;orthogonalLoop=1;jettySize=auto;html=1;exitX=0.5;exitY=0;exitDx=0;exitDy=0;entryX=0.5;entryY=1;entryDx=0;entryDy=0;endArrow=none;endFill=0;fillColor=#d5e8d4;gradientColor=#97d077;strokeColor=#000000;" edge="1" parent="1" source="4qUuaVo3-OMq31uQhweF-47" target="4qUuaVo3-OMq31uQhweF-36">
          <mxGeometry relative="1" as="geometry" />
        </mxCell>
        <mxCell id="4qUuaVo3-OMq31uQhweF-47" value="8" style="ellipse;whiteSpace=wrap;html=1;aspect=fixed;fillColor=#d5e8d4;gradientColor=#97d077;strokeColor=#82b366;" vertex="1" parent="1">
          <mxGeometry x="360" y="640" width="30" height="30" as="geometry" />
        </mxCell>
        <mxCell id="4qUuaVo3-OMq31uQhweF-48" value="9" style="ellipse;whiteSpace=wrap;html=1;aspect=fixed;fillColor=#d5e8d4;gradientColor=#97d077;strokeColor=#82b366;" vertex="1" parent="1">
          <mxGeometry x="200" y="600" width="30" height="30" as="geometry" />
        </mxCell>
        <mxCell id="4qUuaVo3-OMq31uQhweF-49" value="0" style="ellipse;whiteSpace=wrap;html=1;aspect=fixed;fillColor=#d5e8d4;gradientColor=#97d077;strokeColor=#82b366;" vertex="1" parent="1">
          <mxGeometry x="360" y="800" width="30" height="30" as="geometry" />
        </mxCell>
        <mxCell id="4qUuaVo3-OMq31uQhweF-50" value="1" style="ellipse;whiteSpace=wrap;html=1;aspect=fixed;fillColor=#d5e8d4;gradientColor=#97d077;strokeColor=#82b366;" vertex="1" parent="1">
          <mxGeometry x="120" y="800" width="30" height="30" as="geometry" />
        </mxCell>
        <mxCell id="4qUuaVo3-OMq31uQhweF-51" style="rounded=0;orthogonalLoop=1;jettySize=auto;html=1;exitX=0.5;exitY=0;exitDx=0;exitDy=0;entryX=0;entryY=1;entryDx=0;entryDy=0;endArrow=none;endFill=0;fillColor=#d5e8d4;gradientColor=#97d077;strokeColor=#000000;" edge="1" parent="1" source="4qUuaVo3-OMq31uQhweF-52" target="4qUuaVo3-OMq31uQhweF-62">
          <mxGeometry relative="1" as="geometry" />
        </mxCell>
        <mxCell id="4qUuaVo3-OMq31uQhweF-52" value="2" style="ellipse;whiteSpace=wrap;html=1;aspect=fixed;fillColor=#dae8fc;gradientColor=#7ea6e0;strokeColor=#6c8ebf;" vertex="1" parent="1">
          <mxGeometry x="160" y="840" width="30" height="30" as="geometry" />
        </mxCell>
        <mxCell id="4qUuaVo3-OMq31uQhweF-53" style="rounded=0;orthogonalLoop=1;jettySize=auto;html=1;exitX=0.5;exitY=0;exitDx=0;exitDy=0;entryX=0.5;entryY=1;entryDx=0;entryDy=0;endArrow=none;endFill=0;fillColor=#d5e8d4;gradientColor=#97d077;strokeColor=#000000;" edge="1" parent="1" source="4qUuaVo3-OMq31uQhweF-54" target="4qUuaVo3-OMq31uQhweF-56">
          <mxGeometry relative="1" as="geometry" />
        </mxCell>
        <mxCell id="4qUuaVo3-OMq31uQhweF-54" value="3" style="ellipse;whiteSpace=wrap;html=1;aspect=fixed;fillColor=#f8cecc;gradientColor=#ea6b66;strokeColor=#b85450;" vertex="1" parent="1">
          <mxGeometry x="200" y="880" width="30" height="30" as="geometry" />
        </mxCell>
        <mxCell id="4qUuaVo3-OMq31uQhweF-55" style="rounded=0;orthogonalLoop=1;jettySize=auto;html=1;exitX=0.5;exitY=0;exitDx=0;exitDy=0;entryX=1;entryY=1;entryDx=0;entryDy=0;endArrow=none;endFill=0;fillColor=#d5e8d4;gradientColor=#97d077;strokeColor=#000000;" edge="1" parent="1" source="4qUuaVo3-OMq31uQhweF-56" target="4qUuaVo3-OMq31uQhweF-62">
          <mxGeometry relative="1" as="geometry" />
        </mxCell>
        <mxCell id="4qUuaVo3-OMq31uQhweF-56" value="4" style="ellipse;whiteSpace=wrap;html=1;aspect=fixed;fillColor=#f8cecc;gradientColor=#ea6b66;strokeColor=#b85450;" vertex="1" parent="1">
          <mxGeometry x="200" y="840" width="30" height="30" as="geometry" />
        </mxCell>
        <mxCell id="4qUuaVo3-OMq31uQhweF-57" value="5" style="ellipse;whiteSpace=wrap;html=1;aspect=fixed;fillColor=#d5e8d4;gradientColor=#97d077;strokeColor=#82b366;" vertex="1" parent="1">
          <mxGeometry x="240" y="800" width="30" height="30" as="geometry" />
        </mxCell>
        <mxCell id="4qUuaVo3-OMq31uQhweF-58" value="6" style="ellipse;whiteSpace=wrap;html=1;aspect=fixed;fillColor=#d5e8d4;gradientColor=#97d077;strokeColor=#82b366;" vertex="1" parent="1">
          <mxGeometry x="280" y="800" width="30" height="30" as="geometry" />
        </mxCell>
        <mxCell id="4qUuaVo3-OMq31uQhweF-59" value="7" style="ellipse;whiteSpace=wrap;html=1;aspect=fixed;fillColor=#d5e8d4;gradientColor=#97d077;strokeColor=#82b366;" vertex="1" parent="1">
          <mxGeometry x="320" y="800" width="30" height="30" as="geometry" />
        </mxCell>
        <mxCell id="4qUuaVo3-OMq31uQhweF-60" style="rounded=0;orthogonalLoop=1;jettySize=auto;html=1;exitX=0.5;exitY=0;exitDx=0;exitDy=0;entryX=0.5;entryY=1;entryDx=0;entryDy=0;endArrow=none;endFill=0;fillColor=#d5e8d4;gradientColor=#97d077;strokeColor=#000000;" edge="1" parent="1" source="4qUuaVo3-OMq31uQhweF-61" target="4qUuaVo3-OMq31uQhweF-49">
          <mxGeometry relative="1" as="geometry" />
        </mxCell>
        <mxCell id="4qUuaVo3-OMq31uQhweF-61" value="8" style="ellipse;whiteSpace=wrap;html=1;aspect=fixed;fillColor=#d5e8d4;gradientColor=#97d077;strokeColor=#82b366;" vertex="1" parent="1">
          <mxGeometry x="360" y="840" width="30" height="30" as="geometry" />
        </mxCell>
        <mxCell id="4qUuaVo3-OMq31uQhweF-62" value="9" style="ellipse;whiteSpace=wrap;html=1;aspect=fixed;fillColor=#f8cecc;gradientColor=#ea6b66;strokeColor=#b85450;" vertex="1" parent="1">
          <mxGeometry x="180" y="800" width="30" height="30" as="geometry" />
        </mxCell>
        <mxCell id="4qUuaVo3-OMq31uQhweF-63" value="0" style="ellipse;whiteSpace=wrap;html=1;aspect=fixed;fillColor=#d5e8d4;gradientColor=#97d077;strokeColor=#82b366;" vertex="1" parent="1">
          <mxGeometry x="720" y="120" width="30" height="30" as="geometry" />
        </mxCell>
        <mxCell id="4qUuaVo3-OMq31uQhweF-64" value="1" style="ellipse;whiteSpace=wrap;html=1;aspect=fixed;fillColor=#d5e8d4;gradientColor=#97d077;strokeColor=#82b366;" vertex="1" parent="1">
          <mxGeometry x="520" y="120" width="30" height="30" as="geometry" />
        </mxCell>
        <mxCell id="4qUuaVo3-OMq31uQhweF-65" style="rounded=0;orthogonalLoop=1;jettySize=auto;html=1;exitX=0.5;exitY=0;exitDx=0;exitDy=0;entryX=0;entryY=1;entryDx=0;entryDy=0;endArrow=none;endFill=0;fillColor=#d5e8d4;gradientColor=#97d077;strokeColor=#000000;" edge="1" parent="1" source="4qUuaVo3-OMq31uQhweF-66" target="4qUuaVo3-OMq31uQhweF-77">
          <mxGeometry relative="1" as="geometry" />
        </mxCell>
        <mxCell id="4qUuaVo3-OMq31uQhweF-66" value="2" style="ellipse;whiteSpace=wrap;html=1;aspect=fixed;fillColor=#d5e8d4;gradientColor=#97d077;strokeColor=#82b366;" vertex="1" parent="1">
          <mxGeometry x="560" y="160" width="30" height="30" as="geometry" />
        </mxCell>
        <mxCell id="4qUuaVo3-OMq31uQhweF-67" style="rounded=0;orthogonalLoop=1;jettySize=auto;html=1;exitX=0.5;exitY=0;exitDx=0;exitDy=0;entryX=0.5;entryY=1;entryDx=0;entryDy=0;endArrow=none;endFill=0;fillColor=#d5e8d4;gradientColor=#97d077;strokeColor=#000000;" edge="1" parent="1" source="4qUuaVo3-OMq31uQhweF-68" target="4qUuaVo3-OMq31uQhweF-70">
          <mxGeometry relative="1" as="geometry" />
        </mxCell>
        <mxCell id="4qUuaVo3-OMq31uQhweF-68" value="3" style="ellipse;whiteSpace=wrap;html=1;aspect=fixed;fillColor=#d5e8d4;gradientColor=#97d077;strokeColor=#82b366;" vertex="1" parent="1">
          <mxGeometry x="600" y="200" width="30" height="30" as="geometry" />
        </mxCell>
        <mxCell id="4qUuaVo3-OMq31uQhweF-69" style="rounded=0;orthogonalLoop=1;jettySize=auto;html=1;exitX=0.5;exitY=0;exitDx=0;exitDy=0;entryX=1;entryY=1;entryDx=0;entryDy=0;endArrow=none;endFill=0;fillColor=#d5e8d4;gradientColor=#97d077;strokeColor=#000000;" edge="1" parent="1" source="4qUuaVo3-OMq31uQhweF-70" target="4qUuaVo3-OMq31uQhweF-77">
          <mxGeometry relative="1" as="geometry" />
        </mxCell>
        <mxCell id="4qUuaVo3-OMq31uQhweF-70" value="4" style="ellipse;whiteSpace=wrap;html=1;aspect=fixed;fillColor=#d5e8d4;gradientColor=#97d077;strokeColor=#82b366;" vertex="1" parent="1">
          <mxGeometry x="600" y="160" width="30" height="30" as="geometry" />
        </mxCell>
        <mxCell id="4qUuaVo3-OMq31uQhweF-71" style="rounded=0;orthogonalLoop=1;jettySize=auto;html=1;exitX=0.5;exitY=0;exitDx=0;exitDy=0;entryX=0.5;entryY=1;entryDx=0;entryDy=0;endArrow=none;endFill=0;fillColor=#d5e8d4;gradientColor=#97d077;strokeColor=#000000;" edge="1" parent="1" source="4qUuaVo3-OMq31uQhweF-72" target="4qUuaVo3-OMq31uQhweF-73">
          <mxGeometry relative="1" as="geometry" />
        </mxCell>
        <mxCell id="4qUuaVo3-OMq31uQhweF-72" value="5" style="ellipse;whiteSpace=wrap;html=1;aspect=fixed;fillColor=#dae8fc;gradientColor=#7ea6e0;strokeColor=#6c8ebf;" vertex="1" parent="1">
          <mxGeometry x="640" y="160" width="30" height="30" as="geometry" />
        </mxCell>
        <mxCell id="4qUuaVo3-OMq31uQhweF-73" value="6" style="ellipse;whiteSpace=wrap;html=1;aspect=fixed;fillColor=#f8cecc;gradientColor=#ea6b66;strokeColor=#b85450;" vertex="1" parent="1">
          <mxGeometry x="640" y="120" width="30" height="30" as="geometry" />
        </mxCell>
        <mxCell id="4qUuaVo3-OMq31uQhweF-74" value="7" style="ellipse;whiteSpace=wrap;html=1;aspect=fixed;fillColor=#d5e8d4;gradientColor=#97d077;strokeColor=#82b366;" vertex="1" parent="1">
          <mxGeometry x="680" y="120" width="30" height="30" as="geometry" />
        </mxCell>
        <mxCell id="4qUuaVo3-OMq31uQhweF-75" style="rounded=0;orthogonalLoop=1;jettySize=auto;html=1;exitX=0.5;exitY=0;exitDx=0;exitDy=0;entryX=0.5;entryY=1;entryDx=0;entryDy=0;endArrow=none;endFill=0;fillColor=#d5e8d4;gradientColor=#97d077;strokeColor=#000000;" edge="1" parent="1" source="4qUuaVo3-OMq31uQhweF-76" target="4qUuaVo3-OMq31uQhweF-63">
          <mxGeometry relative="1" as="geometry" />
        </mxCell>
        <mxCell id="4qUuaVo3-OMq31uQhweF-76" value="8" style="ellipse;whiteSpace=wrap;html=1;aspect=fixed;fillColor=#d5e8d4;gradientColor=#97d077;strokeColor=#82b366;" vertex="1" parent="1">
          <mxGeometry x="720" y="160" width="30" height="30" as="geometry" />
        </mxCell>
        <mxCell id="4qUuaVo3-OMq31uQhweF-77" value="9" style="ellipse;whiteSpace=wrap;html=1;aspect=fixed;fillColor=#d5e8d4;gradientColor=#97d077;strokeColor=#82b366;" vertex="1" parent="1">
          <mxGeometry x="580" y="120" width="30" height="30" as="geometry" />
        </mxCell>
        <mxCell id="4qUuaVo3-OMq31uQhweF-78" value="0" style="ellipse;whiteSpace=wrap;html=1;aspect=fixed;fillColor=#d5e8d4;gradientColor=#97d077;strokeColor=#82b366;" vertex="1" parent="1">
          <mxGeometry x="720" y="280" width="30" height="30" as="geometry" />
        </mxCell>
        <mxCell id="4qUuaVo3-OMq31uQhweF-79" value="1" style="ellipse;whiteSpace=wrap;html=1;aspect=fixed;fillColor=#d5e8d4;gradientColor=#97d077;strokeColor=#82b366;" vertex="1" parent="1">
          <mxGeometry x="520" y="280" width="30" height="30" as="geometry" />
        </mxCell>
        <mxCell id="4qUuaVo3-OMq31uQhweF-80" style="rounded=0;orthogonalLoop=1;jettySize=auto;html=1;exitX=1;exitY=0;exitDx=0;exitDy=0;entryX=0;entryY=1;entryDx=0;entryDy=0;endArrow=none;endFill=0;fillColor=#d5e8d4;gradientColor=#97d077;strokeColor=#000000;" edge="1" parent="1" source="4qUuaVo3-OMq31uQhweF-81" target="4qUuaVo3-OMq31uQhweF-93">
          <mxGeometry relative="1" as="geometry" />
        </mxCell>
        <mxCell id="4qUuaVo3-OMq31uQhweF-81" value="2" style="ellipse;whiteSpace=wrap;html=1;aspect=fixed;fillColor=#d5e8d4;gradientColor=#97d077;strokeColor=#82b366;" vertex="1" parent="1">
          <mxGeometry x="560" y="320" width="30" height="30" as="geometry" />
        </mxCell>
        <mxCell id="4qUuaVo3-OMq31uQhweF-82" style="rounded=0;orthogonalLoop=1;jettySize=auto;html=1;exitX=0.5;exitY=0;exitDx=0;exitDy=0;entryX=0.5;entryY=1;entryDx=0;entryDy=0;endArrow=none;endFill=0;fillColor=#d5e8d4;gradientColor=#97d077;strokeColor=#000000;" edge="1" parent="1" source="4qUuaVo3-OMq31uQhweF-83" target="4qUuaVo3-OMq31uQhweF-86">
          <mxGeometry relative="1" as="geometry" />
        </mxCell>
        <mxCell id="4qUuaVo3-OMq31uQhweF-83" value="3" style="ellipse;whiteSpace=wrap;html=1;aspect=fixed;fillColor=#d5e8d4;gradientColor=#97d077;strokeColor=#82b366;" vertex="1" parent="1">
          <mxGeometry x="600" y="360" width="30" height="30" as="geometry" />
        </mxCell>
        <mxCell id="4qUuaVo3-OMq31uQhweF-84" style="rounded=0;orthogonalLoop=1;jettySize=auto;html=1;exitX=0;exitY=0;exitDx=0;exitDy=0;entryX=1;entryY=1;entryDx=0;entryDy=0;endArrow=none;endFill=0;fillColor=#d5e8d4;gradientColor=#97d077;strokeColor=#000000;" edge="1" parent="1" source="4qUuaVo3-OMq31uQhweF-89" target="4qUuaVo3-OMq31uQhweF-93">
          <mxGeometry relative="1" as="geometry" />
        </mxCell>
        <mxCell id="4qUuaVo3-OMq31uQhweF-85" style="rounded=0;orthogonalLoop=1;jettySize=auto;html=1;exitX=0.5;exitY=0;exitDx=0;exitDy=0;entryX=0.5;entryY=1;entryDx=0;entryDy=0;endArrow=none;endFill=0;fillColor=#d5e8d4;gradientColor=#97d077;strokeColor=#000000;" edge="1" parent="1" source="4qUuaVo3-OMq31uQhweF-86" target="4qUuaVo3-OMq31uQhweF-93">
          <mxGeometry relative="1" as="geometry" />
        </mxCell>
        <mxCell id="4qUuaVo3-OMq31uQhweF-86" value="4" style="ellipse;whiteSpace=wrap;html=1;aspect=fixed;fillColor=#d5e8d4;gradientColor=#97d077;strokeColor=#82b366;" vertex="1" parent="1">
          <mxGeometry x="600" y="320" width="30" height="30" as="geometry" />
        </mxCell>
        <mxCell id="4qUuaVo3-OMq31uQhweF-87" style="rounded=0;orthogonalLoop=1;jettySize=auto;html=1;exitX=0.5;exitY=0;exitDx=0;exitDy=0;entryX=0.5;entryY=1;entryDx=0;entryDy=0;endArrow=none;endFill=0;fillColor=#d5e8d4;gradientColor=#97d077;strokeColor=#000000;" edge="1" parent="1" source="4qUuaVo3-OMq31uQhweF-88" target="4qUuaVo3-OMq31uQhweF-89">
          <mxGeometry relative="1" as="geometry" />
        </mxCell>
        <mxCell id="4qUuaVo3-OMq31uQhweF-88" value="5" style="ellipse;whiteSpace=wrap;html=1;aspect=fixed;fillColor=#dae8fc;gradientColor=#7ea6e0;strokeColor=#6c8ebf;" vertex="1" parent="1">
          <mxGeometry x="640" y="360" width="30" height="30" as="geometry" />
        </mxCell>
        <mxCell id="4qUuaVo3-OMq31uQhweF-89" value="6" style="ellipse;whiteSpace=wrap;html=1;aspect=fixed;fillColor=#dae8fc;gradientColor=#7ea6e0;strokeColor=#6c8ebf;" vertex="1" parent="1">
          <mxGeometry x="640" y="320" width="30" height="30" as="geometry" />
        </mxCell>
        <mxCell id="4qUuaVo3-OMq31uQhweF-90" value="7" style="ellipse;whiteSpace=wrap;html=1;aspect=fixed;fillColor=#d5e8d4;gradientColor=#97d077;strokeColor=#82b366;" vertex="1" parent="1">
          <mxGeometry x="680" y="280" width="30" height="30" as="geometry" />
        </mxCell>
        <mxCell id="4qUuaVo3-OMq31uQhweF-91" style="rounded=0;orthogonalLoop=1;jettySize=auto;html=1;exitX=0.5;exitY=0;exitDx=0;exitDy=0;entryX=0.5;entryY=1;entryDx=0;entryDy=0;endArrow=none;endFill=0;fillColor=#d5e8d4;gradientColor=#97d077;strokeColor=#000000;" edge="1" parent="1" source="4qUuaVo3-OMq31uQhweF-92" target="4qUuaVo3-OMq31uQhweF-78">
          <mxGeometry relative="1" as="geometry" />
        </mxCell>
        <mxCell id="4qUuaVo3-OMq31uQhweF-92" value="8" style="ellipse;whiteSpace=wrap;html=1;aspect=fixed;fillColor=#d5e8d4;gradientColor=#97d077;strokeColor=#82b366;" vertex="1" parent="1">
          <mxGeometry x="720" y="320" width="30" height="30" as="geometry" />
        </mxCell>
        <mxCell id="4qUuaVo3-OMq31uQhweF-93" value="9" style="ellipse;whiteSpace=wrap;html=1;aspect=fixed;fillColor=#f8cecc;gradientColor=#ea6b66;strokeColor=#b85450;" vertex="1" parent="1">
          <mxGeometry x="600" y="280" width="30" height="30" as="geometry" />
        </mxCell>
        <mxCell id="4qUuaVo3-OMq31uQhweF-94" value="0" style="ellipse;whiteSpace=wrap;html=1;aspect=fixed;fillColor=#d5e8d4;gradientColor=#97d077;strokeColor=#82b366;" vertex="1" parent="1">
          <mxGeometry x="720" y="440" width="30" height="30" as="geometry" />
        </mxCell>
        <mxCell id="4qUuaVo3-OMq31uQhweF-95" value="1" style="ellipse;whiteSpace=wrap;html=1;aspect=fixed;fillColor=#d5e8d4;gradientColor=#97d077;strokeColor=#82b366;" vertex="1" parent="1">
          <mxGeometry x="520" y="440" width="30" height="30" as="geometry" />
        </mxCell>
        <mxCell id="4qUuaVo3-OMq31uQhweF-96" style="rounded=0;orthogonalLoop=1;jettySize=auto;html=1;exitX=1;exitY=0;exitDx=0;exitDy=0;entryX=0;entryY=1;entryDx=0;entryDy=0;endArrow=none;endFill=0;fillColor=#d5e8d4;gradientColor=#97d077;strokeColor=#000000;" edge="1" parent="1" source="4qUuaVo3-OMq31uQhweF-97" target="4qUuaVo3-OMq31uQhweF-109">
          <mxGeometry relative="1" as="geometry" />
        </mxCell>
        <mxCell id="4qUuaVo3-OMq31uQhweF-97" value="2" style="ellipse;whiteSpace=wrap;html=1;aspect=fixed;fillColor=#d5e8d4;gradientColor=#97d077;strokeColor=#82b366;" vertex="1" parent="1">
          <mxGeometry x="560" y="480" width="30" height="30" as="geometry" />
        </mxCell>
        <mxCell id="4qUuaVo3-OMq31uQhweF-98" style="rounded=0;orthogonalLoop=1;jettySize=auto;html=1;exitX=0.5;exitY=0;exitDx=0;exitDy=0;entryX=0.5;entryY=1;entryDx=0;entryDy=0;endArrow=none;endFill=0;fillColor=#d5e8d4;gradientColor=#97d077;strokeColor=#000000;" edge="1" parent="1" source="4qUuaVo3-OMq31uQhweF-99" target="4qUuaVo3-OMq31uQhweF-102">
          <mxGeometry relative="1" as="geometry" />
        </mxCell>
        <mxCell id="4qUuaVo3-OMq31uQhweF-99" value="3" style="ellipse;whiteSpace=wrap;html=1;aspect=fixed;fillColor=#f8cecc;gradientColor=#ea6b66;strokeColor=#b85450;" vertex="1" parent="1">
          <mxGeometry x="600" y="520" width="30" height="30" as="geometry" />
        </mxCell>
        <mxCell id="4qUuaVo3-OMq31uQhweF-100" style="rounded=0;orthogonalLoop=1;jettySize=auto;html=1;exitX=0.5;exitY=0;exitDx=0;exitDy=0;entryX=0.698;entryY=0.965;entryDx=0;entryDy=0;entryPerimeter=0;endArrow=none;endFill=0;fillColor=#d5e8d4;gradientColor=#97d077;strokeColor=#000000;" edge="1" parent="1" source="4qUuaVo3-OMq31uQhweF-105" target="4qUuaVo3-OMq31uQhweF-109">
          <mxGeometry relative="1" as="geometry" />
        </mxCell>
        <mxCell id="4qUuaVo3-OMq31uQhweF-101" style="rounded=0;orthogonalLoop=1;jettySize=auto;html=1;exitX=0.5;exitY=0;exitDx=0;exitDy=0;entryX=0.305;entryY=0.97;entryDx=0;entryDy=0;entryPerimeter=0;endArrow=none;endFill=0;fillColor=#d5e8d4;gradientColor=#97d077;strokeColor=#000000;" edge="1" parent="1" source="4qUuaVo3-OMq31uQhweF-102" target="4qUuaVo3-OMq31uQhweF-109">
          <mxGeometry relative="1" as="geometry" />
        </mxCell>
        <mxCell id="4qUuaVo3-OMq31uQhweF-102" value="4" style="ellipse;whiteSpace=wrap;html=1;aspect=fixed;fillColor=#f8cecc;gradientColor=#ea6b66;strokeColor=#b85450;" vertex="1" parent="1">
          <mxGeometry x="600" y="480" width="30" height="30" as="geometry" />
        </mxCell>
        <mxCell id="4qUuaVo3-OMq31uQhweF-103" style="rounded=0;orthogonalLoop=1;jettySize=auto;html=1;exitX=0.5;exitY=0;exitDx=0;exitDy=0;entryX=0.5;entryY=1;entryDx=0;entryDy=0;endArrow=none;endFill=0;fillColor=#d5e8d4;gradientColor=#97d077;strokeColor=#000000;" edge="1" parent="1" source="4qUuaVo3-OMq31uQhweF-104" target="4qUuaVo3-OMq31uQhweF-105">
          <mxGeometry relative="1" as="geometry" />
        </mxCell>
        <mxCell id="4qUuaVo3-OMq31uQhweF-104" value="5" style="ellipse;whiteSpace=wrap;html=1;aspect=fixed;fillColor=#d5e8d4;gradientColor=#97d077;strokeColor=#82b366;" vertex="1" parent="1">
          <mxGeometry x="640" y="520" width="30" height="30" as="geometry" />
        </mxCell>
        <mxCell id="4qUuaVo3-OMq31uQhweF-105" value="6" style="ellipse;whiteSpace=wrap;html=1;aspect=fixed;fillColor=#d5e8d4;gradientColor=#97d077;strokeColor=#82b366;" vertex="1" parent="1">
          <mxGeometry x="640" y="480" width="30" height="30" as="geometry" />
        </mxCell>
        <mxCell id="4qUuaVo3-OMq31uQhweF-106" value="7" style="ellipse;whiteSpace=wrap;html=1;aspect=fixed;fillColor=#dae8fc;gradientColor=#7ea6e0;strokeColor=#6c8ebf;" vertex="1" parent="1">
          <mxGeometry x="680" y="480" width="30" height="30" as="geometry" />
        </mxCell>
        <mxCell id="4qUuaVo3-OMq31uQhweF-107" style="rounded=0;orthogonalLoop=1;jettySize=auto;html=1;exitX=0.5;exitY=0;exitDx=0;exitDy=0;entryX=0.5;entryY=1;entryDx=0;entryDy=0;endArrow=none;endFill=0;fillColor=#d5e8d4;gradientColor=#97d077;strokeColor=#000000;" edge="1" parent="1" source="4qUuaVo3-OMq31uQhweF-108" target="4qUuaVo3-OMq31uQhweF-94">
          <mxGeometry relative="1" as="geometry" />
        </mxCell>
        <mxCell id="4qUuaVo3-OMq31uQhweF-108" value="8" style="ellipse;whiteSpace=wrap;html=1;aspect=fixed;fillColor=#d5e8d4;gradientColor=#97d077;strokeColor=#82b366;" vertex="1" parent="1">
          <mxGeometry x="720" y="480" width="30" height="30" as="geometry" />
        </mxCell>
        <mxCell id="4qUuaVo3-OMq31uQhweF-109" value="9" style="ellipse;whiteSpace=wrap;html=1;aspect=fixed;fillColor=#f8cecc;gradientColor=#ea6b66;strokeColor=#b85450;" vertex="1" parent="1">
          <mxGeometry x="620" y="440" width="30" height="30" as="geometry" />
        </mxCell>
        <mxCell id="4qUuaVo3-OMq31uQhweF-110" style="rounded=0;orthogonalLoop=1;jettySize=auto;html=1;exitX=0;exitY=0;exitDx=0;exitDy=0;entryX=1;entryY=1;entryDx=0;entryDy=0;endArrow=none;endFill=0;fillColor=#d5e8d4;gradientColor=#97d077;strokeColor=#000000;" edge="1" parent="1" source="4qUuaVo3-OMq31uQhweF-106" target="4qUuaVo3-OMq31uQhweF-109">
          <mxGeometry relative="1" as="geometry" />
        </mxCell>
        <mxCell id="4qUuaVo3-OMq31uQhweF-111" value="0" style="ellipse;whiteSpace=wrap;html=1;aspect=fixed;fillColor=#f8cecc;gradientColor=#ea6b66;strokeColor=#b85450;" vertex="1" parent="1">
          <mxGeometry x="700" y="600" width="30" height="30" as="geometry" />
        </mxCell>
        <mxCell id="4qUuaVo3-OMq31uQhweF-112" value="1" style="ellipse;whiteSpace=wrap;html=1;aspect=fixed;fillColor=#d5e8d4;gradientColor=#97d077;strokeColor=#82b366;" vertex="1" parent="1">
          <mxGeometry x="520" y="600" width="30" height="30" as="geometry" />
        </mxCell>
        <mxCell id="4qUuaVo3-OMq31uQhweF-113" style="rounded=0;orthogonalLoop=1;jettySize=auto;html=1;exitX=1;exitY=0;exitDx=0;exitDy=0;entryX=0;entryY=1;entryDx=0;entryDy=0;endArrow=none;endFill=0;fillColor=#d5e8d4;gradientColor=#97d077;strokeColor=#000000;" edge="1" parent="1" source="4qUuaVo3-OMq31uQhweF-114" target="4qUuaVo3-OMq31uQhweF-127">
          <mxGeometry relative="1" as="geometry" />
        </mxCell>
        <mxCell id="4qUuaVo3-OMq31uQhweF-114" value="2" style="ellipse;whiteSpace=wrap;html=1;aspect=fixed;fillColor=#d5e8d4;gradientColor=#97d077;strokeColor=#82b366;" vertex="1" parent="1">
          <mxGeometry x="560" y="680" width="30" height="30" as="geometry" />
        </mxCell>
        <mxCell id="4qUuaVo3-OMq31uQhweF-115" style="rounded=0;orthogonalLoop=1;jettySize=auto;html=1;exitX=0.5;exitY=0;exitDx=0;exitDy=0;entryX=0.5;entryY=1;entryDx=0;entryDy=0;endArrow=none;endFill=0;fillColor=#d5e8d4;gradientColor=#97d077;strokeColor=#000000;" edge="1" parent="1" source="4qUuaVo3-OMq31uQhweF-116" target="4qUuaVo3-OMq31uQhweF-119">
          <mxGeometry relative="1" as="geometry" />
        </mxCell>
        <mxCell id="4qUuaVo3-OMq31uQhweF-116" value="3" style="ellipse;whiteSpace=wrap;html=1;aspect=fixed;fillColor=#d5e8d4;gradientColor=#97d077;strokeColor=#82b366;" vertex="1" parent="1">
          <mxGeometry x="600" y="720" width="30" height="30" as="geometry" />
        </mxCell>
        <mxCell id="4qUuaVo3-OMq31uQhweF-117" style="rounded=0;orthogonalLoop=1;jettySize=auto;html=1;exitX=0.5;exitY=0;exitDx=0;exitDy=0;entryX=0.698;entryY=0.965;entryDx=0;entryDy=0;entryPerimeter=0;endArrow=none;endFill=0;fillColor=#d5e8d4;gradientColor=#97d077;strokeColor=#000000;" edge="1" parent="1" source="4qUuaVo3-OMq31uQhweF-122" target="4qUuaVo3-OMq31uQhweF-127">
          <mxGeometry relative="1" as="geometry" />
        </mxCell>
        <mxCell id="4qUuaVo3-OMq31uQhweF-118" style="rounded=0;orthogonalLoop=1;jettySize=auto;html=1;exitX=0.5;exitY=0;exitDx=0;exitDy=0;entryX=0.305;entryY=0.97;entryDx=0;entryDy=0;entryPerimeter=0;endArrow=none;endFill=0;fillColor=#d5e8d4;gradientColor=#97d077;strokeColor=#000000;" edge="1" parent="1" source="4qUuaVo3-OMq31uQhweF-119" target="4qUuaVo3-OMq31uQhweF-127">
          <mxGeometry relative="1" as="geometry" />
        </mxCell>
        <mxCell id="4qUuaVo3-OMq31uQhweF-119" value="4" style="ellipse;whiteSpace=wrap;html=1;aspect=fixed;fillColor=#dae8fc;gradientColor=#7ea6e0;strokeColor=#6c8ebf;" vertex="1" parent="1">
          <mxGeometry x="600" y="680" width="30" height="30" as="geometry" />
        </mxCell>
        <mxCell id="4qUuaVo3-OMq31uQhweF-120" style="rounded=0;orthogonalLoop=1;jettySize=auto;html=1;exitX=0.5;exitY=0;exitDx=0;exitDy=0;entryX=0.5;entryY=1;entryDx=0;entryDy=0;endArrow=none;endFill=0;fillColor=#d5e8d4;gradientColor=#97d077;strokeColor=#000000;" edge="1" parent="1" source="4qUuaVo3-OMq31uQhweF-121" target="4qUuaVo3-OMq31uQhweF-122">
          <mxGeometry relative="1" as="geometry" />
        </mxCell>
        <mxCell id="4qUuaVo3-OMq31uQhweF-121" value="5" style="ellipse;whiteSpace=wrap;html=1;aspect=fixed;fillColor=#d5e8d4;gradientColor=#97d077;strokeColor=#82b366;" vertex="1" parent="1">
          <mxGeometry x="640" y="720" width="30" height="30" as="geometry" />
        </mxCell>
        <mxCell id="4qUuaVo3-OMq31uQhweF-122" value="6" style="ellipse;whiteSpace=wrap;html=1;aspect=fixed;fillColor=#d5e8d4;gradientColor=#97d077;strokeColor=#82b366;" vertex="1" parent="1">
          <mxGeometry x="640" y="680" width="30" height="30" as="geometry" />
        </mxCell>
        <mxCell id="4qUuaVo3-OMq31uQhweF-123" value="7" style="ellipse;whiteSpace=wrap;html=1;aspect=fixed;fillColor=#d5e8d4;gradientColor=#97d077;strokeColor=#82b366;" vertex="1" parent="1">
          <mxGeometry x="680" y="680" width="30" height="30" as="geometry" />
        </mxCell>
        <mxCell id="4qUuaVo3-OMq31uQhweF-124" style="rounded=0;orthogonalLoop=1;jettySize=auto;html=1;exitX=0.313;exitY=0.042;exitDx=0;exitDy=0;entryX=0.762;entryY=0.94;entryDx=0;entryDy=0;endArrow=none;endFill=0;exitPerimeter=0;entryPerimeter=0;fillColor=#d5e8d4;gradientColor=#97d077;strokeColor=#000000;" edge="1" parent="1" source="4qUuaVo3-OMq31uQhweF-125" target="4qUuaVo3-OMq31uQhweF-111">
          <mxGeometry relative="1" as="geometry" />
        </mxCell>
        <mxCell id="4qUuaVo3-OMq31uQhweF-125" value="8" style="ellipse;whiteSpace=wrap;html=1;aspect=fixed;fillColor=#f8cecc;gradientColor=#ea6b66;strokeColor=#b85450;" vertex="1" parent="1">
          <mxGeometry x="720" y="640" width="30" height="30" as="geometry" />
        </mxCell>
        <mxCell id="4qUuaVo3-OMq31uQhweF-126" style="rounded=0;orthogonalLoop=1;jettySize=auto;html=1;exitX=0.947;exitY=0.286;exitDx=0;exitDy=0;entryX=0.018;entryY=0.651;entryDx=0;entryDy=0;endArrow=none;endFill=0;entryPerimeter=0;exitPerimeter=0;fillColor=#d5e8d4;gradientColor=#97d077;strokeColor=#000000;" edge="1" parent="1" source="4qUuaVo3-OMq31uQhweF-127" target="4qUuaVo3-OMq31uQhweF-111">
          <mxGeometry relative="1" as="geometry" />
        </mxCell>
        <mxCell id="4qUuaVo3-OMq31uQhweF-127" value="9" style="ellipse;whiteSpace=wrap;html=1;aspect=fixed;fillColor=#dae8fc;gradientColor=#7ea6e0;strokeColor=#6c8ebf;" vertex="1" parent="1">
          <mxGeometry x="620" y="640" width="30" height="30" as="geometry" />
        </mxCell>
        <mxCell id="4qUuaVo3-OMq31uQhweF-128" style="rounded=0;orthogonalLoop=1;jettySize=auto;html=1;exitX=0;exitY=0;exitDx=0;exitDy=0;entryX=1;entryY=1;entryDx=0;entryDy=0;endArrow=none;endFill=0;fillColor=#d5e8d4;gradientColor=#97d077;strokeColor=#000000;" edge="1" parent="1" source="4qUuaVo3-OMq31uQhweF-123" target="4qUuaVo3-OMq31uQhweF-127">
          <mxGeometry relative="1" as="geometry" />
        </mxCell>
        <mxCell id="4qUuaVo3-OMq31uQhweF-129" style="rounded=0;orthogonalLoop=1;jettySize=auto;html=1;exitX=0.693;exitY=0.033;exitDx=0;exitDy=0;entryX=0.272;entryY=0.952;entryDx=0;entryDy=0;endArrow=none;endFill=0;exitPerimeter=0;entryPerimeter=0;fillColor=#d5e8d4;gradientColor=#97d077;strokeColor=#000000;" edge="1" parent="1" source="4qUuaVo3-OMq31uQhweF-130" target="4qUuaVo3-OMq31uQhweF-131">
          <mxGeometry relative="1" as="geometry" />
        </mxCell>
        <mxCell id="4qUuaVo3-OMq31uQhweF-130" value="0" style="ellipse;whiteSpace=wrap;html=1;aspect=fixed;fillColor=#dae8fc;gradientColor=#7ea6e0;strokeColor=#6c8ebf;" vertex="1" parent="1">
          <mxGeometry x="700" y="840" width="30" height="30" as="geometry" />
        </mxCell>
        <mxCell id="4qUuaVo3-OMq31uQhweF-131" value="1" style="ellipse;whiteSpace=wrap;html=1;aspect=fixed;fillColor=#f8cecc;gradientColor=#ea6b66;strokeColor=#b85450;" vertex="1" parent="1">
          <mxGeometry x="720" y="800" width="30" height="30" as="geometry" />
        </mxCell>
        <mxCell id="4qUuaVo3-OMq31uQhweF-132" style="rounded=0;orthogonalLoop=1;jettySize=auto;html=1;exitX=1;exitY=0;exitDx=0;exitDy=0;entryX=0;entryY=1;entryDx=0;entryDy=0;endArrow=none;endFill=0;fillColor=#d5e8d4;gradientColor=#97d077;strokeColor=#000000;" edge="1" parent="1" source="4qUuaVo3-OMq31uQhweF-133" target="4qUuaVo3-OMq31uQhweF-146">
          <mxGeometry relative="1" as="geometry" />
        </mxCell>
        <mxCell id="4qUuaVo3-OMq31uQhweF-133" value="2" style="ellipse;whiteSpace=wrap;html=1;aspect=fixed;fillColor=#d5e8d4;gradientColor=#97d077;strokeColor=#82b366;" vertex="1" parent="1">
          <mxGeometry x="560" y="920" width="30" height="30" as="geometry" />
        </mxCell>
        <mxCell id="4qUuaVo3-OMq31uQhweF-134" style="rounded=0;orthogonalLoop=1;jettySize=auto;html=1;exitX=0.5;exitY=0;exitDx=0;exitDy=0;entryX=0.5;entryY=1;entryDx=0;entryDy=0;endArrow=none;endFill=0;fillColor=#d5e8d4;gradientColor=#97d077;strokeColor=#000000;" edge="1" parent="1" source="4qUuaVo3-OMq31uQhweF-135" target="4qUuaVo3-OMq31uQhweF-138">
          <mxGeometry relative="1" as="geometry" />
        </mxCell>
        <mxCell id="4qUuaVo3-OMq31uQhweF-135" value="3" style="ellipse;whiteSpace=wrap;html=1;aspect=fixed;fillColor=#d5e8d4;gradientColor=#97d077;strokeColor=#82b366;" vertex="1" parent="1">
          <mxGeometry x="600" y="960" width="30" height="30" as="geometry" />
        </mxCell>
        <mxCell id="4qUuaVo3-OMq31uQhweF-136" style="rounded=0;orthogonalLoop=1;jettySize=auto;html=1;exitX=0.5;exitY=0;exitDx=0;exitDy=0;entryX=0.698;entryY=0.965;entryDx=0;entryDy=0;entryPerimeter=0;endArrow=none;endFill=0;fillColor=#d5e8d4;gradientColor=#97d077;strokeColor=#000000;" edge="1" parent="1" source="4qUuaVo3-OMq31uQhweF-141" target="4qUuaVo3-OMq31uQhweF-146">
          <mxGeometry relative="1" as="geometry" />
        </mxCell>
        <mxCell id="4qUuaVo3-OMq31uQhweF-137" style="rounded=0;orthogonalLoop=1;jettySize=auto;html=1;exitX=0.5;exitY=0;exitDx=0;exitDy=0;entryX=0.305;entryY=0.97;entryDx=0;entryDy=0;entryPerimeter=0;endArrow=none;endFill=0;fillColor=#d5e8d4;gradientColor=#97d077;strokeColor=#000000;" edge="1" parent="1" source="4qUuaVo3-OMq31uQhweF-138" target="4qUuaVo3-OMq31uQhweF-146">
          <mxGeometry relative="1" as="geometry" />
        </mxCell>
        <mxCell id="4qUuaVo3-OMq31uQhweF-138" value="4" style="ellipse;whiteSpace=wrap;html=1;aspect=fixed;fillColor=#d5e8d4;gradientColor=#97d077;strokeColor=#82b366;" vertex="1" parent="1">
          <mxGeometry x="600" y="920" width="30" height="30" as="geometry" />
        </mxCell>
        <mxCell id="4qUuaVo3-OMq31uQhweF-139" style="rounded=0;orthogonalLoop=1;jettySize=auto;html=1;exitX=0.5;exitY=0;exitDx=0;exitDy=0;entryX=0.5;entryY=1;entryDx=0;entryDy=0;endArrow=none;endFill=0;fillColor=#d5e8d4;gradientColor=#97d077;strokeColor=#000000;" edge="1" parent="1" source="4qUuaVo3-OMq31uQhweF-140" target="4qUuaVo3-OMq31uQhweF-141">
          <mxGeometry relative="1" as="geometry" />
        </mxCell>
        <mxCell id="4qUuaVo3-OMq31uQhweF-140" value="5" style="ellipse;whiteSpace=wrap;html=1;aspect=fixed;fillColor=#d5e8d4;gradientColor=#97d077;strokeColor=#82b366;" vertex="1" parent="1">
          <mxGeometry x="640" y="960" width="30" height="30" as="geometry" />
        </mxCell>
        <mxCell id="4qUuaVo3-OMq31uQhweF-141" value="6" style="ellipse;whiteSpace=wrap;html=1;aspect=fixed;fillColor=#dae8fc;gradientColor=#7ea6e0;strokeColor=#6c8ebf;" vertex="1" parent="1">
          <mxGeometry x="640" y="920" width="30" height="30" as="geometry" />
        </mxCell>
        <mxCell id="4qUuaVo3-OMq31uQhweF-142" value="7" style="ellipse;whiteSpace=wrap;html=1;aspect=fixed;fillColor=#d5e8d4;gradientColor=#97d077;strokeColor=#82b366;" vertex="1" parent="1">
          <mxGeometry x="680" y="920" width="30" height="30" as="geometry" />
        </mxCell>
        <mxCell id="4qUuaVo3-OMq31uQhweF-143" style="rounded=0;orthogonalLoop=1;jettySize=auto;html=1;exitX=0.3;exitY=0.055;exitDx=0;exitDy=0;entryX=0.749;entryY=0.953;entryDx=0;entryDy=0;endArrow=none;endFill=0;exitPerimeter=0;entryPerimeter=0;fillColor=#d5e8d4;gradientColor=#97d077;strokeColor=#000000;" edge="1" parent="1" source="4qUuaVo3-OMq31uQhweF-144" target="4qUuaVo3-OMq31uQhweF-130">
          <mxGeometry relative="1" as="geometry" />
        </mxCell>
        <mxCell id="4qUuaVo3-OMq31uQhweF-144" value="8" style="ellipse;whiteSpace=wrap;html=1;aspect=fixed;fillColor=#d5e8d4;gradientColor=#97d077;strokeColor=#82b366;" vertex="1" parent="1">
          <mxGeometry x="720" y="880" width="30" height="30" as="geometry" />
        </mxCell>
        <mxCell id="4qUuaVo3-OMq31uQhweF-145" style="rounded=0;orthogonalLoop=1;jettySize=auto;html=1;exitX=0.946;exitY=0.263;exitDx=0;exitDy=0;entryX=0.004;entryY=0.661;entryDx=0;entryDy=0;endArrow=none;endFill=0;entryPerimeter=0;exitPerimeter=0;fillColor=#d5e8d4;gradientColor=#97d077;strokeColor=#000000;" edge="1" parent="1" source="4qUuaVo3-OMq31uQhweF-146" target="4qUuaVo3-OMq31uQhweF-130">
          <mxGeometry relative="1" as="geometry" />
        </mxCell>
        <mxCell id="4qUuaVo3-OMq31uQhweF-146" value="9" style="ellipse;whiteSpace=wrap;html=1;aspect=fixed;fillColor=#dae8fc;gradientColor=#7ea6e0;strokeColor=#6c8ebf;" vertex="1" parent="1">
          <mxGeometry x="620" y="880" width="30" height="30" as="geometry" />
        </mxCell>
        <mxCell id="4qUuaVo3-OMq31uQhweF-147" style="rounded=0;orthogonalLoop=1;jettySize=auto;html=1;exitX=0;exitY=0;exitDx=0;exitDy=0;entryX=1;entryY=1;entryDx=0;entryDy=0;endArrow=none;endFill=0;fillColor=#d5e8d4;gradientColor=#97d077;strokeColor=#000000;" edge="1" parent="1" source="4qUuaVo3-OMq31uQhweF-142" target="4qUuaVo3-OMq31uQhweF-146">
          <mxGeometry relative="1" as="geometry" />
        </mxCell>
        <mxCell id="4qUuaVo3-OMq31uQhweF-148" value="" style="endArrow=none;html=1;rounded=0;" edge="1" parent="1">
          <mxGeometry width="50" height="50" relative="1" as="geometry">
            <mxPoint x="458" y="1000" as="sourcePoint" />
            <mxPoint x="458" y="80" as="targetPoint" />
          </mxGeometry>
        </mxCell>
        <mxCell id="4qUuaVo3-OMq31uQhweF-150" value="" style="endArrow=none;html=1;rounded=0;" edge="1" parent="1">
          <mxGeometry width="50" height="50" relative="1" as="geometry">
            <mxPoint x="40" y="240" as="sourcePoint" />
            <mxPoint x="760" y="240" as="targetPoint" />
          </mxGeometry>
        </mxCell>
        <mxCell id="4qUuaVo3-OMq31uQhweF-151" value="" style="endArrow=none;html=1;rounded=0;" edge="1" parent="1">
          <mxGeometry width="50" height="50" relative="1" as="geometry">
            <mxPoint x="40" y="410" as="sourcePoint" />
            <mxPoint x="760" y="410" as="targetPoint" />
          </mxGeometry>
        </mxCell>
        <mxCell id="4qUuaVo3-OMq31uQhweF-152" value="" style="endArrow=none;html=1;rounded=0;" edge="1" parent="1">
          <mxGeometry width="50" height="50" relative="1" as="geometry">
            <mxPoint x="40" y="570" as="sourcePoint" />
            <mxPoint x="760" y="570" as="targetPoint" />
          </mxGeometry>
        </mxCell>
        <mxCell id="4qUuaVo3-OMq31uQhweF-153" value="" style="endArrow=none;html=1;rounded=0;" edge="1" parent="1">
          <mxGeometry width="50" height="50" relative="1" as="geometry">
            <mxPoint x="40" y="760" as="sourcePoint" />
            <mxPoint x="760" y="760" as="targetPoint" />
          </mxGeometry>
        </mxCell>
        <mxCell id="4qUuaVo3-OMq31uQhweF-154" value="&lt;b&gt;1&lt;/b&gt;.&amp;nbsp; &amp;nbsp;3 - 4" style="text;html=1;align=left;verticalAlign=middle;whiteSpace=wrap;rounded=0;" vertex="1" parent="1">
          <mxGeometry x="50" y="240" width="60" height="30" as="geometry" />
        </mxCell>
        <mxCell id="4qUuaVo3-OMq31uQhweF-155" value="&lt;b&gt;3&lt;/b&gt;.&amp;nbsp; &amp;nbsp;8 - 0" style="text;html=1;align=left;verticalAlign=middle;whiteSpace=wrap;rounded=0;" vertex="1" parent="1">
          <mxGeometry x="50" y="570" width="60" height="30" as="geometry" />
        </mxCell>
        <mxCell id="4qUuaVo3-OMq31uQhweF-156" value="&lt;b&gt;4&lt;/b&gt;.&amp;nbsp; &amp;nbsp;2 - 3" style="text;html=1;align=left;verticalAlign=middle;whiteSpace=wrap;rounded=0;" vertex="1" parent="1">
          <mxGeometry x="50" y="760" width="60" height="30" as="geometry" />
        </mxCell>
        <mxCell id="4qUuaVo3-OMq31uQhweF-157" value="&lt;b&gt;5&lt;/b&gt;.&amp;nbsp; &amp;nbsp;5 - 6" style="text;html=1;align=left;verticalAlign=middle;whiteSpace=wrap;rounded=0;" vertex="1" parent="1">
          <mxGeometry x="470" y="80" width="60" height="30" as="geometry" />
        </mxCell>
        <mxCell id="4qUuaVo3-OMq31uQhweF-158" value="&lt;b&gt;6&lt;/b&gt;.&amp;nbsp; &amp;nbsp;5 - 9" style="text;html=1;align=left;verticalAlign=middle;whiteSpace=wrap;rounded=0;" vertex="1" parent="1">
          <mxGeometry x="470" y="240" width="60" height="30" as="geometry" />
        </mxCell>
        <mxCell id="4qUuaVo3-OMq31uQhweF-159" value="&lt;b&gt;7&lt;/b&gt;.&amp;nbsp; &amp;nbsp;7 - 3" style="text;html=1;align=left;verticalAlign=middle;whiteSpace=wrap;rounded=0;" vertex="1" parent="1">
          <mxGeometry x="470" y="410" width="60" height="30" as="geometry" />
        </mxCell>
        <mxCell id="4qUuaVo3-OMq31uQhweF-160" value="&lt;b&gt;2&lt;/b&gt;.&amp;nbsp; &amp;nbsp;4 - 9" style="text;html=1;align=left;verticalAlign=middle;whiteSpace=wrap;rounded=0;" vertex="1" parent="1">
          <mxGeometry x="50" y="410" width="60" height="30" as="geometry" />
        </mxCell>
        <mxCell id="4qUuaVo3-OMq31uQhweF-161" value="&lt;b&gt;8&lt;/b&gt;.&amp;nbsp; &amp;nbsp;4 - 8" style="text;html=1;align=left;verticalAlign=middle;whiteSpace=wrap;rounded=0;" vertex="1" parent="1">
          <mxGeometry x="470" y="570" width="60" height="30" as="geometry" />
        </mxCell>
        <mxCell id="4qUuaVo3-OMq31uQhweF-162" value="&lt;b&gt;9&lt;/b&gt;.&amp;nbsp; &amp;nbsp;6 - 1" style="text;html=1;align=left;verticalAlign=middle;whiteSpace=wrap;rounded=0;" vertex="1" parent="1">
          <mxGeometry x="470" y="760" width="60" height="30" as="geometry" />
        </mxCell>
      </root>
    </mxGraphModel>
  </diagram>
  <diagram id="0sXvZUGvmx4iDTii-7Pw" name="tree3">
    <mxGraphModel dx="989" dy="546" grid="1" gridSize="10" guides="1" tooltips="1" connect="1" arrows="1" fold="1" page="1" pageScale="1" pageWidth="827" pageHeight="1169" math="0" shadow="0">
      <root>
        <mxCell id="0" />
        <mxCell id="1" parent="0" />
        <mxCell id="IVdIqDJ8NsYQqN5aop3I-1" value="0" style="ellipse;whiteSpace=wrap;html=1;aspect=fixed;fillColor=#d5e8d4;strokeColor=#82b366;gradientColor=#97d077;" parent="1" vertex="1">
          <mxGeometry x="40" y="120" width="30" height="30" as="geometry" />
        </mxCell>
        <mxCell id="IVdIqDJ8NsYQqN5aop3I-2" value="1" style="ellipse;whiteSpace=wrap;html=1;aspect=fixed;fillColor=#d5e8d4;strokeColor=#82b366;gradientColor=#97d077;" parent="1" vertex="1">
          <mxGeometry x="80" y="120" width="30" height="30" as="geometry" />
        </mxCell>
        <mxCell id="IVdIqDJ8NsYQqN5aop3I-3" value="2" style="ellipse;whiteSpace=wrap;html=1;aspect=fixed;fillColor=#d5e8d4;strokeColor=#82b366;gradientColor=#97d077;" parent="1" vertex="1">
          <mxGeometry x="120" y="120" width="30" height="30" as="geometry" />
        </mxCell>
        <mxCell id="IVdIqDJ8NsYQqN5aop3I-4" value="3" style="ellipse;whiteSpace=wrap;html=1;aspect=fixed;fillColor=#d5e8d4;strokeColor=#82b366;gradientColor=#97d077;" parent="1" vertex="1">
          <mxGeometry x="160" y="120" width="30" height="30" as="geometry" />
        </mxCell>
        <mxCell id="IVdIqDJ8NsYQqN5aop3I-5" value="4" style="ellipse;whiteSpace=wrap;html=1;aspect=fixed;fillColor=#d5e8d4;strokeColor=#82b366;gradientColor=#97d077;" parent="1" vertex="1">
          <mxGeometry x="200" y="120" width="30" height="30" as="geometry" />
        </mxCell>
        <mxCell id="IVdIqDJ8NsYQqN5aop3I-6" value="5" style="ellipse;whiteSpace=wrap;html=1;aspect=fixed;fillColor=#d5e8d4;strokeColor=#82b366;gradientColor=#97d077;" parent="1" vertex="1">
          <mxGeometry x="240" y="120" width="30" height="30" as="geometry" />
        </mxCell>
        <mxCell id="IVdIqDJ8NsYQqN5aop3I-7" value="6" style="ellipse;whiteSpace=wrap;html=1;aspect=fixed;fillColor=#d5e8d4;strokeColor=#82b366;gradientColor=#97d077;" parent="1" vertex="1">
          <mxGeometry x="280" y="120" width="30" height="30" as="geometry" />
        </mxCell>
        <mxCell id="IVdIqDJ8NsYQqN5aop3I-8" value="7" style="ellipse;whiteSpace=wrap;html=1;aspect=fixed;fillColor=#d5e8d4;strokeColor=#82b366;gradientColor=#97d077;" parent="1" vertex="1">
          <mxGeometry x="320" y="120" width="30" height="30" as="geometry" />
        </mxCell>
        <mxCell id="IVdIqDJ8NsYQqN5aop3I-9" value="8" style="ellipse;whiteSpace=wrap;html=1;aspect=fixed;fillColor=#d5e8d4;strokeColor=#82b366;gradientColor=#97d077;" parent="1" vertex="1">
          <mxGeometry x="360" y="120" width="30" height="30" as="geometry" />
        </mxCell>
        <mxCell id="IVdIqDJ8NsYQqN5aop3I-10" value="9" style="ellipse;whiteSpace=wrap;html=1;aspect=fixed;fillColor=#d5e8d4;strokeColor=#82b366;gradientColor=#97d077;" parent="1" vertex="1">
          <mxGeometry x="400" y="120" width="30" height="30" as="geometry" />
        </mxCell>
        <mxCell id="IVdIqDJ8NsYQqN5aop3I-137" value="0" style="ellipse;whiteSpace=wrap;html=1;aspect=fixed;fillColor=#d5e8d4;gradientColor=#97d077;strokeColor=#82b366;" parent="1" vertex="1">
          <mxGeometry x="40" y="300" width="30" height="30" as="geometry" />
        </mxCell>
        <mxCell id="IVdIqDJ8NsYQqN5aop3I-138" value="1" style="ellipse;whiteSpace=wrap;html=1;aspect=fixed;fillColor=#d5e8d4;gradientColor=#97d077;strokeColor=#82b366;" parent="1" vertex="1">
          <mxGeometry x="80" y="300" width="30" height="30" as="geometry" />
        </mxCell>
        <mxCell id="IVdIqDJ8NsYQqN5aop3I-139" value="2" style="ellipse;whiteSpace=wrap;html=1;aspect=fixed;fillColor=#d5e8d4;gradientColor=#97d077;strokeColor=#82b366;" parent="1" vertex="1">
          <mxGeometry x="120" y="300" width="30" height="30" as="geometry" />
        </mxCell>
        <mxCell id="IVdIqDJ8NsYQqN5aop3I-147" style="rounded=0;orthogonalLoop=1;jettySize=auto;html=1;exitX=0.5;exitY=0;exitDx=0;exitDy=0;entryX=0.5;entryY=1;entryDx=0;entryDy=0;endArrow=none;endFill=0;" parent="1" source="IVdIqDJ8NsYQqN5aop3I-140" target="IVdIqDJ8NsYQqN5aop3I-141" edge="1">
          <mxGeometry relative="1" as="geometry" />
        </mxCell>
        <mxCell id="IVdIqDJ8NsYQqN5aop3I-140" value="4" style="ellipse;whiteSpace=wrap;html=1;aspect=fixed;fillColor=#f8cecc;gradientColor=#ea6b66;strokeColor=#b85450;" parent="1" vertex="1">
          <mxGeometry x="160" y="340" width="30" height="30" as="geometry" />
        </mxCell>
        <mxCell id="IVdIqDJ8NsYQqN5aop3I-141" value="3" style="ellipse;whiteSpace=wrap;html=1;aspect=fixed;fillColor=#dae8fc;gradientColor=#7ea6e0;strokeColor=#6c8ebf;" parent="1" vertex="1">
          <mxGeometry x="160" y="300" width="30" height="30" as="geometry" />
        </mxCell>
        <mxCell id="IVdIqDJ8NsYQqN5aop3I-142" value="5" style="ellipse;whiteSpace=wrap;html=1;aspect=fixed;fillColor=#d5e8d4;gradientColor=#97d077;strokeColor=#82b366;" parent="1" vertex="1">
          <mxGeometry x="200" y="300" width="30" height="30" as="geometry" />
        </mxCell>
        <mxCell id="IVdIqDJ8NsYQqN5aop3I-143" value="6" style="ellipse;whiteSpace=wrap;html=1;aspect=fixed;fillColor=#d5e8d4;gradientColor=#97d077;strokeColor=#82b366;" parent="1" vertex="1">
          <mxGeometry x="240" y="300" width="30" height="30" as="geometry" />
        </mxCell>
        <mxCell id="IVdIqDJ8NsYQqN5aop3I-144" value="7" style="ellipse;whiteSpace=wrap;html=1;aspect=fixed;fillColor=#d5e8d4;gradientColor=#97d077;strokeColor=#82b366;" parent="1" vertex="1">
          <mxGeometry x="280" y="300" width="30" height="30" as="geometry" />
        </mxCell>
        <mxCell id="IVdIqDJ8NsYQqN5aop3I-145" value="8" style="ellipse;whiteSpace=wrap;html=1;aspect=fixed;fillColor=#d5e8d4;gradientColor=#97d077;strokeColor=#82b366;" parent="1" vertex="1">
          <mxGeometry x="320" y="300" width="30" height="30" as="geometry" />
        </mxCell>
        <mxCell id="IVdIqDJ8NsYQqN5aop3I-146" value="9" style="ellipse;whiteSpace=wrap;html=1;aspect=fixed;fillColor=#d5e8d4;gradientColor=#97d077;strokeColor=#82b366;" parent="1" vertex="1">
          <mxGeometry x="360" y="300" width="30" height="30" as="geometry" />
        </mxCell>
        <mxCell id="IVdIqDJ8NsYQqN5aop3I-148" value="0" style="ellipse;whiteSpace=wrap;html=1;aspect=fixed;fillColor=#d5e8d4;gradientColor=#97d077;strokeColor=#82b366;" parent="1" vertex="1">
          <mxGeometry x="40" y="460" width="30" height="30" as="geometry" />
        </mxCell>
        <mxCell id="IVdIqDJ8NsYQqN5aop3I-149" value="1" style="ellipse;whiteSpace=wrap;html=1;aspect=fixed;fillColor=#d5e8d4;gradientColor=#97d077;strokeColor=#82b366;" parent="1" vertex="1">
          <mxGeometry x="80" y="460" width="30" height="30" as="geometry" />
        </mxCell>
        <mxCell id="IVdIqDJ8NsYQqN5aop3I-150" value="2" style="ellipse;whiteSpace=wrap;html=1;aspect=fixed;fillColor=#d5e8d4;gradientColor=#97d077;strokeColor=#82b366;" parent="1" vertex="1">
          <mxGeometry x="120" y="460" width="30" height="30" as="geometry" />
        </mxCell>
        <mxCell id="IVdIqDJ8NsYQqN5aop3I-151" style="rounded=0;orthogonalLoop=1;jettySize=auto;html=1;exitX=0.5;exitY=0;exitDx=0;exitDy=0;entryX=0;entryY=1;entryDx=0;entryDy=0;endArrow=none;endFill=0;fillColor=#d5e8d4;gradientColor=#97d077;strokeColor=#82b366;" parent="1" source="IVdIqDJ8NsYQqN5aop3I-152" target="IVdIqDJ8NsYQqN5aop3I-158" edge="1">
          <mxGeometry relative="1" as="geometry" />
        </mxCell>
        <mxCell id="IVdIqDJ8NsYQqN5aop3I-152" value="4" style="ellipse;whiteSpace=wrap;html=1;aspect=fixed;fillColor=#dae8fc;gradientColor=#7ea6e0;strokeColor=#6c8ebf;" parent="1" vertex="1">
          <mxGeometry x="160" y="500" width="30" height="30" as="geometry" />
        </mxCell>
        <mxCell id="IVdIqDJ8NsYQqN5aop3I-159" style="rounded=0;orthogonalLoop=1;jettySize=auto;html=1;endArrow=none;endFill=0;exitX=0.5;exitY=0;exitDx=0;exitDy=0;entryX=1;entryY=1;entryDx=0;entryDy=0;fillColor=#d5e8d4;gradientColor=#97d077;strokeColor=#82b366;" parent="1" source="IVdIqDJ8NsYQqN5aop3I-153" target="IVdIqDJ8NsYQqN5aop3I-158" edge="1">
          <mxGeometry relative="1" as="geometry">
            <mxPoint x="220" y="490" as="sourcePoint" />
          </mxGeometry>
        </mxCell>
        <mxCell id="IVdIqDJ8NsYQqN5aop3I-153" value="9" style="ellipse;whiteSpace=wrap;html=1;aspect=fixed;fillColor=#f8cecc;gradientColor=#ea6b66;strokeColor=#b85450;" parent="1" vertex="1">
          <mxGeometry x="200" y="500" width="30" height="30" as="geometry" />
        </mxCell>
        <mxCell id="IVdIqDJ8NsYQqN5aop3I-154" value="5" style="ellipse;whiteSpace=wrap;html=1;aspect=fixed;fillColor=#d5e8d4;gradientColor=#97d077;strokeColor=#82b366;" parent="1" vertex="1">
          <mxGeometry x="240" y="460" width="30" height="30" as="geometry" />
        </mxCell>
        <mxCell id="IVdIqDJ8NsYQqN5aop3I-155" value="6" style="ellipse;whiteSpace=wrap;html=1;aspect=fixed;fillColor=#d5e8d4;gradientColor=#97d077;strokeColor=#82b366;" parent="1" vertex="1">
          <mxGeometry x="280" y="460" width="30" height="30" as="geometry" />
        </mxCell>
        <mxCell id="IVdIqDJ8NsYQqN5aop3I-156" value="7" style="ellipse;whiteSpace=wrap;html=1;aspect=fixed;fillColor=#d5e8d4;gradientColor=#97d077;strokeColor=#82b366;" parent="1" vertex="1">
          <mxGeometry x="320" y="460" width="30" height="30" as="geometry" />
        </mxCell>
        <mxCell id="IVdIqDJ8NsYQqN5aop3I-157" value="8" style="ellipse;whiteSpace=wrap;html=1;aspect=fixed;fillColor=#d5e8d4;gradientColor=#97d077;strokeColor=#82b366;" parent="1" vertex="1">
          <mxGeometry x="360" y="460" width="30" height="30" as="geometry" />
        </mxCell>
        <mxCell id="IVdIqDJ8NsYQqN5aop3I-158" value="3" style="ellipse;whiteSpace=wrap;html=1;aspect=fixed;fillColor=#dae8fc;gradientColor=#7ea6e0;strokeColor=#6c8ebf;" parent="1" vertex="1">
          <mxGeometry x="180" y="460" width="30" height="30" as="geometry" />
        </mxCell>
        <mxCell id="IVdIqDJ8NsYQqN5aop3I-290" value="" style="endArrow=none;html=1;rounded=0;" parent="1" edge="1">
          <mxGeometry width="50" height="50" relative="1" as="geometry">
            <mxPoint x="460" y="960" as="sourcePoint" />
            <mxPoint x="458" y="80" as="targetPoint" />
          </mxGeometry>
        </mxCell>
        <mxCell id="IVdIqDJ8NsYQqN5aop3I-292" value="" style="endArrow=none;html=1;rounded=0;" parent="1" edge="1">
          <mxGeometry width="50" height="50" relative="1" as="geometry">
            <mxPoint x="40" y="240" as="sourcePoint" />
            <mxPoint x="760" y="240" as="targetPoint" />
          </mxGeometry>
        </mxCell>
        <mxCell id="IVdIqDJ8NsYQqN5aop3I-293" value="" style="endArrow=none;html=1;rounded=0;" parent="1" edge="1">
          <mxGeometry width="50" height="50" relative="1" as="geometry">
            <mxPoint x="40" y="410" as="sourcePoint" />
            <mxPoint x="760" y="410" as="targetPoint" />
          </mxGeometry>
        </mxCell>
        <mxCell id="IVdIqDJ8NsYQqN5aop3I-294" value="" style="endArrow=none;html=1;rounded=0;" parent="1" edge="1">
          <mxGeometry width="50" height="50" relative="1" as="geometry">
            <mxPoint x="40" y="570" as="sourcePoint" />
            <mxPoint x="760" y="570" as="targetPoint" />
          </mxGeometry>
        </mxCell>
        <mxCell id="IVdIqDJ8NsYQqN5aop3I-295" value="" style="endArrow=none;html=1;rounded=0;" parent="1" edge="1">
          <mxGeometry width="50" height="50" relative="1" as="geometry">
            <mxPoint x="40" y="760" as="sourcePoint" />
            <mxPoint x="760" y="760" as="targetPoint" />
          </mxGeometry>
        </mxCell>
        <mxCell id="RbKNLJU9OQ4clKzWp0kg-2" value="&lt;b&gt;1&lt;/b&gt;.&amp;nbsp; &amp;nbsp;3 - 4" style="text;html=1;align=left;verticalAlign=middle;whiteSpace=wrap;rounded=0;" parent="1" vertex="1">
          <mxGeometry x="40" y="240" width="60" height="30" as="geometry" />
        </mxCell>
        <mxCell id="RbKNLJU9OQ4clKzWp0kg-7" value="&lt;b&gt;3&lt;/b&gt;.&amp;nbsp; &amp;nbsp;8 - 0" style="text;html=1;align=left;verticalAlign=middle;whiteSpace=wrap;rounded=0;" parent="1" vertex="1">
          <mxGeometry x="50" y="570" width="60" height="30" as="geometry" />
        </mxCell>
        <mxCell id="RbKNLJU9OQ4clKzWp0kg-8" value="&lt;b&gt;4&lt;/b&gt;.&amp;nbsp; &amp;nbsp;2 - 3" style="text;html=1;align=left;verticalAlign=middle;whiteSpace=wrap;rounded=0;" parent="1" vertex="1">
          <mxGeometry x="50" y="760" width="60" height="30" as="geometry" />
        </mxCell>
        <mxCell id="RbKNLJU9OQ4clKzWp0kg-9" value="&lt;b&gt;5&lt;/b&gt;.&amp;nbsp; &amp;nbsp;5 - 6" style="text;html=1;align=left;verticalAlign=middle;whiteSpace=wrap;rounded=0;" parent="1" vertex="1">
          <mxGeometry x="465" y="80" width="60" height="30" as="geometry" />
        </mxCell>
        <mxCell id="RbKNLJU9OQ4clKzWp0kg-10" value="&lt;b&gt;6&lt;/b&gt;.&amp;nbsp; &amp;nbsp;5 - 9" style="text;html=1;align=left;verticalAlign=middle;whiteSpace=wrap;rounded=0;" parent="1" vertex="1">
          <mxGeometry x="465" y="240" width="60" height="30" as="geometry" />
        </mxCell>
        <mxCell id="RbKNLJU9OQ4clKzWp0kg-11" value="&lt;b&gt;7&lt;/b&gt;.&amp;nbsp; &amp;nbsp;7 - 3" style="text;html=1;align=left;verticalAlign=middle;whiteSpace=wrap;rounded=0;" parent="1" vertex="1">
          <mxGeometry x="465" y="410" width="60" height="30" as="geometry" />
        </mxCell>
        <mxCell id="RbKNLJU9OQ4clKzWp0kg-12" value="&lt;b&gt;2&lt;/b&gt;.&amp;nbsp; &amp;nbsp;4 - 9" style="text;html=1;align=left;verticalAlign=middle;whiteSpace=wrap;rounded=0;" parent="1" vertex="1">
          <mxGeometry x="50" y="410" width="60" height="30" as="geometry" />
        </mxCell>
        <mxCell id="RbKNLJU9OQ4clKzWp0kg-13" value="&lt;b&gt;8&lt;/b&gt;.&amp;nbsp; &amp;nbsp;4 - 8" style="text;html=1;align=left;verticalAlign=middle;whiteSpace=wrap;rounded=0;" parent="1" vertex="1">
          <mxGeometry x="465" y="570" width="60" height="30" as="geometry" />
        </mxCell>
        <mxCell id="RbKNLJU9OQ4clKzWp0kg-14" value="&lt;b&gt;9&lt;/b&gt;.&amp;nbsp; &amp;nbsp;6 - 1" style="text;html=1;align=left;verticalAlign=middle;whiteSpace=wrap;rounded=0;" parent="1" vertex="1">
          <mxGeometry x="465" y="760" width="60" height="30" as="geometry" />
        </mxCell>
        <mxCell id="Coo2CabvopmprcEsMxN6-1" value="8" style="ellipse;whiteSpace=wrap;html=1;aspect=fixed;fillColor=#d5e8d4;gradientColor=#97d077;strokeColor=#82b366;" vertex="1" parent="1">
          <mxGeometry x="80" y="800" width="30" height="30" as="geometry" />
        </mxCell>
        <mxCell id="Coo2CabvopmprcEsMxN6-2" value="1" style="ellipse;whiteSpace=wrap;html=1;aspect=fixed;fillColor=#d5e8d4;gradientColor=#97d077;strokeColor=#82b366;" vertex="1" parent="1">
          <mxGeometry x="120" y="800" width="30" height="30" as="geometry" />
        </mxCell>
        <mxCell id="Coo2CabvopmprcEsMxN6-15" style="edgeStyle=none;rounded=0;orthogonalLoop=1;jettySize=auto;html=1;exitX=1;exitY=0;exitDx=0;exitDy=0;entryX=0;entryY=1;entryDx=0;entryDy=0;endArrow=none;endFill=0;fillColor=#d5e8d4;gradientColor=#97d077;strokeColor=#82b366;" edge="1" parent="1" source="Coo2CabvopmprcEsMxN6-3" target="Coo2CabvopmprcEsMxN6-12">
          <mxGeometry relative="1" as="geometry" />
        </mxCell>
        <mxCell id="Coo2CabvopmprcEsMxN6-3" value="2" style="ellipse;whiteSpace=wrap;html=1;aspect=fixed;fillColor=#dae8fc;gradientColor=#7ea6e0;strokeColor=#6c8ebf;" vertex="1" parent="1">
          <mxGeometry x="160" y="840" width="30" height="30" as="geometry" />
        </mxCell>
        <mxCell id="Coo2CabvopmprcEsMxN6-4" style="rounded=0;orthogonalLoop=1;jettySize=auto;html=1;exitX=0.5;exitY=0;exitDx=0;exitDy=0;entryX=0.5;entryY=1;entryDx=0;entryDy=0;endArrow=none;endFill=0;fillColor=#d5e8d4;gradientColor=#97d077;strokeColor=#82b366;" edge="1" parent="1" source="Coo2CabvopmprcEsMxN6-5" target="Coo2CabvopmprcEsMxN6-12">
          <mxGeometry relative="1" as="geometry" />
        </mxCell>
        <mxCell id="Coo2CabvopmprcEsMxN6-5" value="4" style="ellipse;whiteSpace=wrap;html=1;aspect=fixed;fillColor=#d5e8d4;gradientColor=#97d077;strokeColor=#82b366;" vertex="1" parent="1">
          <mxGeometry x="200" y="840" width="30" height="30" as="geometry" />
        </mxCell>
        <mxCell id="Coo2CabvopmprcEsMxN6-6" style="rounded=0;orthogonalLoop=1;jettySize=auto;html=1;endArrow=none;endFill=0;exitX=0;exitY=0;exitDx=0;exitDy=0;entryX=1;entryY=1;entryDx=0;entryDy=0;fillColor=#d5e8d4;gradientColor=#97d077;strokeColor=#82b366;" edge="1" parent="1" source="Coo2CabvopmprcEsMxN6-7" target="Coo2CabvopmprcEsMxN6-12">
          <mxGeometry relative="1" as="geometry">
            <mxPoint x="260" y="830" as="sourcePoint" />
          </mxGeometry>
        </mxCell>
        <mxCell id="Coo2CabvopmprcEsMxN6-7" value="9" style="ellipse;whiteSpace=wrap;html=1;aspect=fixed;fillColor=#d5e8d4;gradientColor=#97d077;strokeColor=#82b366;" vertex="1" parent="1">
          <mxGeometry x="240" y="840" width="30" height="30" as="geometry" />
        </mxCell>
        <mxCell id="Coo2CabvopmprcEsMxN6-8" value="5" style="ellipse;whiteSpace=wrap;html=1;aspect=fixed;fillColor=#d5e8d4;gradientColor=#97d077;strokeColor=#82b366;" vertex="1" parent="1">
          <mxGeometry x="280" y="800" width="30" height="30" as="geometry" />
        </mxCell>
        <mxCell id="Coo2CabvopmprcEsMxN6-9" value="6" style="ellipse;whiteSpace=wrap;html=1;aspect=fixed;fillColor=#d5e8d4;gradientColor=#97d077;strokeColor=#82b366;" vertex="1" parent="1">
          <mxGeometry x="320" y="800" width="30" height="30" as="geometry" />
        </mxCell>
        <mxCell id="Coo2CabvopmprcEsMxN6-10" value="7" style="ellipse;whiteSpace=wrap;html=1;aspect=fixed;fillColor=#d5e8d4;gradientColor=#97d077;strokeColor=#82b366;" vertex="1" parent="1">
          <mxGeometry x="360" y="800" width="30" height="30" as="geometry" />
        </mxCell>
        <mxCell id="Coo2CabvopmprcEsMxN6-14" style="edgeStyle=none;rounded=0;orthogonalLoop=1;jettySize=auto;html=1;exitX=0.5;exitY=0;exitDx=0;exitDy=0;entryX=0.5;entryY=1;entryDx=0;entryDy=0;endArrow=none;endFill=0;fillColor=#d5e8d4;gradientColor=#97d077;strokeColor=#82b366;" edge="1" parent="1" source="Coo2CabvopmprcEsMxN6-11" target="Coo2CabvopmprcEsMxN6-1">
          <mxGeometry relative="1" as="geometry" />
        </mxCell>
        <mxCell id="Coo2CabvopmprcEsMxN6-11" value="0" style="ellipse;whiteSpace=wrap;html=1;aspect=fixed;fillColor=#d5e8d4;gradientColor=#97d077;strokeColor=#82b366;" vertex="1" parent="1">
          <mxGeometry x="80" y="840" width="30" height="30" as="geometry" />
        </mxCell>
        <mxCell id="Coo2CabvopmprcEsMxN6-12" value="3" style="ellipse;whiteSpace=wrap;html=1;aspect=fixed;fillColor=#f8cecc;gradientColor=#ea6b66;strokeColor=#b85450;" vertex="1" parent="1">
          <mxGeometry x="200" y="800" width="30" height="30" as="geometry" />
        </mxCell>
        <mxCell id="Coo2CabvopmprcEsMxN6-16" value="8" style="ellipse;whiteSpace=wrap;html=1;aspect=fixed;fillColor=#d5e8d4;gradientColor=#97d077;strokeColor=#82b366;" vertex="1" parent="1">
          <mxGeometry x="480" y="120" width="30" height="30" as="geometry" />
        </mxCell>
        <mxCell id="Coo2CabvopmprcEsMxN6-17" value="1" style="ellipse;whiteSpace=wrap;html=1;aspect=fixed;fillColor=#d5e8d4;gradientColor=#97d077;strokeColor=#82b366;" vertex="1" parent="1">
          <mxGeometry x="520" y="120" width="30" height="30" as="geometry" />
        </mxCell>
        <mxCell id="Coo2CabvopmprcEsMxN6-18" style="edgeStyle=none;rounded=0;orthogonalLoop=1;jettySize=auto;html=1;exitX=1;exitY=0;exitDx=0;exitDy=0;entryX=0;entryY=1;entryDx=0;entryDy=0;endArrow=none;endFill=0;fillColor=#d5e8d4;gradientColor=#97d077;strokeColor=#82b366;" edge="1" parent="1" source="Coo2CabvopmprcEsMxN6-19" target="Coo2CabvopmprcEsMxN6-29">
          <mxGeometry relative="1" as="geometry" />
        </mxCell>
        <mxCell id="Coo2CabvopmprcEsMxN6-19" value="2" style="ellipse;whiteSpace=wrap;html=1;aspect=fixed;fillColor=#d5e8d4;gradientColor=#97d077;strokeColor=#82b366;" vertex="1" parent="1">
          <mxGeometry x="560" y="160" width="30" height="30" as="geometry" />
        </mxCell>
        <mxCell id="Coo2CabvopmprcEsMxN6-20" style="rounded=0;orthogonalLoop=1;jettySize=auto;html=1;exitX=0.5;exitY=0;exitDx=0;exitDy=0;entryX=0.5;entryY=1;entryDx=0;entryDy=0;endArrow=none;endFill=0;fillColor=#d5e8d4;gradientColor=#97d077;strokeColor=#82b366;" edge="1" parent="1" source="Coo2CabvopmprcEsMxN6-21" target="Coo2CabvopmprcEsMxN6-29">
          <mxGeometry relative="1" as="geometry" />
        </mxCell>
        <mxCell id="Coo2CabvopmprcEsMxN6-21" value="4" style="ellipse;whiteSpace=wrap;html=1;aspect=fixed;fillColor=#d5e8d4;gradientColor=#97d077;strokeColor=#82b366;" vertex="1" parent="1">
          <mxGeometry x="600" y="160" width="30" height="30" as="geometry" />
        </mxCell>
        <mxCell id="Coo2CabvopmprcEsMxN6-22" style="rounded=0;orthogonalLoop=1;jettySize=auto;html=1;endArrow=none;endFill=0;exitX=0;exitY=0;exitDx=0;exitDy=0;entryX=1;entryY=1;entryDx=0;entryDy=0;fillColor=#d5e8d4;gradientColor=#97d077;strokeColor=#82b366;" edge="1" parent="1" source="Coo2CabvopmprcEsMxN6-23" target="Coo2CabvopmprcEsMxN6-29">
          <mxGeometry relative="1" as="geometry">
            <mxPoint x="660" y="150" as="sourcePoint" />
          </mxGeometry>
        </mxCell>
        <mxCell id="Coo2CabvopmprcEsMxN6-23" value="9" style="ellipse;whiteSpace=wrap;html=1;aspect=fixed;fillColor=#d5e8d4;gradientColor=#97d077;strokeColor=#82b366;" vertex="1" parent="1">
          <mxGeometry x="640" y="160" width="30" height="30" as="geometry" />
        </mxCell>
        <mxCell id="Coo2CabvopmprcEsMxN6-24" value="5" style="ellipse;whiteSpace=wrap;html=1;aspect=fixed;fillColor=#dae8fc;gradientColor=#7ea6e0;strokeColor=#6c8ebf;" vertex="1" parent="1">
          <mxGeometry x="680" y="120" width="30" height="30" as="geometry" />
        </mxCell>
        <mxCell id="Coo2CabvopmprcEsMxN6-30" style="edgeStyle=none;rounded=0;orthogonalLoop=1;jettySize=auto;html=1;exitX=0.5;exitY=0;exitDx=0;exitDy=0;entryX=0.5;entryY=1;entryDx=0;entryDy=0;endArrow=none;endFill=0;fillColor=#d5e8d4;gradientColor=#97d077;strokeColor=#82b366;" edge="1" parent="1" source="Coo2CabvopmprcEsMxN6-25" target="Coo2CabvopmprcEsMxN6-24">
          <mxGeometry relative="1" as="geometry" />
        </mxCell>
        <mxCell id="Coo2CabvopmprcEsMxN6-25" value="6" style="ellipse;whiteSpace=wrap;html=1;aspect=fixed;fillColor=#f8cecc;gradientColor=#ea6b66;strokeColor=#b85450;" vertex="1" parent="1">
          <mxGeometry x="680" y="160" width="30" height="30" as="geometry" />
        </mxCell>
        <mxCell id="Coo2CabvopmprcEsMxN6-26" value="7" style="ellipse;whiteSpace=wrap;html=1;aspect=fixed;fillColor=#d5e8d4;gradientColor=#97d077;strokeColor=#82b366;" vertex="1" parent="1">
          <mxGeometry x="720" y="120" width="30" height="30" as="geometry" />
        </mxCell>
        <mxCell id="Coo2CabvopmprcEsMxN6-27" style="edgeStyle=none;rounded=0;orthogonalLoop=1;jettySize=auto;html=1;exitX=0.5;exitY=0;exitDx=0;exitDy=0;entryX=0.5;entryY=1;entryDx=0;entryDy=0;endArrow=none;endFill=0;fillColor=#d5e8d4;gradientColor=#97d077;strokeColor=#82b366;" edge="1" parent="1" source="Coo2CabvopmprcEsMxN6-28" target="Coo2CabvopmprcEsMxN6-16">
          <mxGeometry relative="1" as="geometry" />
        </mxCell>
        <mxCell id="Coo2CabvopmprcEsMxN6-28" value="0" style="ellipse;whiteSpace=wrap;html=1;aspect=fixed;fillColor=#d5e8d4;gradientColor=#97d077;strokeColor=#82b366;" vertex="1" parent="1">
          <mxGeometry x="480" y="160" width="30" height="30" as="geometry" />
        </mxCell>
        <mxCell id="Coo2CabvopmprcEsMxN6-29" value="3" style="ellipse;whiteSpace=wrap;html=1;aspect=fixed;fillColor=#d5e8d4;gradientColor=#97d077;strokeColor=#82b366;" vertex="1" parent="1">
          <mxGeometry x="600" y="120" width="30" height="30" as="geometry" />
        </mxCell>
        <mxCell id="Coo2CabvopmprcEsMxN6-46" value="8" style="ellipse;whiteSpace=wrap;html=1;aspect=fixed;fillColor=#d5e8d4;gradientColor=#97d077;strokeColor=#82b366;" vertex="1" parent="1">
          <mxGeometry x="480" y="280" width="30" height="30" as="geometry" />
        </mxCell>
        <mxCell id="Coo2CabvopmprcEsMxN6-47" value="1" style="ellipse;whiteSpace=wrap;html=1;aspect=fixed;fillColor=#d5e8d4;gradientColor=#97d077;strokeColor=#82b366;" vertex="1" parent="1">
          <mxGeometry x="520" y="280" width="30" height="30" as="geometry" />
        </mxCell>
        <mxCell id="Coo2CabvopmprcEsMxN6-48" style="edgeStyle=none;rounded=0;orthogonalLoop=1;jettySize=auto;html=1;exitX=1;exitY=0;exitDx=0;exitDy=0;entryX=0;entryY=1;entryDx=0;entryDy=0;endArrow=none;endFill=0;" edge="1" parent="1" source="Coo2CabvopmprcEsMxN6-49" target="Coo2CabvopmprcEsMxN6-60">
          <mxGeometry relative="1" as="geometry" />
        </mxCell>
        <mxCell id="Coo2CabvopmprcEsMxN6-49" value="2" style="ellipse;whiteSpace=wrap;html=1;aspect=fixed;fillColor=#d5e8d4;gradientColor=#97d077;strokeColor=#82b366;" vertex="1" parent="1">
          <mxGeometry x="560" y="320" width="30" height="30" as="geometry" />
        </mxCell>
        <mxCell id="Coo2CabvopmprcEsMxN6-50" style="rounded=0;orthogonalLoop=1;jettySize=auto;html=1;exitX=0.708;exitY=0.041;exitDx=0;exitDy=0;entryX=0.284;entryY=0.95;entryDx=0;entryDy=0;endArrow=none;endFill=0;entryPerimeter=0;exitPerimeter=0;" edge="1" parent="1" source="Coo2CabvopmprcEsMxN6-51" target="Coo2CabvopmprcEsMxN6-60">
          <mxGeometry relative="1" as="geometry" />
        </mxCell>
        <mxCell id="Coo2CabvopmprcEsMxN6-51" value="4" style="ellipse;whiteSpace=wrap;html=1;aspect=fixed;fillColor=#d5e8d4;gradientColor=#97d077;strokeColor=#82b366;" vertex="1" parent="1">
          <mxGeometry x="600" y="320" width="30" height="30" as="geometry" />
        </mxCell>
        <mxCell id="Coo2CabvopmprcEsMxN6-52" style="rounded=0;orthogonalLoop=1;jettySize=auto;html=1;endArrow=none;endFill=0;exitX=0;exitY=0;exitDx=0;exitDy=0;entryX=1;entryY=1;entryDx=0;entryDy=0;" edge="1" parent="1" source="Coo2CabvopmprcEsMxN6-53" target="Coo2CabvopmprcEsMxN6-60">
          <mxGeometry relative="1" as="geometry">
            <mxPoint x="660" y="310" as="sourcePoint" />
          </mxGeometry>
        </mxCell>
        <mxCell id="Coo2CabvopmprcEsMxN6-53" value="9" style="ellipse;whiteSpace=wrap;html=1;aspect=fixed;fillColor=#f8cecc;gradientColor=#ea6b66;strokeColor=#b85450;" vertex="1" parent="1">
          <mxGeometry x="680" y="320" width="30" height="30" as="geometry" />
        </mxCell>
        <mxCell id="Coo2CabvopmprcEsMxN6-61" style="edgeStyle=none;rounded=0;orthogonalLoop=1;jettySize=auto;html=1;exitX=0.319;exitY=0.041;exitDx=0;exitDy=0;entryX=0.708;entryY=0.95;entryDx=0;entryDy=0;exitPerimeter=0;entryPerimeter=0;endArrow=none;endFill=0;" edge="1" parent="1" source="Coo2CabvopmprcEsMxN6-54" target="Coo2CabvopmprcEsMxN6-60">
          <mxGeometry relative="1" as="geometry" />
        </mxCell>
        <mxCell id="Coo2CabvopmprcEsMxN6-54" value="5" style="ellipse;whiteSpace=wrap;html=1;aspect=fixed;fillColor=#dae8fc;gradientColor=#7ea6e0;strokeColor=#6c8ebf;" vertex="1" parent="1">
          <mxGeometry x="640" y="320" width="30" height="30" as="geometry" />
        </mxCell>
        <mxCell id="Coo2CabvopmprcEsMxN6-55" style="edgeStyle=none;rounded=0;orthogonalLoop=1;jettySize=auto;html=1;exitX=0.5;exitY=0;exitDx=0;exitDy=0;entryX=0.5;entryY=1;entryDx=0;entryDy=0;endArrow=none;endFill=0;" edge="1" parent="1" source="Coo2CabvopmprcEsMxN6-56" target="Coo2CabvopmprcEsMxN6-54">
          <mxGeometry relative="1" as="geometry" />
        </mxCell>
        <mxCell id="Coo2CabvopmprcEsMxN6-56" value="6" style="ellipse;whiteSpace=wrap;html=1;aspect=fixed;fillColor=#d5e8d4;gradientColor=#97d077;strokeColor=#82b366;" vertex="1" parent="1">
          <mxGeometry x="640" y="360" width="30" height="30" as="geometry" />
        </mxCell>
        <mxCell id="Coo2CabvopmprcEsMxN6-57" value="7" style="ellipse;whiteSpace=wrap;html=1;aspect=fixed;fillColor=#d5e8d4;gradientColor=#97d077;strokeColor=#82b366;" vertex="1" parent="1">
          <mxGeometry x="720" y="280" width="30" height="30" as="geometry" />
        </mxCell>
        <mxCell id="Coo2CabvopmprcEsMxN6-58" style="edgeStyle=none;rounded=0;orthogonalLoop=1;jettySize=auto;html=1;exitX=0.5;exitY=0;exitDx=0;exitDy=0;entryX=0.5;entryY=1;entryDx=0;entryDy=0;endArrow=none;endFill=0;fillColor=#d5e8d4;gradientColor=#97d077;strokeColor=#82b366;" edge="1" parent="1" source="Coo2CabvopmprcEsMxN6-59" target="Coo2CabvopmprcEsMxN6-46">
          <mxGeometry relative="1" as="geometry" />
        </mxCell>
        <mxCell id="Coo2CabvopmprcEsMxN6-59" value="0" style="ellipse;whiteSpace=wrap;html=1;aspect=fixed;fillColor=#d5e8d4;gradientColor=#97d077;strokeColor=#82b366;" vertex="1" parent="1">
          <mxGeometry x="480" y="320" width="30" height="30" as="geometry" />
        </mxCell>
        <mxCell id="Coo2CabvopmprcEsMxN6-60" value="3" style="ellipse;whiteSpace=wrap;html=1;aspect=fixed;fillColor=#dae8fc;gradientColor=#7ea6e0;strokeColor=#6c8ebf;" vertex="1" parent="1">
          <mxGeometry x="620" y="280" width="30" height="30" as="geometry" />
        </mxCell>
        <mxCell id="Coo2CabvopmprcEsMxN6-62" value="8" style="ellipse;whiteSpace=wrap;html=1;aspect=fixed;fillColor=#d5e8d4;gradientColor=#97d077;strokeColor=#82b366;" vertex="1" parent="1">
          <mxGeometry x="480" y="440" width="30" height="30" as="geometry" />
        </mxCell>
        <mxCell id="Coo2CabvopmprcEsMxN6-63" value="1" style="ellipse;whiteSpace=wrap;html=1;aspect=fixed;fillColor=#d5e8d4;gradientColor=#97d077;strokeColor=#82b366;" vertex="1" parent="1">
          <mxGeometry x="520" y="440" width="30" height="30" as="geometry" />
        </mxCell>
        <mxCell id="Coo2CabvopmprcEsMxN6-64" style="edgeStyle=none;rounded=0;orthogonalLoop=1;jettySize=auto;html=1;exitX=1;exitY=0;exitDx=0;exitDy=0;entryX=0;entryY=1;entryDx=0;entryDy=0;endArrow=none;endFill=0;" edge="1" parent="1" source="Coo2CabvopmprcEsMxN6-65" target="Coo2CabvopmprcEsMxN6-77">
          <mxGeometry relative="1" as="geometry" />
        </mxCell>
        <mxCell id="Coo2CabvopmprcEsMxN6-65" value="2" style="ellipse;whiteSpace=wrap;html=1;aspect=fixed;fillColor=#d5e8d4;gradientColor=#97d077;strokeColor=#82b366;" vertex="1" parent="1">
          <mxGeometry x="560" y="480" width="30" height="30" as="geometry" />
        </mxCell>
        <mxCell id="Coo2CabvopmprcEsMxN6-66" style="rounded=0;orthogonalLoop=1;jettySize=auto;html=1;exitX=0.708;exitY=0.041;exitDx=0;exitDy=0;entryX=0.284;entryY=0.95;entryDx=0;entryDy=0;endArrow=none;endFill=0;entryPerimeter=0;exitPerimeter=0;" edge="1" parent="1" source="Coo2CabvopmprcEsMxN6-67" target="Coo2CabvopmprcEsMxN6-77">
          <mxGeometry relative="1" as="geometry" />
        </mxCell>
        <mxCell id="Coo2CabvopmprcEsMxN6-67" value="4" style="ellipse;whiteSpace=wrap;html=1;aspect=fixed;fillColor=#d5e8d4;gradientColor=#97d077;strokeColor=#82b366;" vertex="1" parent="1">
          <mxGeometry x="600" y="480" width="30" height="30" as="geometry" />
        </mxCell>
        <mxCell id="Coo2CabvopmprcEsMxN6-68" style="rounded=0;orthogonalLoop=1;jettySize=auto;html=1;endArrow=none;endFill=0;exitX=0;exitY=0;exitDx=0;exitDy=0;entryX=1;entryY=1;entryDx=0;entryDy=0;" edge="1" parent="1" source="Coo2CabvopmprcEsMxN6-69" target="Coo2CabvopmprcEsMxN6-77">
          <mxGeometry relative="1" as="geometry">
            <mxPoint x="660" y="470" as="sourcePoint" />
          </mxGeometry>
        </mxCell>
        <mxCell id="Coo2CabvopmprcEsMxN6-69" value="9" style="ellipse;whiteSpace=wrap;html=1;aspect=fixed;fillColor=#d5e8d4;gradientColor=#97d077;strokeColor=#82b366;" vertex="1" parent="1">
          <mxGeometry x="720" y="480" width="30" height="30" as="geometry" />
        </mxCell>
        <mxCell id="Coo2CabvopmprcEsMxN6-70" style="edgeStyle=none;rounded=0;orthogonalLoop=1;jettySize=auto;html=1;exitX=0.5;exitY=0;exitDx=0;exitDy=0;entryX=0.5;entryY=1;entryDx=0;entryDy=0;endArrow=none;endFill=0;" edge="1" parent="1" source="Coo2CabvopmprcEsMxN6-71" target="Coo2CabvopmprcEsMxN6-77">
          <mxGeometry relative="1" as="geometry" />
        </mxCell>
        <mxCell id="Coo2CabvopmprcEsMxN6-71" value="5" style="ellipse;whiteSpace=wrap;html=1;aspect=fixed;fillColor=#d5e8d4;gradientColor=#97d077;strokeColor=#82b366;" vertex="1" parent="1">
          <mxGeometry x="640" y="480" width="30" height="30" as="geometry" />
        </mxCell>
        <mxCell id="Coo2CabvopmprcEsMxN6-72" style="edgeStyle=none;rounded=0;orthogonalLoop=1;jettySize=auto;html=1;exitX=0.5;exitY=0;exitDx=0;exitDy=0;entryX=0.5;entryY=1;entryDx=0;entryDy=0;endArrow=none;endFill=0;" edge="1" parent="1" source="Coo2CabvopmprcEsMxN6-73" target="Coo2CabvopmprcEsMxN6-71">
          <mxGeometry relative="1" as="geometry" />
        </mxCell>
        <mxCell id="Coo2CabvopmprcEsMxN6-73" value="6" style="ellipse;whiteSpace=wrap;html=1;aspect=fixed;fillColor=#d5e8d4;gradientColor=#97d077;strokeColor=#82b366;" vertex="1" parent="1">
          <mxGeometry x="640" y="520" width="30" height="30" as="geometry" />
        </mxCell>
        <mxCell id="Coo2CabvopmprcEsMxN6-74" value="7" style="ellipse;whiteSpace=wrap;html=1;aspect=fixed;fillColor=#dae8fc;gradientColor=#7ea6e0;strokeColor=#6c8ebf;" vertex="1" parent="1">
          <mxGeometry x="680" y="480" width="30" height="30" as="geometry" />
        </mxCell>
        <mxCell id="Coo2CabvopmprcEsMxN6-75" style="edgeStyle=none;rounded=0;orthogonalLoop=1;jettySize=auto;html=1;exitX=0.5;exitY=0;exitDx=0;exitDy=0;entryX=0.5;entryY=1;entryDx=0;entryDy=0;endArrow=none;endFill=0;fillColor=#d5e8d4;gradientColor=#97d077;strokeColor=#82b366;" edge="1" parent="1" source="Coo2CabvopmprcEsMxN6-76" target="Coo2CabvopmprcEsMxN6-62">
          <mxGeometry relative="1" as="geometry" />
        </mxCell>
        <mxCell id="Coo2CabvopmprcEsMxN6-76" value="0" style="ellipse;whiteSpace=wrap;html=1;aspect=fixed;fillColor=#d5e8d4;gradientColor=#97d077;strokeColor=#82b366;" vertex="1" parent="1">
          <mxGeometry x="480" y="480" width="30" height="30" as="geometry" />
        </mxCell>
        <mxCell id="Coo2CabvopmprcEsMxN6-77" value="3" style="ellipse;whiteSpace=wrap;html=1;aspect=fixed;fillColor=#f8cecc;gradientColor=#ea6b66;strokeColor=#b85450;" vertex="1" parent="1">
          <mxGeometry x="640" y="440" width="30" height="30" as="geometry" />
        </mxCell>
        <mxCell id="Coo2CabvopmprcEsMxN6-78" style="edgeStyle=none;rounded=0;orthogonalLoop=1;jettySize=auto;html=1;exitX=0;exitY=0;exitDx=0;exitDy=0;entryX=0.73;entryY=0.952;entryDx=0;entryDy=0;entryPerimeter=0;endArrow=none;endFill=0;" edge="1" parent="1" source="Coo2CabvopmprcEsMxN6-74" target="Coo2CabvopmprcEsMxN6-77">
          <mxGeometry relative="1" as="geometry" />
        </mxCell>
        <mxCell id="Coo2CabvopmprcEsMxN6-96" style="edgeStyle=none;rounded=0;orthogonalLoop=1;jettySize=auto;html=1;exitX=1;exitY=0;exitDx=0;exitDy=0;entryX=0.033;entryY=0.674;entryDx=0;entryDy=0;endArrow=none;endFill=0;entryPerimeter=0;" edge="1" parent="1" source="Coo2CabvopmprcEsMxN6-79" target="Coo2CabvopmprcEsMxN6-94">
          <mxGeometry relative="1" as="geometry" />
        </mxCell>
        <mxCell id="Coo2CabvopmprcEsMxN6-79" value="8" style="ellipse;whiteSpace=wrap;html=1;aspect=fixed;fillColor=#f8cecc;gradientColor=#ea6b66;strokeColor=#b85450;" vertex="1" parent="1">
          <mxGeometry x="480" y="640" width="30" height="30" as="geometry" />
        </mxCell>
        <mxCell id="Coo2CabvopmprcEsMxN6-80" value="1" style="ellipse;whiteSpace=wrap;html=1;aspect=fixed;fillColor=#d5e8d4;gradientColor=#97d077;strokeColor=#82b366;" vertex="1" parent="1">
          <mxGeometry x="720" y="600" width="30" height="30" as="geometry" />
        </mxCell>
        <mxCell id="Coo2CabvopmprcEsMxN6-81" style="edgeStyle=none;rounded=0;orthogonalLoop=1;jettySize=auto;html=1;exitX=1;exitY=0;exitDx=0;exitDy=0;entryX=0;entryY=1;entryDx=0;entryDy=0;endArrow=none;endFill=0;" edge="1" parent="1" source="Coo2CabvopmprcEsMxN6-82" target="Coo2CabvopmprcEsMxN6-94">
          <mxGeometry relative="1" as="geometry" />
        </mxCell>
        <mxCell id="Coo2CabvopmprcEsMxN6-82" value="2" style="ellipse;whiteSpace=wrap;html=1;aspect=fixed;fillColor=#d5e8d4;gradientColor=#97d077;strokeColor=#82b366;" vertex="1" parent="1">
          <mxGeometry x="520" y="640" width="30" height="30" as="geometry" />
        </mxCell>
        <mxCell id="Coo2CabvopmprcEsMxN6-83" style="rounded=0;orthogonalLoop=1;jettySize=auto;html=1;exitX=0.708;exitY=0.041;exitDx=0;exitDy=0;entryX=0.284;entryY=0.95;entryDx=0;entryDy=0;endArrow=none;endFill=0;entryPerimeter=0;exitPerimeter=0;" edge="1" parent="1" source="Coo2CabvopmprcEsMxN6-84" target="Coo2CabvopmprcEsMxN6-94">
          <mxGeometry relative="1" as="geometry" />
        </mxCell>
        <mxCell id="Coo2CabvopmprcEsMxN6-84" value="4" style="ellipse;whiteSpace=wrap;html=1;aspect=fixed;fillColor=#dae8fc;gradientColor=#7ea6e0;strokeColor=#6c8ebf;" vertex="1" parent="1">
          <mxGeometry x="560" y="640" width="30" height="30" as="geometry" />
        </mxCell>
        <mxCell id="Coo2CabvopmprcEsMxN6-85" style="rounded=0;orthogonalLoop=1;jettySize=auto;html=1;endArrow=none;endFill=0;exitX=0;exitY=0;exitDx=0;exitDy=0;entryX=0.975;entryY=0.674;entryDx=0;entryDy=0;entryPerimeter=0;" edge="1" parent="1" source="Coo2CabvopmprcEsMxN6-86" target="Coo2CabvopmprcEsMxN6-94">
          <mxGeometry relative="1" as="geometry">
            <mxPoint x="620" y="630" as="sourcePoint" />
          </mxGeometry>
        </mxCell>
        <mxCell id="Coo2CabvopmprcEsMxN6-86" value="9" style="ellipse;whiteSpace=wrap;html=1;aspect=fixed;fillColor=#d5e8d4;gradientColor=#97d077;strokeColor=#82b366;" vertex="1" parent="1">
          <mxGeometry x="680" y="640" width="30" height="30" as="geometry" />
        </mxCell>
        <mxCell id="Coo2CabvopmprcEsMxN6-87" style="edgeStyle=none;rounded=0;orthogonalLoop=1;jettySize=auto;html=1;exitX=0.303;exitY=0.048;exitDx=0;exitDy=0;entryX=0.725;entryY=0.959;entryDx=0;entryDy=0;endArrow=none;endFill=0;entryPerimeter=0;exitPerimeter=0;" edge="1" parent="1" source="Coo2CabvopmprcEsMxN6-88" target="Coo2CabvopmprcEsMxN6-94">
          <mxGeometry relative="1" as="geometry" />
        </mxCell>
        <mxCell id="Coo2CabvopmprcEsMxN6-88" value="5" style="ellipse;whiteSpace=wrap;html=1;aspect=fixed;fillColor=#d5e8d4;gradientColor=#97d077;strokeColor=#82b366;" vertex="1" parent="1">
          <mxGeometry x="600" y="640" width="30" height="30" as="geometry" />
        </mxCell>
        <mxCell id="Coo2CabvopmprcEsMxN6-89" style="edgeStyle=none;rounded=0;orthogonalLoop=1;jettySize=auto;html=1;exitX=0.5;exitY=0;exitDx=0;exitDy=0;entryX=0.5;entryY=1;entryDx=0;entryDy=0;endArrow=none;endFill=0;" edge="1" parent="1" source="Coo2CabvopmprcEsMxN6-90" target="Coo2CabvopmprcEsMxN6-88">
          <mxGeometry relative="1" as="geometry" />
        </mxCell>
        <mxCell id="Coo2CabvopmprcEsMxN6-90" value="6" style="ellipse;whiteSpace=wrap;html=1;aspect=fixed;fillColor=#d5e8d4;gradientColor=#97d077;strokeColor=#82b366;" vertex="1" parent="1">
          <mxGeometry x="600" y="680" width="30" height="30" as="geometry" />
        </mxCell>
        <mxCell id="Coo2CabvopmprcEsMxN6-91" value="7" style="ellipse;whiteSpace=wrap;html=1;aspect=fixed;fillColor=#d5e8d4;gradientColor=#97d077;strokeColor=#82b366;" vertex="1" parent="1">
          <mxGeometry x="640" y="640" width="30" height="30" as="geometry" />
        </mxCell>
        <mxCell id="Coo2CabvopmprcEsMxN6-92" style="edgeStyle=none;rounded=0;orthogonalLoop=1;jettySize=auto;html=1;exitX=0.5;exitY=0;exitDx=0;exitDy=0;entryX=0.5;entryY=1;entryDx=0;entryDy=0;endArrow=none;endFill=0;" edge="1" parent="1" source="Coo2CabvopmprcEsMxN6-93" target="Coo2CabvopmprcEsMxN6-79">
          <mxGeometry relative="1" as="geometry" />
        </mxCell>
        <mxCell id="Coo2CabvopmprcEsMxN6-93" value="0" style="ellipse;whiteSpace=wrap;html=1;aspect=fixed;fillColor=#d5e8d4;gradientColor=#97d077;strokeColor=#82b366;" vertex="1" parent="1">
          <mxGeometry x="480" y="680" width="30" height="30" as="geometry" />
        </mxCell>
        <mxCell id="Coo2CabvopmprcEsMxN6-94" value="3" style="ellipse;whiteSpace=wrap;html=1;aspect=fixed;fillColor=#dae8fc;gradientColor=#7ea6e0;strokeColor=#6c8ebf;" vertex="1" parent="1">
          <mxGeometry x="580" y="600" width="30" height="30" as="geometry" />
        </mxCell>
        <mxCell id="Coo2CabvopmprcEsMxN6-95" style="edgeStyle=none;rounded=0;orthogonalLoop=1;jettySize=auto;html=1;exitX=0;exitY=0;exitDx=0;exitDy=0;entryX=0.888;entryY=0.817;entryDx=0;entryDy=0;endArrow=none;endFill=0;entryPerimeter=0;" edge="1" parent="1" source="Coo2CabvopmprcEsMxN6-91" target="Coo2CabvopmprcEsMxN6-94">
          <mxGeometry relative="1" as="geometry" />
        </mxCell>
        <mxCell id="Coo2CabvopmprcEsMxN6-97" value="8" style="ellipse;whiteSpace=wrap;html=1;aspect=fixed;fillColor=#dae8fc;gradientColor=#7ea6e0;strokeColor=#6c8ebf;" vertex="1" parent="1">
          <mxGeometry x="80" y="620" width="30" height="30" as="geometry" />
        </mxCell>
        <mxCell id="Coo2CabvopmprcEsMxN6-98" value="1" style="ellipse;whiteSpace=wrap;html=1;aspect=fixed;fillColor=#d5e8d4;gradientColor=#97d077;strokeColor=#82b366;" vertex="1" parent="1">
          <mxGeometry x="120" y="620" width="30" height="30" as="geometry" />
        </mxCell>
        <mxCell id="Coo2CabvopmprcEsMxN6-100" value="2" style="ellipse;whiteSpace=wrap;html=1;aspect=fixed;fillColor=#d5e8d4;gradientColor=#97d077;strokeColor=#82b366;" vertex="1" parent="1">
          <mxGeometry x="160" y="620" width="30" height="30" as="geometry" />
        </mxCell>
        <mxCell id="Coo2CabvopmprcEsMxN6-101" style="rounded=0;orthogonalLoop=1;jettySize=auto;html=1;exitX=0.715;exitY=0.038;exitDx=0;exitDy=0;entryX=0.317;entryY=0.949;entryDx=0;entryDy=0;endArrow=none;endFill=0;exitPerimeter=0;entryPerimeter=0;fillColor=#d5e8d4;gradientColor=#97d077;strokeColor=#82b366;" edge="1" parent="1" source="Coo2CabvopmprcEsMxN6-102" target="Coo2CabvopmprcEsMxN6-110">
          <mxGeometry relative="1" as="geometry" />
        </mxCell>
        <mxCell id="Coo2CabvopmprcEsMxN6-102" value="4" style="ellipse;whiteSpace=wrap;html=1;aspect=fixed;fillColor=#d5e8d4;gradientColor=#97d077;strokeColor=#82b366;" vertex="1" parent="1">
          <mxGeometry x="200" y="660" width="30" height="30" as="geometry" />
        </mxCell>
        <mxCell id="Coo2CabvopmprcEsMxN6-103" style="rounded=0;orthogonalLoop=1;jettySize=auto;html=1;endArrow=none;endFill=0;exitX=0.325;exitY=0.046;exitDx=0;exitDy=0;entryX=0.732;entryY=0.941;entryDx=0;entryDy=0;exitPerimeter=0;entryPerimeter=0;fillColor=#d5e8d4;gradientColor=#97d077;strokeColor=#82b366;" edge="1" parent="1" source="Coo2CabvopmprcEsMxN6-104" target="Coo2CabvopmprcEsMxN6-110">
          <mxGeometry relative="1" as="geometry">
            <mxPoint x="260" y="650" as="sourcePoint" />
          </mxGeometry>
        </mxCell>
        <mxCell id="Coo2CabvopmprcEsMxN6-104" value="9" style="ellipse;whiteSpace=wrap;html=1;aspect=fixed;fillColor=#d5e8d4;gradientColor=#97d077;strokeColor=#82b366;" vertex="1" parent="1">
          <mxGeometry x="240" y="660" width="30" height="30" as="geometry" />
        </mxCell>
        <mxCell id="Coo2CabvopmprcEsMxN6-105" value="5" style="ellipse;whiteSpace=wrap;html=1;aspect=fixed;fillColor=#d5e8d4;gradientColor=#97d077;strokeColor=#82b366;" vertex="1" parent="1">
          <mxGeometry x="280" y="620" width="30" height="30" as="geometry" />
        </mxCell>
        <mxCell id="Coo2CabvopmprcEsMxN6-106" value="6" style="ellipse;whiteSpace=wrap;html=1;aspect=fixed;fillColor=#d5e8d4;gradientColor=#97d077;strokeColor=#82b366;" vertex="1" parent="1">
          <mxGeometry x="320" y="620" width="30" height="30" as="geometry" />
        </mxCell>
        <mxCell id="Coo2CabvopmprcEsMxN6-107" value="7" style="ellipse;whiteSpace=wrap;html=1;aspect=fixed;fillColor=#d5e8d4;gradientColor=#97d077;strokeColor=#82b366;" vertex="1" parent="1">
          <mxGeometry x="360" y="620" width="30" height="30" as="geometry" />
        </mxCell>
        <mxCell id="Coo2CabvopmprcEsMxN6-108" style="edgeStyle=none;rounded=0;orthogonalLoop=1;jettySize=auto;html=1;exitX=0.5;exitY=0;exitDx=0;exitDy=0;entryX=0.5;entryY=1;entryDx=0;entryDy=0;endArrow=none;endFill=0;fillColor=#d5e8d4;gradientColor=#97d077;strokeColor=#82b366;" edge="1" parent="1" source="Coo2CabvopmprcEsMxN6-109" target="Coo2CabvopmprcEsMxN6-97">
          <mxGeometry relative="1" as="geometry" />
        </mxCell>
        <mxCell id="Coo2CabvopmprcEsMxN6-109" value="0" style="ellipse;whiteSpace=wrap;html=1;aspect=fixed;fillColor=#f8cecc;gradientColor=#ea6b66;strokeColor=#b85450;" vertex="1" parent="1">
          <mxGeometry x="80" y="660" width="30" height="30" as="geometry" />
        </mxCell>
        <mxCell id="Coo2CabvopmprcEsMxN6-110" value="3" style="ellipse;whiteSpace=wrap;html=1;aspect=fixed;fillColor=#d5e8d4;gradientColor=#97d077;strokeColor=#82b366;" vertex="1" parent="1">
          <mxGeometry x="220" y="620" width="30" height="30" as="geometry" />
        </mxCell>
        <mxCell id="Coo2CabvopmprcEsMxN6-111" style="edgeStyle=none;rounded=0;orthogonalLoop=1;jettySize=auto;html=1;exitX=0.729;exitY=0.054;exitDx=0;exitDy=0;entryX=0.033;entryY=0.674;entryDx=0;entryDy=0;endArrow=none;endFill=0;entryPerimeter=0;exitPerimeter=0;fillColor=#d5e8d4;gradientColor=#97d077;strokeColor=#82b366;" edge="1" parent="1" source="Coo2CabvopmprcEsMxN6-112" target="Coo2CabvopmprcEsMxN6-127">
          <mxGeometry relative="1" as="geometry" />
        </mxCell>
        <mxCell id="Coo2CabvopmprcEsMxN6-112" value="8" style="ellipse;whiteSpace=wrap;html=1;aspect=fixed;fillColor=#d5e8d4;gradientColor=#97d077;strokeColor=#82b366;" vertex="1" parent="1">
          <mxGeometry x="480" y="840" width="30" height="30" as="geometry" />
        </mxCell>
        <mxCell id="Coo2CabvopmprcEsMxN6-129" style="edgeStyle=none;rounded=0;orthogonalLoop=1;jettySize=auto;html=1;exitX=1;exitY=0;exitDx=0;exitDy=0;entryX=0;entryY=1;entryDx=0;entryDy=0;endArrow=none;endFill=0;fillColor=#d5e8d4;gradientColor=#97d077;strokeColor=#82b366;" edge="1" parent="1" source="Coo2CabvopmprcEsMxN6-113" target="Coo2CabvopmprcEsMxN6-127">
          <mxGeometry relative="1" as="geometry" />
        </mxCell>
        <mxCell id="Coo2CabvopmprcEsMxN6-113" value="1" style="ellipse;whiteSpace=wrap;html=1;aspect=fixed;fillColor=#f8cecc;gradientColor=#ea6b66;strokeColor=#b85450;" vertex="1" parent="1">
          <mxGeometry x="520" y="840" width="30" height="30" as="geometry" />
        </mxCell>
        <mxCell id="Coo2CabvopmprcEsMxN6-114" style="edgeStyle=none;rounded=0;orthogonalLoop=1;jettySize=auto;html=1;exitX=1;exitY=0;exitDx=0;exitDy=0;entryX=0.29;entryY=0.949;entryDx=0;entryDy=0;endArrow=none;endFill=0;entryPerimeter=0;fillColor=#d5e8d4;gradientColor=#97d077;strokeColor=#82b366;" edge="1" parent="1" source="Coo2CabvopmprcEsMxN6-115" target="Coo2CabvopmprcEsMxN6-127">
          <mxGeometry relative="1" as="geometry" />
        </mxCell>
        <mxCell id="Coo2CabvopmprcEsMxN6-115" value="2" style="ellipse;whiteSpace=wrap;html=1;aspect=fixed;fillColor=#d5e8d4;gradientColor=#97d077;strokeColor=#82b366;" vertex="1" parent="1">
          <mxGeometry x="560" y="840" width="30" height="30" as="geometry" />
        </mxCell>
        <mxCell id="Coo2CabvopmprcEsMxN6-116" style="rounded=0;orthogonalLoop=1;jettySize=auto;html=1;exitX=0.5;exitY=0;exitDx=0;exitDy=0;entryX=0.5;entryY=1;entryDx=0;entryDy=0;endArrow=none;endFill=0;fillColor=#d5e8d4;gradientColor=#97d077;strokeColor=#82b366;" edge="1" parent="1" source="Coo2CabvopmprcEsMxN6-117" target="Coo2CabvopmprcEsMxN6-127">
          <mxGeometry relative="1" as="geometry" />
        </mxCell>
        <mxCell id="Coo2CabvopmprcEsMxN6-117" value="4" style="ellipse;whiteSpace=wrap;html=1;aspect=fixed;fillColor=#d5e8d4;gradientColor=#97d077;strokeColor=#82b366;" vertex="1" parent="1">
          <mxGeometry x="600" y="840" width="30" height="30" as="geometry" />
        </mxCell>
        <mxCell id="Coo2CabvopmprcEsMxN6-118" style="rounded=0;orthogonalLoop=1;jettySize=auto;html=1;endArrow=none;endFill=0;exitX=0;exitY=0;exitDx=0;exitDy=0;entryX=0.975;entryY=0.674;entryDx=0;entryDy=0;entryPerimeter=0;fillColor=#d5e8d4;gradientColor=#97d077;strokeColor=#82b366;" edge="1" parent="1" source="Coo2CabvopmprcEsMxN6-119" target="Coo2CabvopmprcEsMxN6-127">
          <mxGeometry relative="1" as="geometry">
            <mxPoint x="620" y="830" as="sourcePoint" />
          </mxGeometry>
        </mxCell>
        <mxCell id="Coo2CabvopmprcEsMxN6-119" value="9" style="ellipse;whiteSpace=wrap;html=1;aspect=fixed;fillColor=#d5e8d4;gradientColor=#97d077;strokeColor=#82b366;" vertex="1" parent="1">
          <mxGeometry x="720" y="840" width="30" height="30" as="geometry" />
        </mxCell>
        <mxCell id="Coo2CabvopmprcEsMxN6-120" style="edgeStyle=none;rounded=0;orthogonalLoop=1;jettySize=auto;html=1;exitX=0.303;exitY=0.048;exitDx=0;exitDy=0;entryX=0.725;entryY=0.959;entryDx=0;entryDy=0;endArrow=none;endFill=0;entryPerimeter=0;exitPerimeter=0;fillColor=#d5e8d4;gradientColor=#97d077;strokeColor=#82b366;" edge="1" parent="1" source="Coo2CabvopmprcEsMxN6-121" target="Coo2CabvopmprcEsMxN6-127">
          <mxGeometry relative="1" as="geometry" />
        </mxCell>
        <mxCell id="Coo2CabvopmprcEsMxN6-121" value="5" style="ellipse;whiteSpace=wrap;html=1;aspect=fixed;fillColor=#dae8fc;gradientColor=#7ea6e0;strokeColor=#6c8ebf;" vertex="1" parent="1">
          <mxGeometry x="640" y="840" width="30" height="30" as="geometry" />
        </mxCell>
        <mxCell id="Coo2CabvopmprcEsMxN6-122" style="edgeStyle=none;rounded=0;orthogonalLoop=1;jettySize=auto;html=1;exitX=0.5;exitY=0;exitDx=0;exitDy=0;entryX=0.5;entryY=1;entryDx=0;entryDy=0;endArrow=none;endFill=0;fillColor=#d5e8d4;gradientColor=#97d077;strokeColor=#82b366;" edge="1" parent="1" source="Coo2CabvopmprcEsMxN6-123" target="Coo2CabvopmprcEsMxN6-121">
          <mxGeometry relative="1" as="geometry" />
        </mxCell>
        <mxCell id="Coo2CabvopmprcEsMxN6-123" value="6" style="ellipse;whiteSpace=wrap;html=1;aspect=fixed;fillColor=#dae8fc;gradientColor=#7ea6e0;strokeColor=#6c8ebf;" vertex="1" parent="1">
          <mxGeometry x="640" y="880" width="30" height="30" as="geometry" />
        </mxCell>
        <mxCell id="Coo2CabvopmprcEsMxN6-124" value="7" style="ellipse;whiteSpace=wrap;html=1;aspect=fixed;fillColor=#d5e8d4;gradientColor=#97d077;strokeColor=#82b366;" vertex="1" parent="1">
          <mxGeometry x="680" y="840" width="30" height="30" as="geometry" />
        </mxCell>
        <mxCell id="Coo2CabvopmprcEsMxN6-125" style="edgeStyle=none;rounded=0;orthogonalLoop=1;jettySize=auto;html=1;exitX=0.5;exitY=0;exitDx=0;exitDy=0;entryX=0.5;entryY=1;entryDx=0;entryDy=0;endArrow=none;endFill=0;fillColor=#d5e8d4;gradientColor=#97d077;strokeColor=#82b366;" edge="1" parent="1" source="Coo2CabvopmprcEsMxN6-126" target="Coo2CabvopmprcEsMxN6-112">
          <mxGeometry relative="1" as="geometry" />
        </mxCell>
        <mxCell id="Coo2CabvopmprcEsMxN6-126" value="0" style="ellipse;whiteSpace=wrap;html=1;aspect=fixed;fillColor=#d5e8d4;gradientColor=#97d077;strokeColor=#82b366;" vertex="1" parent="1">
          <mxGeometry x="480" y="880" width="30" height="30" as="geometry" />
        </mxCell>
        <mxCell id="Coo2CabvopmprcEsMxN6-127" value="3" style="ellipse;whiteSpace=wrap;html=1;aspect=fixed;fillColor=#dae8fc;gradientColor=#7ea6e0;strokeColor=#6c8ebf;" vertex="1" parent="1">
          <mxGeometry x="600" y="800" width="30" height="30" as="geometry" />
        </mxCell>
        <mxCell id="Coo2CabvopmprcEsMxN6-128" style="edgeStyle=none;rounded=0;orthogonalLoop=1;jettySize=auto;html=1;exitX=0;exitY=0;exitDx=0;exitDy=0;entryX=0.888;entryY=0.817;entryDx=0;entryDy=0;endArrow=none;endFill=0;entryPerimeter=0;fillColor=#d5e8d4;gradientColor=#97d077;strokeColor=#82b366;" edge="1" parent="1" source="Coo2CabvopmprcEsMxN6-124" target="Coo2CabvopmprcEsMxN6-127">
          <mxGeometry relative="1" as="geometry" />
        </mxCell>
      </root>
    </mxGraphModel>
  </diagram>
</mxfile>
